<svg id="Layer_1" enable-background="new 0 0 512.32 512.32" height="512" viewBox="0 0 512.32 512.32" width="512" xmlns="http://www.w3.org/2000/svg"><circle cx="148" cy="212.16" r="20"/><path d="m512.32 96.16c0-68.547-67.991-96-136-96-21.52 0-36.539 6.732-46.867 14.959-34.406-14.122-61.84.933-73.293 1.049-11.559-.118-38.816-15.201-73.293-1.049-10.328-8.226-25.347-14.959-46.867-14.959-67.992 0-136 27.443-136 96 0 62.861 43.176 121.098 27.2 142.4-7.893 10.522-.372 25.6 12.8 25.6 11.026 0 19.178-6.106 25.04-13.317-9.278 96.871 43.646 88.136 46.784 157.576-.326 58.473-2.132 103.741 56.176 103.741 12.785 0 18.786-12.455 27.704-28.437 6.283 6.702 15.147 12.437 28.296 12.437 17.357 0 25.784-3.703 32.16-7.315 6.376 3.612 14.803 7.315 32.16 7.315 13.149 0 22.013-5.735 28.296-12.437 8.915 15.977 14.977 28.437 27.704 28.437 58.153 0 56.504-44.869 56.176-103.741 3.136-69.406 56.062-60.702 46.784-157.576 5.863 7.211 14.015 13.317 25.04 13.317 13.158 0 20.701-15.067 12.8-25.6-15.98-21.308 27.2-79.514 27.2-142.4zm-224 368c-10.928 0-13.944-1.742-16.861-3.426-10.797-6.232-20.015-6.108-30.598 0-2.917 1.684-5.934 3.426-16.861 3.426-4.601 0-7.052-4.66-10.869-10.81 7.571-12.372 28.658-45.19 43.19-45.19 14.143 0 35.499 33.146 42.869 45.19-4.669 7.523-6.741 10.81-10.87 10.81zm62.951 15.663c-19.134-31.491-51.629-104.048-95.11-103.655-43.21-.391-75.166 70.829-95.11 103.655-10.322-1.139-11.793-4.965-13.116-8.406-5.271-13.705-3.406-47.002-4.109-63.723.365-54.329 10.66-117.378 61.793-136.552 1.108-.416 2.198-.831 3.276-1.246-10.808 7.979-16.895 18.757-16.895 30.264 0 12.357 9.078 24.488 30.354 40.564 12.563 9.493 24.948 16.879 25.47 17.188 5.039 2.996 11.312 2.996 16.352 0 .521-.31 12.907-7.696 25.47-17.188 21.276-16.076 30.354-28.207 30.354-40.564 0-25.472-27.445-34.325-13.298-29.019 51.119 19.169 61.428 82.188 61.793 136.552-.115 2.726-.175 5.544-.175 8.466 0 55.979-1.922 61.994-17.049 63.664zm-95.111-234.593c5.621 4.53 12.759 8.978 21.501 13.405-13.762-3.248-28.873-3.306-42.738-.135 8.622-4.382 15.673-8.786 21.237-13.27zm-.16 42.93c18.727 0 29.804 7.411 31.706 11.02-3.479 5.456-16.961 16.49-31.706 26.119-14.746-9.63-28.227-20.664-31.706-26.119 1.902-3.609 12.979-11.02 31.706-11.02zm200.266-97.362c-15.587-54.671-31.031-150.638-87.946-150.638-8.837 0-16 7.164-16 16s7.163 16 16 16c18.092 0 31.281 37.322 36.871 54.521-4.906-6.672-14.187-8.544-21.33-4.09-7.493 4.671-9.781 14.536-5.119 22.034.376.604 37.578 61.202 37.578 127.536 0 32.765-10.487 44.476-23.614 63.402-9.448-38.91-30.085-77.627-74.768-94.384-33.379-12.517-43.146-21.658-45.619-24.621.224-9.316-7.491-16.79-16.701-16.378-8.922.206-15.829 7.599-15.618 16.378-2.474 2.963-12.24 12.104-45.619 24.621-44.682 16.756-65.32 55.474-74.768 94.384-13.427-19.361-23.613-30.793-23.613-63.403 0-66.042 36.876-126.398 37.57-127.524 4.681-7.493 2.401-17.361-5.09-22.043-7.148-4.467-16.442-2.59-21.352 4.088 5.569-17.134 18.765-54.52 36.871-54.52 8.837 0 16-7.164 16-16s-7.163-16-16-16c-56.731 0-71.999 94.706-87.945 150.638-8.779-28.085-24.054-61.1-24.054-94.639 0-60.915 86.633-64 104-64 14.796 0 25.829 4.727 32.795 14.05 5.753 7.702 7.144 16.119 7.205 17.993.023 8.817 7.178 15.957 16 15.957 8.837 0 16-7.164 16-16 0-4.53-1.219-12.792-5.01-21.962 20.453-4.58 36.57 6.123 53.171 5.954 16.508.168 32.803-10.514 53.17-5.953-3.792 9.17-5.01 17.432-5.01 21.962 0 8.836 7.163 16.03 16 16.03 8.836 0 15.999-7.133 15.999-15.969.054-1.839 1.435-10.285 7.206-18.011 6.966-9.323 17.999-14.05 32.795-14.05 17.367 0 104 3.085 104 64-.001 33.54-15.281 66.57-24.055 94.637z"/><circle cx="364.32" cy="212.16" r="20"/></svg>