<svg id="Layer_1" enable-background="new 0 0 512 512" height="512" viewBox="0 0 512 512" width="512" xmlns="http://www.w3.org/2000/svg"><circle cx="184" cy="163.276" r="16"/><path d="m416.88 93.967c-4.868-3.247-13.785-7.049-35.756-4.799-31.066-30.962-81.299-37.892-125.124-37.892-43.826 0-94.058 6.93-125.124 37.892-21.971-2.25-30.888 1.552-35.751 4.795-29.427 19.619-95.125 137.088-95.125 189.313 0 35.664 31.06 61.266 56.017 81.837 8.753 7.215 21.866 18.023 23.965 22.829-.821 14.958-23.217 34.551-15.174 54.809 13.74 34.597 97.998 20.353 116.347-52.385 2.906.984 6.05 1.631 9.404 1.913 30.132 25.274 100.519 25.469 130.883 0 3.354-.282 6.498-.929 9.404-1.913 18.343 72.715 102.637 86.907 116.347 52.385 8.044-20.259-14.354-39.877-15.174-54.809 2.099-4.806 15.212-15.614 23.965-22.829 24.956-20.571 56.016-46.172 56.016-81.837 0-52.482-65.938-169.854-95.12-189.309zm-160.88-10.691c50.657 0 85.758 10.233 104.329 30.416 12.596 13.689 17.74 32.09 15.726 56.255-4.277 51.319-20.676 77.763-34.291 98.746-3.375-12.756-6.243-21.452-6.585-22.477-2.793-8.381-11.849-12.91-20.233-10.119-8.382 2.791-12.915 11.85-10.126 20.233 8.463 25.443 20.798 77.274 15.491 103.807-.309 1.65-20.274-.137-39.302-15.052 42.926-25.61 29.83-57.69 30.514-57.69-7.03-28.119-41.012-28.119-55.522-28.119s-48.492 0-55.522 28.12c-6.179 24.719 8.665 44.655 30.514 57.69-5.234 4.103-12.189 8.355-20.083 11.517-11.034 4.42-17.273 4.086-19.21 3.58-1.989-9.944-1.441-22.141-.386-32.271.662-2.189.705-3.741.672-5.74 3.36-25.921 11.114-53.565 15.195-65.836 2.794-8.383-1.736-17.444-10.119-20.238-8.382-2.794-17.445 1.735-20.238 10.119-.342 1.025-3.211 9.721-6.585 22.477-13.615-20.983-30.015-47.427-34.291-98.746-2.014-24.165 3.13-42.566 15.726-56.255 18.568-20.183 53.669-30.417 104.326-30.417zm-16.729 294.847c4.74-2.838 10.944-7.006 16.729-12.281 5.785 5.274 11.988 9.443 16.729 12.281-10.572 1.541-22.884 1.541-33.458 0zm16.738-56.129c-30.248-13.719-24.322-27.022-24.402-27.126 4.285-4.811 44.534-4.805 48.766-.032.091.183.105.421.105.321 3.154 12.618-15.222 22.658-24.469 26.837zm-127.18 94.749c-11.749 9.392-24.426 12.187-31.648 11.961.99-1.994 2.15-4.151 3.082-5.885 22.21-41.334 12.319-52.551-23.892-82.399-19.769-16.294-44.371-36.572-44.371-57.144 0-37.695 51.097-133.363 77.266-159.561-4.968 14.414-6.723 30.749-5.211 48.889 3.759 45.108 16.005 74.079 28.18 95.426 8.08 22.368 16.334 45.692 19.845 80.838 3.772 37.722-10.562 57.732-23.251 67.875zm306.801-76.322c-36.183 29.824-46.123 41.026-23.892 82.399.932 1.734 2.091 3.891 3.082 5.885-20.63.629-60.88-20.028-54.898-79.837 3.51-35.144 11.764-58.468 19.844-80.836 12.175-21.346 24.421-50.318 28.18-95.426 1.512-18.142-.243-34.477-5.212-48.891 26.03 26.056 77.266 121.731 77.266 159.561 0 20.572-24.602 40.85-44.37 57.145z"/><circle cx="328" cy="163.276" r="16"/></svg>