<svg id="Layer_1" enable-background="new 0 0 512.105 512.105" height="512" viewBox="0 0 512.105 512.105" width="512" xmlns="http://www.w3.org/2000/svg"><circle cx="184.053" cy="200.035" r="16"/><path d="m469.772 311.803c-23.225-38.707-30.564-38.573-52.55-125.112 14.934-29.938 24.847-129.205 9.727-165.706-18.241-44.04-70.577-14.979-106.441 51.944-37.219-11.985-91.68-11.989-128.914 0-36.081-67.332-88.3-95.737-106.439-51.944-15.015 36.249-5.293 135.596 9.727 165.706-21.976 86.499-29.31 86.38-52.55 125.112-6.109 10.181.637 23.281 12.5 24.186-6.963 12.179-11.346 30.146.808 37.657 4.717 2.916 10.607 3.18 15.567.701 1.564-.781 5.793-.433 12.57 3.117 28.515 14.941 65.131 65.704 68.436 88.835 2.378 16.646 25.7 18.753 31.018 2.797 1.196-3.587 2.38-6.745 3.516-9.509 10.238 11.591 24.812 27.624 36.197 38.181 9.648 8.947 21.455 18.861 33.109 12.11 11.612 6.727 23.465-3.167 33.109-12.11 11.383-10.556 25.955-26.586 36.197-38.181 1.135 2.764 2.319 5.921 3.516 9.509 5.319 15.961 28.64 13.853 31.018-2.797 3.304-23.131 39.92-73.894 68.436-88.835 6.777-3.55 11.006-3.898 12.57-3.117 14.127 7.063 33.843-7.803 16.375-38.357 11.888-.909 18.596-14.025 12.498-24.187zm-72.633-279.245c9.314 20.614 4.737 76.381.721 102.469-11.913-20.82-27.959-37.214-48.014-49.019 8.931-16.116 30.686-48.159 47.293-53.45zm-282.172 0c16.59 5.286 38.195 37.033 47.293 53.449-20.055 11.806-36.1 28.2-48.014 49.019-3.749-24.357-8.726-81.561.721-102.468zm227.642 392.008c-3.704-4.941-7.919-8.834-15.234-8.517-4.475.189-8.665 2.246-11.553 5.67-20.79 24.648-47.535 53.437-55.786 58.824-1.415.366-2.749.93-3.983 1.645-1.235-.715-2.568-1.279-3.983-1.645-8.251-5.387-34.996-34.176-55.786-58.824-2.888-3.424-7.079-5.48-11.553-5.67-7.309-.319-11.566 3.623-15.234 8.517-16.52-29.072-50.041-69.791-81.656-80.046 9.969-12.19 24.212-23.727 24.212-40.485 0-6.471-3.898-12.306-9.877-14.782-16.528-6.844-6.135 24.797 25.399-101.337 16.536-66.145 60.554-91.88 128.478-91.88 68.364 0 112.09 26.332 128.478 91.88 31.059 124.233 41.531 94.659 25.399 101.337-5.979 2.477-9.877 8.311-9.877 14.782 0 16.726 14.132 28.159 24.212 40.485-31.653 10.272-65.118 50.942-81.656 80.046z"/><circle cx="328.053" cy="200.035" r="16"/><path d="m348.448 296.65c-8.495-2.428-17.352 2.493-19.78 10.989-.034.117-3.415 11.854-9.297 23.963-9.066 18.663-15.319 20.427-15.318 20.433-5.591 0-14.306-6.976-22.269-15.992 26.615-17.68 31.868-58.313 2.275-68.876-8.115-2.896-17.485-3.132-28.006-3.132s-19.892.236-28.006 3.132c-29.615 10.571-24.351 51.194 2.28 68.879-4.766 5.43-15.022 15.992-22.215 15.992-.077-.015-6.242-1.774-15.208-20.089-5.927-12.107-9.436-24.204-9.47-24.324-2.434-8.488-11.282-13.403-19.776-10.975-8.497 2.427-13.417 11.283-10.989 19.78 6.818 23.9 23.194 61.094 48.247 66.798 9.11 8.006 31.089 24.806 55.137 24.806s46.028-16.8 55.137-24.806c24.89-5.667 41.308-42.475 48.247-66.798 2.428-8.496-2.492-17.352-10.989-19.78zm-108.72 74.645c5.943-4.707 11.362-10.235 16.325-16.13 4.962 5.894 10.38 11.422 16.325 16.13-12.275 6.272-20.361 6.28-32.65 0zm32.287-74.383c-.582 6.895-7.843 15.123-15.962 15.123s-15.38-8.228-15.962-15.123c5.454-1.202 26.467-1.203 31.924 0z"/></svg>