<svg id="Layer_1" enable-background="new 0 0 512 512" height="512" viewBox="0 0 512 512" width="512" xmlns="http://www.w3.org/2000/svg"><circle cx="176" cy="199.954" r="24"/><path d="m424 111.954c-19.96 0-43.143-54.504-95.983-40.69-35.664-9.624-108.302-9.642-144.033 0-52.808-13.805-76.051 40.69-95.984 40.69-42.383 0-88 32.545-88 104 0 56.729 21.245 181.172 75.88 167.522 37.741-9.436 65.568-37.351 67.936-67.382.108 1.298.183 2.587.183 3.86 0 50.477 20.367 128 72 128 13.543 0 28.971.382 40-5.202 11.054 5.596 26.248 5.202 40 5.202 51.765 0 72-77.854 72-128 0-1.272.075-2.562.183-3.86 2.369 30.031 30.195 57.947 67.936 67.382 54.599 13.65 75.882-110.616 75.882-167.522 0-71.455-45.616-104-88-104zm-176.852 253.329c4.041 2.683 8.922 3.311 13.363 2.016 4.252-1.248 6.852-4.397 15.666-8.01.113 4.999-.86 11.866-4.276 17.122-2.104 3.238-6.043 7.543-15.901 7.543-9.859 0-13.797-4.305-15.901-7.543-3.416-5.256-4.39-12.124-4.277-17.122 3.508 1.438 7.837 3.686 11.326 5.994zm219.731-58.124c-10.08 34.733-20.559 44.347-23.146 45.236-27.378-6.899-43.733-25.963-43.733-40.441 0-20.404 42.538-126.097-30.4-180.8-7.068-5.304-17.099-3.87-22.399 3.2-5.302 7.069-3.869 17.098 3.2 22.4 13.406 10.055 21.293 22.964 25.573 37.061-1.14 42.623-39.974 81.832-39.974 126.139 0 16.035-3.116 42.723-11.899 65.169-4.506 11.514-14.147 30.831-28.101 30.831-25.872 0-24.021-1.093-24.162-2.168 39.876-11.547 43.648-64.974 27.476-81.146-12.173-12.174-30.755-5.944-43.313.703-12.557-6.647-31.139-12.878-43.314-.703-16.151 16.151-12.486 69.574 27.476 81.146-.042.308-.072.536-.091.75-.133 1.518-22.665 1.418-24.072 1.418-13.953 0-23.595-19.316-28.1-30.831-8.783-22.446-11.9-49.135-11.9-65.169 0-44.367-38.832-83.451-39.973-126.139 4.279-14.097 12.167-27.006 25.573-37.061 7.069-5.302 8.502-15.331 3.2-22.4-5.302-7.07-15.331-8.502-22.4-3.2-72.944 54.708-30.4 160.477-30.4 180.8 0 14.477-16.349 33.538-43.732 40.44-2.588-.89-13.067-10.505-23.146-45.236-8.094-27.889-13.122-62.836-13.122-91.204 0-49.093 27.201-72 56-72 19.323 0 33.191-12.559 45.428-23.639 16.677-15.103 27.012-23.349 45.513-17.182 3.284 1.095 6.835 1.095 10.119 0 28.057-9.352 105.707-9.391 133.881 0 3.283 1.095 6.836 1.095 10.119 0 18.496-6.164 28.834 2.079 45.513 17.182 12.236 11.081 26.104 23.639 45.428 23.639 28.842 0 56 22.956 56 72-.001 28.368-5.029 63.315-13.122 91.205z"/><circle cx="336" cy="199.954" r="24"/></svg>