<svg id="Layer_1" enable-background="new 0 0 512.397 512.397" height="512" viewBox="0 0 512.397 512.397" width="512" xmlns="http://www.w3.org/2000/svg"><circle cx="192.084" cy="272.386" r="16"/><path d="m431.611 4.912c-5.538-4.822-12.959-6.17-20.355-3.706-10.189 3.395-24.604 14.695-60.776 73.877-14.439 23.624-27.935 47.735-36.194 62.814-36.448-12.81-80.442-12.559-116.173 0-8.259-15.078-21.755-39.19-36.194-62.814-36.171-59.182-50.587-70.482-60.774-73.876-7.397-2.466-14.818-1.116-20.357 3.705-12.974 11.294-9.444 33.72-.226 83.368 4.507 24.271 10.68 57.512 8.001 68.229-4.257 17.036-4.346 41.239-.239 64.738 4.072 23.344-14.914 41.318 39.054 89.769 11.353 45.771 32.708 71.604 32.708 89.371 0 42.646 8.765 107.228 52.062 103.82 26.364 10.919 61.527 10.929 87.913-.016 43.39 3.572 52.255-61.203 52.255-103.805 0-17.743 21.366-43.643 32.708-89.371 53.947-48.432 34.99-66.465 39.053-89.765 4.107-23.503 4.019-47.706-.238-64.744-2.679-10.714 3.494-43.955 8.001-68.226 9.216-49.648 12.745-72.074-.229-83.368zm-312.005 159.354c6.01-24.042-7.451-75.255-13.407-115.393 20.328 27.183 46.691 73.139 63.105 103.042-25.382 16.535-44.405 42.649-48.427 80.993.192-4.949.106-10.639-1.033-17.168-3.974-22.746-2.728-41.505-.238-51.474zm145.677 250.734c-4.602 7.058-8.271 9.123-9.199 9.371-.929-.248-4.598-2.313-9.199-9.371-2.841-4.358-4.82-8.78-5.896-11.823 8.013-3.719 22.169-3.724 30.191 0-1.076 3.044-3.056 7.465-5.897 11.823zm55.03-14.614c0 17.025-1.935 35.245-5.175 48.739-4.305 17.924-9.583 22.907-10.825 23.261-12.079 0-26.343-10.962-31.001-20.876 16.984-9.966 30.771-36.899 30.771-51.124 0-42.596-96-42.738-96 0 0 13.499 13.128 40.9 30.95 51.234-4.686 9.816-18.813 20.764-31.014 20.764-1.178-.353-6.456-5.335-10.761-23.26-3.24-13.494-5.175-31.713-5.175-48.739 0-38.75-40-66.205-40-152 0-41.181 20.249-63.201 43.45-74.919.989-.301 1.963-.698 2.908-1.204 15.27-8.175 39.687-11.877 57.871-11.877 37.385 0 57.137 12.042 60.547 13.08 23.203 11.717 43.453 33.737 43.453 74.92.001 85.81-39.999 113.214-39.999 152.001zm72.478-236.122c2.49 9.971 3.736 28.73-.239 51.481-1.139 6.526-1.224 12.215-1.032 17.164-4.022-38.345-23.045-64.458-48.427-80.993 16.414-29.903 42.777-75.859 63.105-103.042-5.902 39.778-19.405 91.402-13.407 115.39z"/><circle cx="320.313" cy="272.386" r="16"/></svg>