<svg id="Layer_1" enable-background="new 0 0 512 512" height="512" viewBox="0 0 512 512" width="512" xmlns="http://www.w3.org/2000/svg"><circle cx="184" cy="158.211" r="16"/><path d="m512 166.211c0-47.023-80.445-107.526-119.125-133.313-21.772-14.515-40.724-18.598-56.33-12.133-6.241 2.585-10.927 6.442-14.436 10.549-20.278-9.093-46.014-9.103-66.109-9.103s-45.831.01-66.109 9.103c-3.509-4.108-8.195-7.964-14.436-10.549-15.604-6.464-34.557-2.382-56.33 12.133-38.683 25.789-119.125 86.289-119.125 133.313 0 28.411 23.402 57.049 46.035 84.744 17.837 21.829 40.037 48.995 35.109 61.313-4.197 10.495 3.54 21.942 14.855 21.942 20.257 0 27.685-25.599 30.486-35.274 2.683 3.87 5.533 6.479 8.401 8.427 4.439 5.52 6.357 31.455 7.019 38.779 2.623 29.024 5.572 64.92 28.339 82.892 17.174 29.638 35.895 65.176 85.754 65.176 48.478 0 68.363-34.786 82.884-60.186.984-1.721 1.931-3.368 2.871-4.99 22.766-17.971 25.716-53.862 28.339-82.892.659-7.301 2.578-33.257 7.019-38.779 2.869-1.949 5.719-4.557 8.401-8.427 2.801 9.675 10.229 35.274 30.486 35.274 11.301 0 19.058-11.435 14.855-21.942-4.928-12.319 17.272-39.485 35.109-61.313 22.636-27.696 46.038-56.334 46.038-84.744zm-257.376 103.186c-10.315-3.025-22.624-9.507-22.624-15.186 0-2.34.186-3.658.319-4.306 2.229-1.576 6.531-3.916 10.994-8.38 1.635-1.634 7.777-3.235 12.687-3.313 4.909.078 11.052 1.678 12.687 3.313 4.465 4.466 8.766 6.805 10.994 8.38.107.521.249 1.474.3 3.043-2.674 4.017-13.916 11.25-25.357 16.449zm1.376 67.14c7.074 14.01 14.927 45.462 23.666 66.432-12.029 4.355-35.302 4.356-47.333 0 8.829-21.185 16.527-52.292 23.667-66.432zm0 125.674c-22.018 0-33.841-10.378-45.553-28.229 1.546-1.007 3.098-2.203 4.646-3.617 21.543 10.542 60.255 10.549 81.813 0 1.548 1.414 3.1 2.61 4.646 3.617-11.711 17.851-23.534 28.229-45.552 28.229zm155.581-192.171c-5.847-30.524-11.34-82.883-11.581-119.842-.001-1.696-.271-3.329-.762-4.863-1.673-26.352-5.947-71.182-30.314-81.275-8.192-3.393-21.132-4.269-36.237 10.837-6.249 6.248-6.249 16.379 0 22.627 6.248 6.249 16.379 6.249 22.627 0 .816-.815 1.524-1.454 2.124-1.951 10.062 18.547 10.471 69.301 10.585 71.479.296 5.635 2.242 24.913.713 58.938-2.014 44.821-8.983 54.079-9.873 55.085-16.006 10.913-18.154 34.686-20.64 62.188-2.421 26.8-5.152 57.051-20.404 62.89-.773-.812-2.001-2.344-3.605-5.106-16.398-30.192-21.691-80.062-42.213-94.695v-9.82c17.836-8.712 40-22.565 40-42.322 0-26.766-15.542-30.171-20.687-35.313-16.762-16.762-53.825-16.802-70.627 0-5.129 5.126-20.687 8.543-20.687 35.314 0 22.187 18.635 36.454 40 44.021v8.121c-20.441 14.576-25.904 64.667-42.213 94.695-1.604 2.762-2.833 4.294-3.605 5.106-15.252-5.838-17.983-36.089-20.404-62.89-2.485-27.502-4.634-51.276-20.64-62.188-.89-1.006-7.859-10.265-9.873-55.085-1.529-34.028.417-53.301.713-58.938.005-.101.181-52.297 10.585-71.479.6.498 1.308 1.136 2.124 1.951 6.248 6.249 16.379 6.249 22.627 0 6.249-6.248 6.249-16.379 0-22.627-15.104-15.105-28.042-14.231-36.237-10.837-24.366 10.092-28.646 54.913-30.32 81.361-.481 1.508-.746 3.112-.757 4.776-.241 37.02-5.744 89.369-11.581 119.842-21.535-34.656-68.419-77.676-68.419-103.829 0-20.962 45.087-66.828 104.875-106.687 13.601-9.067 22.47-10.713 26.24-9.233 4.09 1.607 5.503 8.497 5.195 7.058.184-.046.257 4.058 4.376 8.176 6.247 6.248 16.379 6.249 22.627 0 11.314-11.314 41.026-11.314 60.687-11.314s49.373 0 60.687 11.313c8.989 8.989 24.302 4.343 26.943-7.938.513-2.382 2.575-6.186 5.162-7.258 3.74-1.549 12.621.053 26.334 9.195 59.787 39.86 104.874 85.725 104.874 106.688 0 26.094-46.956 69.289-68.419 103.829z"/><circle cx="328" cy="158.211" r="16"/></svg>