<svg id="Layer_1" enable-background="new 0 0 512.165 512.165" height="512" viewBox="0 0 512.165 512.165" width="512" xmlns="http://www.w3.org/2000/svg"><path d="m496.386 81.459c-.222-31.844-31.493-40.829-61.915-49.541-24.586-7.041-28.851-8.665-47.553-18.926-11.547-6.335-23.451-12.992-36.467-12.992-24.727 0-42.519 16.762-51.723 40-9.613 0-74.992 0-85.297 0-9.232-23.311-27.045-40-51.723-40-20.767 0-38.008 16.584-61.382 24.932-35.063 12.525-84.081 16.594-84.544 56.267-.379 31.857 32.297 86.471 32.297 102.801 0 12.365 8.286 20.039 18.187 20.039 12.526 0 22.464-13.998 31.539-27.082 1.969 10.044 5.291 20.62 10.882 26.279 5.496 6.304 17.771 39.031 12.212 55.708-18.569 55.731-15.697 91.545-16.806 92.928-33.221 41.331-23.816 128.279 14.386 156.93 10.542 7.908 25.6.351 25.6-12.8 0-3.389.197-6.911.578-10.514 5.321 9.547 12.41 18.514 23.422 18.514 6.178 0 11.528-3.507 14.194-8.634 42.259 22.545 105.905 22.251 147.613 0 2.681 5.155 8.048 8.634 14.194 8.634 11.013 0 18.102-8.971 23.422-18.514.381 3.604.578 7.125.578 10.514 0 13.162 15.069 20.699 25.6 12.8 37.751-28.312 48.018-115.261 14.287-157.059-.822-31.149-6.302-61.571-16.707-92.799-5.559-16.676 6.717-49.403 12.212-55.708 5.591-5.659 8.913-16.235 10.882-26.279 10.092 14.548 20.824 29.485 35.091 26.736 6.751-1.3 14.635-7.238 14.635-19.692.001-15.928 32.514-70.981 32.306-102.542zm-185.935-9.459c7.588 0 14.186-5.345 15.69-12.862.041-.191 5.943-27.138 24.31-27.138 9.236 0 27.564 15.438 55.2 24.628 21.445 7.131 54.165 14.031 58.472 22.497 3.72 10.719-17.622 55.648-25.415 76.757-8.489-12.527-17.565-27.745-24.875-40.9-1.893-7.38-6.294-19.677-12.577-24.077-5.773-12.067-12.909-36.645-35.968-41.377-16.884-3.464-30.049 7.346-33.436 10.476-7.32 6.76-6.854 17.17-.714 23.31 6.248 6.249 16.379 6.249 22.627 0 .186 0 3.699-3.058 5.318-2.362 3.371 1.448 7.148 9.578 8.513 12.991 3.189 7.973 9.067 19.816 16.174 32.806 3.682 19.747-.279 47.872-3.83 54.803-13.372 14.602-28.286 59.761-19.039 87.506 6.272 18.822 10.559 37.286 12.938 55.804-27.614-13.298-57.047-13.909-86.578-13.01-16.562-10.726-46.177-10.481-62.36 0-29.531-.898-58.844-.346-86.578 13.01 2.379-18.518 6.666-36.982 12.938-55.804 9.343-28.03-5.975-73.24-19.039-87.506-3.551-6.931-7.512-35.056-3.83-54.803 7.107-12.99 12.985-24.833 16.174-32.806 1.286-3.216 5.34-11.983 8.637-13.033 1.697-.535 5.004 2.405 5.194 2.405 6.248 6.249 16.379 6.249 22.627 0 6.156-6.156 6.587-16.568-.714-23.31-3.387-3.129-16.551-13.94-33.436-10.476-22.892 4.699-30.149 29.214-35.968 41.377-6.279 4.396-10.681 16.682-12.577 24.077-7.305 13.144-16.388 28.375-24.875 40.9-7.787-21.092-29.134-66.04-25.415-76.757 3.596-7.069 29.828-13.971 38.461-16.443 26.728-7.655 33.427-10.272 54.136-21.635 8.105-4.449 16.487-9.048 21.073-9.048 18.367 0 24.269 26.947 24.31 27.138 1.488 7.44 8.023 12.862 15.69 12.862zm71.941 352.845c-7.505-15.007-30.311-9.706-30.311 7.155 0 1.952-.388 4.533-1.052 7.464-9.697-25.516-27.89-47.464-54.948-47.464-3.954 0-8.299-.272-12.204-1.063 14.205-10.879 20.398-29.722 20.193-47.444 32.742-.093 64.508 6.098 82.697 33.382 10.301 15.452 12.169 47.596 5.818 73.341-3.608-11.424-7.685-20.354-10.193-25.371zm-222.312 7.155c0-16.815-22.789-22.197-30.311-7.155-2.508 5.017-6.585 13.947-10.194 25.371-6.351-25.745-4.483-57.889 5.818-73.341 18.187-27.28 49.978-33.475 82.697-33.382-.204 17.66 5.931 36.521 20.193 47.444-3.874.785-8.236 1.063-12.204 1.063-27.071 0-45.259 21.966-54.948 47.464-.663-2.931-1.051-5.512-1.051-7.464zm80.001-88c0-.662.003-1.458.215-2.289 1.852-1.112 3.456-2.583 4.722-4.324 5.283-1.865 16.835-1.868 22.126 0 1.265 1.741 2.87 3.212 4.722 4.324.928 3.634.31 26.289-15.785 26.289-14.847 0-16-18.37-16-24zm-52.36 117.122c5.337-20.117 16.007-37.122 28.359-37.122 16.862 0 30.268-3.592 40-10.67 9.732 7.078 23.138 10.67 40 10.67 12.352 0 23.021 17.005 28.359 37.122-35.874 25.606-101.383 25.221-136.718 0z"/><path d="m295.96 149.925c2.372-1.328 6.168-3.024 10.299-4.371 22.714-7.419 33.187.464 38.437 18.841 2.015 7.053 8.44 11.608 15.377 11.608 10.648 0 18.306-10.2 15.392-20.399-7.298-25.544-21.975-36.258-33.002-40.749-19.891-8.099-45.059-2.615-62.32 7.252-7.672 4.384-10.367 14.175-5.983 21.847 4.384 7.674 14.128 10.356 21.8 5.971z"/><path d="m328.081 184c-8.809 0-16 7.136-16 16 0 8.809 7.136 16 16 16 8.837 0 16-7.164 16-16s-7.164-16-16-16z"/><path d="m171.865 114.042c-18.514 6.577-29.708 22.444-35.17 41.562-2.912 10.191 4.738 20.399 15.392 20.399 6.939 0 13.362-4.557 15.377-11.608 5.39-18.867 16.345-26.674 40-18.308 3.637 1.285 6.752 2.727 8.736 3.837 7.672 4.384 17.417 1.703 21.801-5.97 4.384-7.672 1.689-17.463-5.983-21.847-3.325-1.899-32.597-17.86-60.153-8.065z"/><path d="m184.08 184c-8.809 0-16 7.136-16 16 0 8.809 7.136 16 16 16 8.837 0 16-7.164 16-16s-7.164-16-16-16z"/></svg>