<svg id="Layer_1" enable-background="new 0 0 512 512" height="512" viewBox="0 0 512 512" width="512" xmlns="http://www.w3.org/2000/svg"><path d="m176.875 145.957c-.94.616 4.831-3.24 10.892-4.185 3.267-.507 6.581-.152 8.919 2.186 6.249 6.248 16.379 6.248 22.628 0 6.248-6.249 6.248-16.379 0-22.628-16.816-16.815-42.603-13.724-60.189-1.999-7.353 4.902-9.339 14.836-4.438 22.188 4.917 7.376 14.856 9.326 22.188 4.438z"/><path d="m343.182 160.06c-6.739-4.554-15.617-4.56-22.364 0-16.231 10.962-8.485 36.584 11.182 36.584 19.528 0 27.575-25.51 11.182-36.584z"/><path d="m352.875 119.331c-17.915-11.943-43.581-14.608-60.189 1.999-10.111 10.112-2.811 27.314 11.314 27.314 11.746 0 9.659-9.048 21.171-6.705 9.035 1.837 11.257 6.707 18.814 6.707 15.699 0 22.089-20.515 8.89-29.315z"/><path d="m480 164.644c0-64.599-36.407-93.098-82.366-88.966-25.208-43.26-92.131-51.965-141.634-47.122-49.659-4.858-116.451 3.904-141.633 47.122-45.705-4.109-82.367 24.086-82.367 88.966 0 92.449-32 82.225-32 144 0 16.38 0 43.795 5.398 67.546 9.853 43.354 32.956 52.454 50.602 52.454 14.438 0 17.618 3.106 17.746 3.239 3.777 3.893-4.85 28.014 9.484 42.789 6.51 6.71 15.921 9.972 28.77 9.972 54.676 0 83.097-45.581 71.522-91.88-2.091-8.364-4.132-15.483-5.735-21.425 22.005 10.993 55.122 19.366 78.212 11.034 22.968 8.288 56.005.06 78.212-11.034-1.588 5.889-3.648 13.081-5.735 21.425-11.563 46.253 16.803 91.88 71.522 91.88 12.849 0 22.26-3.262 28.77-9.972 14.361-14.802 5.692-38.881 9.484-42.789.128-.132 3.308-3.239 17.746-3.239 17.646 0 40.749-9.1 50.602-52.454 5.4-23.75 5.4-51.166 5.4-67.546 0-62.04-32-51.318-32-144zm-334.303 273.949c-7.28 9.324-18.617 14.051-33.697 14.051-2.659 0-4.341-.234-5.321-.446-1.177-11.195 9.762-55.554-50.679-55.554-23.565 0-24-64.625-24-88 0-48.828 32-46.097 32-144 0-31.078 9.142-56.39 40.451-57.337-.295 3.038-.451 6.148-.451 9.337 0 171.291 38.31 146.833 32.276 194.599-.346 2.736-.671 5.366-.736 8.188-.225 9.764 3.661 18.752 9.474 26.455-11.287 23.824 24.143 62.659.683 92.707zm198.763-117.761c-1.34 5.191-8.037 12.705-20.03 19.512-11.421 6.483-26.568 11.668-40.18 13.032-18.022 1.796-18.412-3.085-25.134-4.425-4.524-.902-7.456.373-7.73.373-4.953 1.49-6.294 5.781-23.637 4.053-13.856-1.391-28.995-6.683-40.18-13.032-11.993-6.807-18.69-14.322-20.03-19.512-.712-5.823 7.9-25.087-9.229-59.343-14.797-29.596-22.31-60.123-22.31-144.846 0-14.997 4.844-26.604 14.81-35.484 26.534-23.643 83.564-22.906 103.32-20.625 1.332.154 2.617.09 3.733 0 29.544-3.476 80.021-.142 103.327 20.625 9.966 8.88 14.81 20.487 14.81 35.484 0 84.723-7.513 115.25-22.311 144.845-17.096 34.192-8.53 53.629-9.229 59.343zm111.54 75.812c-18.938 0-32.255 4.238-40.714 12.957-13.752 14.175-9.045 33.842-9.965 42.597-.979.212-2.662.446-5.321.446-15.08 0-26.417-4.728-33.697-14.051-23.512-30.114 12.04-68.734.683-92.706 8.671-11.491 10.369-21.047 8.98-32.688-1.165-9.768-2.931-18.85 6.345-37.399 17.038-34.077 25.689-68.047 25.689-159.156 0-3.189-.156-6.299-.451-9.337 31.228.945 40.451 26.222 40.451 57.337 0 97.957 32 95.14 32 144 0 23.418-.429 88-24 88z"/><path d="m200 176.644c0-14.272-14.587-24.011-27.785-18.428-16.262 6.876-16.253 29.984 0 36.856 13.143 5.56 27.785-4.104 27.785-18.428z"/><path d="m314.995 314.635c-7.56-10.272-11.995-14.425-22.921-19.133-14.553-6.264-20.074-6.268-20.074-18.858 0-1.195-.141-2.355-.389-3.475 3.896-1.76 7.571-4.137 10.865-6.995 26.852-23.316 11.648-53.53-26.475-53.53-38.196 0-53.271 30.265-26.475 53.53 3.326 2.887 7.008 5.253 10.865 6.995-.248 1.12-.389 2.28-.389 3.475 0 10.354-3.157 12.044-15.228 16.868-14.038 5.612-18.516 8.55-27.767 21.122-6.603 8.97-3.64 18.592 2.868 23.307 6.57 4.759 15.628 3.829 21.092-2.046.841-.904 1.208-1.476 2.005-2.552 5.16-6.966 5.15-6.709 13.679-10.117 34.62-13.844 4.063-13.853 38.702 0 8.354 3.338 8.461 3.072 13.679 10.117.805 1.087 1.168 1.652 2.005 2.552 5.456 5.868 14.511 6.813 21.092 2.046 6.577-4.766 9.421-14.401 2.866-23.306z"/></svg>