<svg id="Layer_1" enable-background="new 0 0 512.017 512.017" height="512" viewBox="0 0 512.017 512.017" width="512" xmlns="http://www.w3.org/2000/svg"><circle cx="180.009" cy="252.009" r="20"/><circle cx="332.009" cy="252.009" r="20"/><path d="m511.868 269.893c-10.93-81.97-60.284-121.7-116.555-125.709-32.866-20.314-82.795-25.178-121.537-24.815 7.771-36.266 38.573-57.682 39.155-58.079 7.313-4.913 9.282-14.82 4.391-22.157-4.901-7.353-14.835-9.339-22.188-4.438-1.255.837-18.251 12.401-33.043 33.533-12.778-41.072-33.511-62.277-34.768-63.534-6.249-6.248-16.379-6.248-22.628 0-6.248 6.249-6.248 16.379 0 22.628.257.256 18.77 19.241 28.883 57.408-13.578-7.425-26.232-11.266-29.173-12.106-8.484-2.424-17.321 2.484-19.759 10.967-2.439 8.482 2.464 17.341 10.943 19.794 8.387 2.427 22.797 8.404 32.926 16.009-35.977.528-81.061 5.785-111.809 24.79-56.004 3.99-105.563 43.284-116.555 125.709-1.814 13.603 13.299 23.052 24.734 15.428 1.444-.963 2.891-1.895 4.332-2.796-14.039 48.397-8.322 104.1 3.219 153.148 3.356 14.26 22.609 16.855 29.621 3.999 22.641 40.938 63.447 65.565 119.641 64.785 9.591 5.758 18.699 7.552 26.313 7.552 6.14 0 11.924-3.539 14.578-9.42 22.756 12.291 43.192 12.775 66.844 0 2.655 5.883 8.438 9.42 14.578 9.42 7.614 0 16.722-1.795 26.313-7.552 51.369.714 94.896-20.037 119.641-64.785 7.014 12.86 26.267 10.259 29.62-3.999 11.539-49.041 17.259-104.746 3.219-153.148 1.441.901 2.888 1.833 4.332 2.796 11.416 7.614 26.55-1.805 24.732-15.428zm-257.087-117.932c3.574.277 55.726-4.234 99.149 8.839-2.554 1.483-4.212 2.871-5.235 3.894-6.447 6.448-6.217 16.999.551 23.153.742.675 69.577 64.439 42.697 135.482-21.733-26.801-47.817-37.669-67.536-41.956-21.315-4.634-43.219-2.64-49.519-.521-5.732-3.825-10.849-6.686-11.091-6.821-4.842-2.697-10.735-2.697-15.576 0-13.791 7.682-9.392 7.102-12.742 6.358-.875-.194-21.734-4.698-47.87.984-19.725 4.288-45.818 15.162-67.555 41.981-10.572-27.659-7.989-57.264 7.763-88.209 14.401-28.292 34.773-47.132 34.954-47.298 7.158-6.507 8.277-19.52-4.686-27.047 33.992-10.234 77.656-10.281 96.696-8.839zm1.228 328.048c-11.871 0-28.16-9.586-44.077-25.813-3.343-14.945-4.461-30.468.937-43.814 14.999-11.433 31.737-26.752 43.14-42.188 11.394 15.423 28.121 30.739 43.141 42.188 5.398 13.346 4.279 28.869.937 43.814-15.918 16.226-32.208 25.813-44.078 25.813zm-122.014-120.23c24.524-44.144 62.586-49.719 82.153-49.341 1.146 10.751 9.875 19.254 22.869 23.187-5.248 16.52-30.57 40.656-48.308 53.364-2.124 1.517-3.844 3.53-5.011 5.864-10.373 20.746-9.963 43.132-6.015 63.472-9.824-16.613-17.008-38.2-20.055-51.79-2.432-10.932-15.117-16.091-24.494-9.84l-9.573 6.382c-2.164-8.714-2.037-22.45 8.434-41.298zm218.395 44.757c-2.899 13.035-10.12 34.636-19.979 51.397 3.876-20.234 4.214-42.468-6.092-63.08-1.167-2.334-2.887-4.348-5.011-5.864-17.749-12.678-43.08-36.797-48.314-53.362 12.997-3.932 21.728-12.436 22.875-23.188 19.567-.379 57.629 5.196 82.153 49.34 10.532 18.958 10.716 32.625 8.501 41.343l-9.64-6.427c-9.32-6.212-22.047-1.16-24.493 9.841zm-272.599-7.158c-1.851-11.11-14.325-16.869-23.979-11.111-5.466-41.987-1.899-71.426 2.853-90.109 6.266-24.634 15.773-35.824 16.751-36.926 12.001-11.446.101-31.929-16.468-26.403-.579.193-8.34 2.809-19.407 7.897 13.905-40.105 40.012-55.672 61.056-61.511 6.081 6.188 11.638 4.376 22.221 5.171-39.728 49.743-55.852 110.458-24.856 167.284.723 1.326 1.607 2.509 2.615 3.538-21.987 50.251 7.004 79.046 8.336 80.328 5.413 5.209 13.721 5.952 19.971 1.786l5.826-3.884c4.109 12.199 9.246 24.591 15.573 35.854-59.457-13.937-70.01-69.185-70.492-71.914zm373.277-164.548c-16.561-5.524-28.472 14.953-16.468 26.403.978 1.102 10.485 12.292 16.752 36.926 4.752 18.683 8.319 48.122 2.853 90.108-9.671-5.766-22.13.024-23.979 11.111-.033.2-3.751 20.518-18.817 39.77-13.006 16.618-30.337 27.407-51.759 32.297 6.344-11.263 11.516-23.711 15.658-36.007l5.825 3.884c6.25 4.167 14.559 3.423 19.971-1.786 1.333-1.282 30.323-30.077 8.336-80.328 1.007-1.029 1.891-2.211 2.614-3.538 30.971-56.778 14.919-117.487-24.856-167.283 10.611-.797 16.166.99 22.221-5.171 21.044 5.839 47.151 21.406 61.056 61.51-11.066-5.087-18.828-7.703-19.407-7.896z"/></svg>