<svg id="Layer_1" enable-background="new 0 0 512.004 512.004" height="512" viewBox="0 0 512.004 512.004" width="512" xmlns="http://www.w3.org/2000/svg"><circle cx="204.002" cy="220" r="20"/><path d="m216.002 320c0 16.748 19.065 32 40 32s40-15.252 40-32c0-3.952-1.36-17.212-18.862-21.933-10.365-2.796-31.902-2.798-42.275 0-17.503 4.721-18.863 17.981-18.863 21.933z"/><path d="m464.002 0c-55.309 0-131.519 63.973-156.174 72.174-25.803-10.707-77.564-10.825-103.652 0-24.724-8.223-100.797-72.174-156.174-72.174-30.046 0-48 20.338-48 40 0 18.095 0 51.777 9.689 71.155 17.513 35.03 54.897 96.845 94.311 96.845.987 0 1.957-.007 2.91-.021-10.81 23.704-34.91 78.004-34.91 104.021 0 37.699 58.797 146.427 87.125 165.313 25.42 16.947 85.462 32.322 92.862 34.176 2.145.558 4.129.514 4.013.514 6.764 0 73-18.773 96.875-34.69 28.315-18.878 87.125-127.629 87.125-165.313 0-26.017-24.1-80.317-34.91-104.021.953.014 1.923.021 2.91.021 39.461 0 76.87-61.959 94.311-96.845 9.689-19.378 9.689-53.06 9.689-71.155 0-19.662-17.954-40-48-40zm9.69 96.845c-22.194 44.386-51.047 79.155-65.69 79.155-11.341 0-16.935-1.089-19.33-1.773-9.299-12.064-28.67-5.45-28.67 9.773 0 1.653.325 5.688 3.074 9.941 17.946 36.275 44.926 98.021 44.926 118.059 0 26.27-53.302 125.637-72.875 138.687-16.566 11.044-59.554 23.676-79.125 28.795-19.571-5.119-62.559-17.751-79.125-28.795-19.425-12.951-72.875-112.17-72.875-138.687 0-20.021 26.981-81.778 44.927-118.062 2.748-4.252 3.073-8.285 3.073-9.938 0-15.23-19.377-21.831-28.67-9.773-2.396.685-7.989 1.773-19.33 1.773-14.643 0-43.496-34.769-65.689-79.155-6.311-12.622-6.311-43.612-6.313-56.768.137-1.603 3.414-8.077 16.002-8.077 11.656 0 25.801 4.585 40.572 11.323 32.503 25.329 52.226 71.515 47.906 88.797-2.52 10.082 5.108 19.884 15.534 19.884 7.169 0 13.693-4.854 15.511-12.124 4.762-19.049-2.583-41.514-9.326-56.605 24.226 15.015 42.41 26.31 56.959 19.036 16.415-8.208 65.152-8.269 81.689 0 13.372 6.686 28.708-1.525 56.959-19.035-6.743 15.091-14.088 37.555-9.326 56.604 2.145 8.582 10.836 13.782 19.402 11.642 8.573-2.143 13.785-10.83 11.643-19.403-4.32-17.282 15.403-63.468 47.906-88.797 14.77-6.737 28.915-11.322 40.571-11.322 12.588 0 15.865 6.474 16 8 0 13.233 0 44.223-6.31 56.845z"/><circle cx="308.002" cy="220" r="20"/><path d="m330.023 312.146c-8.761-1.117-16.759 5.083-17.893 13.833-1.705 13.164-10.148 42.021-24.128 42.021-14.574 0-20.594-3.483-21.456-4.035-6.01-5.27-15.081-5.27-21.088 0-.862.552-6.882 4.035-21.456 4.035-13.978 0-22.42-28.847-24.127-42.014-1.111-8.754-9.098-14.956-17.862-13.862-8.768 1.099-14.985 9.097-13.887 17.865.083.661 2.104 16.361 8.754 32.204 13.809 32.895 35.451 37.807 47.122 37.807 14.776 0 25.083-2.626 32-5.564 6.917 2.938 17.224 5.564 32 5.564 11.671 0 33.313-4.912 47.122-37.807 6.65-15.843 8.671-31.543 8.754-32.204 1.097-8.755-5.103-16.728-13.855-17.843z"/></svg>