<svg id="Layer_1" enable-background="new 0 0 512.258 512.258" height="512" viewBox="0 0 512.258 512.258" width="512" xmlns="http://www.w3.org/2000/svg"><circle cx="320.125" cy="264" r="16"/><circle cx="192.125" cy="264" r="16"/><path d="m290.535 356.219c-10.18-4.219-21.95-4.219-34.41-4.219s-24.23 0-34.41 4.219c-9.849 4.082-21.59 13.603-21.59 35.781 0 36.885 58.742 50.955 92.516 30.69 12.382-7.429 19.484-18.616 19.484-30.69 0-22.178-11.741-31.699-21.59-35.781zm-34.41 43.781c-14.374 0-22.955-5.844-23.999-8.216.026-3.919.777-5.284.864-5.429.125-.208.779-.492.977-.574 4.296-1.781 13.376-1.781 22.158-1.781 8.781 0 17.861 0 22.158 1.781.198.082.852.365.977.574.087.145.837 1.51.864 5.429-1.045 2.372-9.626 8.216-23.999 8.216z"/><path d="m259.262 264.311c-2.071-.414-4.204-.414-6.275 0-46.986 9.397-82.904 69.887-92.385 107.809-11.891 47.567 6.411 99.88 55.522 99.88h80c49.104 0 67.404-52.351 55.522-99.88-9.48-37.923-45.398-98.412-92.384-107.809zm55.168 167.416c-4.407 5.645-10.224 8.273-18.305 8.273h-80c-8.082 0-13.898-2.629-18.305-8.273-9.515-12.187-10.308-35.306-6.172-51.846 7.498-29.99 35.238-74.891 64.478-83.419 29.24 8.528 56.98 53.429 64.478 83.419 4.133 16.539 3.34 39.659-6.174 51.846z"/><path d="m424.125 0c-48.883 0-99.244 96.285-120.35 140.079-21.445-9.646-39.3-11.592-45.874-11.981-11.29-1.247-34.847 5.125-49.583 11.658-21.213-43.961-71.428-139.756-120.193-139.756-69.829 0-47.899 155.98-30.311 191.155 14.351 28.702 45.149 61.501 47.245 90.952-4.65 20.2-17.914 81.255-23.026 110.741-2.515 14.509-5.415 27.326 1.977 34.876 51.697 98.099 227.372 109.722 310.358 40.567 26.349-21.957 35.64-43.917 36.613-46.349 2.449-6.122 3.514-12.952-23.889-136.351-.263-30.316 32.453-64.653 47.345-94.436 17.657-35.318 39.462-191.155-30.312-191.155zm-337.689 176.845c-4.929-9.857-11.356-37.18-13.562-68.402-3.026-42.847 3.844-76.443 15.251-76.443 3.503 0 22.867 3.09 60.196 64.095 14.172 23.16 25.91 46.589 32.203 59.731-20.163 14.717-42.592 38.56-59.399 76.923-11.599-20.856-26.877-40.279-34.689-55.904zm312.944 237.017c-7.993 14.594-43.32 66.138-143.255 66.138-48.372 0-87.501-11.808-116.302-35.097-17.95-14.514-26.105-29.257-28.275-33.649.988-8.104 5.008-32.599 20.958-105.136 1.605-1.96 2.777-4.322 3.308-6.979.934-4.671 1.36-9.281 1.375-13.833 12.508-51.214 35.929-87.765 69.684-108.68 23.818-14.758 45.159-16.425 48.808-16.604 3.649.179 24.989 1.846 48.808 16.604 34.705 21.504 58.485 59.538 70.712 113.044.344 5.411 1.061 11.058 3.262 14.665 16.51 74.98 20.47 99.454 21.391 107.263-.213.743-.371 1.5-.474 2.264zm26.434-237.017c-7.881 15.762-23.602 35.732-35.189 56.801-16.667-38.469-38.982-62.467-59.131-77.337 6.234-13.044 18.088-36.767 32.435-60.214 37.329-61.005 56.693-64.095 60.196-64.095 1.445 0 3.864 0 7.042 5.141 16.495 26.691 7.345 114.309-5.353 139.704z"/></svg>