<svg id="Layer_1" enable-background="new 0 0 512.029 512.029" height="512" viewBox="0 0 512.029 512.029" width="512" xmlns="http://www.w3.org/2000/svg"><path d="m306.955 192.821c-8.383 2.794-12.914 11.855-10.119 20.238-.565-1.761 2.041 5.689-1.117 9.073-3.859 4.126-17.537 6.81-23.894-.601-.511-3.297-2.091-6.525-4.749-9.074 7.686-5.02 12.938-14.281 12.938-20.457 0-8.836-10.745-16-24-16s-24 7.164-24 16c0 6.176 5.252 15.437 12.938 20.457-2.669 2.561-4.24 5.792-4.749 9.074-6.349 7.403-20.066 4.695-23.894.601-3.128-3.351-.58-10.744-1.117-9.073 2.795-8.383-1.736-17.444-10.119-20.238-8.381-2.794-17.444 1.736-20.238 10.119-5.377 16.135-1.257 36.448 15.454 47.198 3.527 23.7 19.482 45.862 55.725 45.862s52.198-22.162 55.725-45.862c16.767-10.786 20.787-31.193 15.454-47.198-2.794-8.383-11.857-12.913-20.238-10.119zm-70.203 64.727c7.173-1.126 13.714-3.793 19.263-7.579 5.549 3.786 12.09 6.453 19.263 7.579-4.735 5.415-12.049 6.452-19.263 6.452s-14.528-1.038-19.263-6.452z"/><circle cx="320.015" cy="152" r="16"/><path d="m487.936 222.408c-.864-8.643-9.192-85.437-35.121-120.008-17.15-22.867-37.984-35.031-51.357-40.977.447-4.005.915-8.625 1.296-13.373 2.209-27.513-.147-35.928-5.269-41.833-3.427-3.951-8.337-6.217-13.47-6.217-18.531 0-32.595 30.528-66.058 17.145-30.393-12.158-50.552-8.597-61.942-3.67-11.39-4.927-31.549-8.488-61.942 3.67-33.396 13.356-47.614-17.145-66.058-17.145-5.134 0-10.043 2.266-13.47 6.217-5.121 5.904-7.478 14.32-5.269 41.833.381 4.749.849 9.368 1.296 13.373-13.373 5.946-34.207 18.11-51.357 40.977-25.929 34.571-34.257 111.365-35.121 120.008-.97 9.706 6.873 17.859 16.346 17.587-4.199 31.797-6.624 76.772 9.855 104.237 6.499 10.833 22.401 10.183 28.03-1.077.471-.941.93-1.827 1.375-2.659 15.197 43.152 47.998 117.234 89.159 137.815 10.122 5.061 22.199-1.723 23.104-13.033 39.645 60.592 86.193 64.053 128.102 0 .903 11.285 12.962 18.104 23.104 13.033 41.129-20.565 73.981-94.714 89.159-137.815.445.832.904 1.718 1.375 2.659 5.627 11.255 21.528 11.915 28.03 1.077 16.482-27.469 14.056-72.434 9.855-104.237 9.485.272 17.317-7.891 16.348-17.587zm-79.871 88.314c-2.889 14.792-28.92 86.252-59.355 121.972-2.417-12.354-5.309-21.131-5.517-21.753-4.696-14.09-24.489-14.692-30.03-.894-8.442 21.015-35.115 69.953-57.148 69.953-21.903 0-48.519-48.469-57.148-69.953-5.532-13.776-25.328-13.214-30.03.894-.208.622-3.1 9.398-5.517 21.753-10.832-12.713-22.218-31.21-33.363-54.425-15.258-31.781-24.888-61.892-25.992-67.547-1.131-14.301-17.955-19.851-33.577-8.838-3.399-30.17 2.735-72.26 9.15-98.003 2.705-10.818-6.185-20.851-17.032-19.809 4.181-20.194 11.351-48.867 24.206-64.918 19.783-24.704 45.019-31.587 45.28-31.655 8.052-1.906 13.031-9.567 11.863-17.759-1.342-9.407-2.358-19.254-2.92-27.517 14.815 8.266 36.982 15.85 65.022 4.633 17.86-7.144 28.849-6.453 34.537-4.965 4.296 1.124 5.052 2.296 6.388 3.231 1.418.991 3.178 1.761 3.284 1.761.598.266 1.374.433 1.424.482 5.225 1.206 7.409.596 11.656-1.103 3.61-1.829 2.91-2.964 8.289-4.371 5.688-1.488 16.677-2.179 34.537 4.965 28.04 11.217 50.207 3.633 65.022-4.633-.562 8.262-1.578 18.109-2.92 27.517-1.168 8.191 3.812 15.853 11.863 17.759.261.069 25.497 6.951 45.28 31.655 12.867 16.066 20.037 44.782 24.206 64.918-10.839-1.041-19.739 8.981-17.032 19.809 6.415 25.743 12.55 67.833 9.15 98.003-15.768-11.117-32.459-5.28-33.576 8.838z"/><circle cx="192.015" cy="152" r="16"/></svg>