<svg id="Layer_1" enable-background="new 0 0 512 512" height="512" viewBox="0 0 512 512" width="512" xmlns="http://www.w3.org/2000/svg"><circle cx="148" cy="300" r="20"/><circle cx="364" cy="300" r="20"/><path d="m448 40c-44.774 0-104.013 65.449-132.494 100.046-21.264-4.042-41.88-4.046-59.506-4.046s-38.242.004-59.506 4.046c-28.391-34.487-87.685-100.046-132.494-100.046-36.486 0-64 24.075-64 56 0 16.304 2.105 36.129 17.379 70.498 22.501 50.628 49.034 79.15 64.796 92.881-18.583 98.108 48.236 212.621 173.825 212.621 124.127 0 192.678-113.084 173.826-212.621 15.761-13.731 42.295-42.253 64.796-92.882 15.273-34.368 17.378-54.193 17.378-70.497 0-31.925-27.514-56-64-56zm-401.379 113.502c-13.491-30.358-14.621-45.599-14.621-57.502 0-13.907 13.458-24 32-24 28.602 0 80.557 56.499 99.203 78.179-31.687 13.928-55.36 39.078-70.517 74.903-12.967-13.698-30.496-36.549-46.065-71.58zm171.139 170.186c11.431 37.763 65.034 37.81 76.479 0 8.255 3.122 14.151 8.871 19.449 19.467 8.345 16.69 13.213 36.155 13.021 52.068-.131 10.801-2.642 24.854-13.865 30.466-.612.306-1.076.488-1.401.596-6.747-6.06-14.3-38.146-24.521-54.666-16.253-26.267-45.6-26.252-61.844 0-10.266 16.592-17.748 48.582-24.521 54.666-.326-.108-.789-.29-1.401-.596-11.223-5.611-13.734-19.665-13.865-30.466-.192-15.913 4.675-35.377 13.021-52.068 5.297-10.596 11.194-16.345 19.448-19.467zm38.24 60.325c7.43 4.317 15.442 37.715 24.83 54.078-15.989 2.5-33.089 2.591-49.66 0 9.314-16.234 17.45-49.803 24.83-54.078zm102.638 14.31c.879-22.998-5.88-48.585-16.327-69.479-20.339-40.678-52.151-40.698-90.458-40.856-38.467-.176-64.685 5.899-82.164 40.856-10.486 20.972-17.203 46.549-16.327 69.479-69.019-71.286-50.937-200.61 38.765-224.637 5.207-.6 11.61-5.686 63.873-5.686 52.135 0 58.746 5.098 63.877 5.688 89.652 24.016 107.805 153.323 38.761 224.635zm106.741-244.821c-15.569 35.031-33.098 57.882-46.064 71.58-15.158-35.825-38.831-60.975-70.517-74.903 18.645-21.68 70.6-78.179 99.202-78.179 18.542 0 32 10.093 32 24 0 11.903-1.13 27.144-14.621 57.502z"/></svg>