<svg id="Layer_1" enable-background="new 0 0 512 512" height="512" viewBox="0 0 512 512" width="512" xmlns="http://www.w3.org/2000/svg"><circle cx="199.998" cy="200" r="16"/><path d="m496.01 376c-.073-.003-7.563-.841-23.277-20.432 9.217-.152 19.104-1.316 28.325-4.39 13.477-4.492 14.836-23.12 2.096-29.49-10.464-5.232-22.764-16.331-34.088-28.299 15.348-.783 22.067-18.297 10.437-29.567-1.617-1.567-3.724-3.199-6.627-5.135-1.146-.775-11.978-9.355-39.24-71.15-9.993-22.651-18.713-44.604-23.276-56.349 21.417-28.591 13.542-61.55 13.162-63.069-2.213-8.847-31.894-68.119-79.524-68.119-33.708 0-50.398 25.477-63.447 54.535-14.412-3.57-18.942-6.044-22.979-6.448-6.011-.597-7.781 1.9-26.124 6.454-13.084-29.119-29.548-54.541-63.45-54.541-49.976 0-77.557 63.015-78.706 65.697-3.27 7.623-6.895 39.805 12.346 65.491-4.552 11.717-13.243 33.598-23.223 56.228-27.301 61.903-38.146 70.496-39.292 71.271-2.905 1.937-5.011 3.568-6.628 5.136-11.618 11.257-4.924 28.784 10.437 29.567-11.325 11.969-23.624 23.067-34.088 28.299-12.706 6.353-11.417 24.985 2.096 29.49 9.222 3.074 19.106 4.238 28.325 4.39-15.713 19.588-23.205 20.428-23.267 20.431-16.824 0-22.2 22.788-7.155 30.311 27.186 13.593 58.626 12.617 81.326 7.255 6.573 31.913 27.731 58.827 63.887 73.29 12.193 4.877 24.816-6.265 21.396-19 22.616 18.481 47.977 34.455 75.673 43.383 3.096.968 6.19 1.011 9.23.147 26.176-7.438 55.264-26.43 76.19-43.53-3.418 12.728 9.195 23.88 21.396 19 36.091-14.436 57.3-41.306 63.887-73.29 22.701 5.363 54.14 6.338 81.326-7.255 15.045-7.523 9.676-30.311-7.144-30.311zm-80.856 1.689c-10.617-5.308-23.155 2.419-23.155 14.311 0 12.886-3.247 33.513-21.004 49.866-1.236-9.741-4.101-15.854-4.685-17.021-4.987-9.974-18.423-11.911-26.023-3.745-.404.434-39.507 42.063-84.286 58.03-44.604-15.919-83.892-57.605-84.289-58.03-7.598-8.164-21.034-6.233-26.023 3.745-.583 1.167-3.449 7.281-4.685 17.021-17.757-16.354-21.004-36.98-21.004-49.866 0-11.871-12.52-19.629-23.155-14.311-7.806 3.904-23.714 7.875-40.843 7.461 10.887-11.707 22.726-28.679 29.89-41.211 6.95-12.163-4.095-26.83-17.745-23.468-1.938.478-4.875 1.073-8.44 1.612 21.218-21.025 38.512-44.861 41.313-48.783 8.515-11.921-2.213-28.081-16.466-24.925 15.464-28.439 32.927-69.952 44.843-100.282 28.409-1.667 34.451-51.454 44.763-69.322 16.099-6.721 11.207-30.771-6.162-30.771-24.775 0-29.04 38.466-41.012 63.633-10.294-14.142-8.433-30.28-7.661-34.728 5.996-13.065 25.508-44.905 48.673-44.905 16.889 0 25.584 16.287 33.712 34.432 10.67 23.82 15.871 26.537 54.288 14.389 38.564 12.194 43.626 9.411 54.288-14.389 8.128-18.145 16.823-34.432 33.712-34.432 23.157 0 42.374 31.213 48.677 44.924.715 4.23 2.587 20.546-7.669 34.702-11.963-25.157-16.238-63.626-41.008-63.626-17.384 0-22.251 24.054-6.159 30.771 10.401 18.024 16.295 67.652 44.762 69.322 11.882 30.243 29.357 71.802 44.843 100.282-14.255-3.149-24.985 12.999-16.466 24.925 2.801 3.921 20.096 27.759 41.314 48.784-3.557-.538-6.485-1.131-8.415-1.606-13.615-3.403-24.764 11.224-17.772 23.461 7.218 12.626 19.058 29.564 29.89 41.211-17.121.409-33.036-3.558-40.841-7.461z"/><path d="m297.886 257.214c-8.167 3.376-12.049 12.733-8.673 20.899 4.113 9.948 14.786 39.74 14.786 57.887 0 6.914-.003 26.167-32 30.925v-26.627c9.562-4.644 16-12.896 16-20.298 0-11.046-14.327-16-32-16-42.626 0-36.948 26.125-16 36.298v26.627c-31.997-4.759-32-24.011-32-30.925 0-18.075 10.675-47.919 14.789-57.894 3.372-8.165-.512-17.518-8.676-20.893-8.166-3.375-17.523.508-20.899 8.673-1.762 4.262-17.214 42.437-17.214 70.113 0 35.471 24.12 64 80 64 55.871 0 80-28.521 80-64 0-27.676-15.452-65.851-17.214-70.113-3.376-8.165-12.735-12.05-20.899-8.672z"/><circle cx="311.998" cy="200" r="16"/></svg>