<svg id="Layer_1" enable-background="new 0 0 512 512" height="512" viewBox="0 0 512 512" width="512" xmlns="http://www.w3.org/2000/svg"><path d="m228.584 136.899c-41.204-21.933-105.447 16.608-116.106 59.245-2.52 10.082 5.108 19.884 15.535 19.884 13.898-.001 16.198-14.792 15.461-11.934 6.391-23.082 39.501-43.268 60.933-41.444 12.746 1.12 15.952 9.134 14.28 6.25 4.901 7.353 14.837 9.338 22.188 4.438 7.353-4.902 9.34-14.836 4.438-22.188.195-.131-5.753-8.409-16.729-14.251z"/><path d="m283.416 136.899c-9.879 5.258-17.039 14.043-16.729 14.25-4.902 7.352-2.915 17.286 4.438 22.188 7.351 4.9 17.286 2.915 22.188-4.438.138.138-1.06 1.004.805-.787 17.594-15.864 59.529 4.42 72.291 30.677 1.646 3.412 2.199 5.62 2.069 5.116 2.134 8.536 10.796 13.794 19.403 11.642 8.573-2.144 13.785-10.83 11.642-19.403-10.697-42.787-74.842-81.21-116.107-59.245z"/><circle cx="328" cy="192.024" r="16"/><path d="m370.97 58.764 4.72-23.6c3.145-15.755-16.546-25.889-27.47-13.97-.78.851-21.639 29.815-35.78 36.96-17.098-13.487-38.833-4.592-56.44 8.81-17.626-13.417-39.353-22.288-56.44-8.81-13.998-7.072-35.15-36.27-35.78-36.96-10.89-11.881-30.62-1.838-27.47 13.97l4.72 23.6c-41.16 7.53-141.03 33.62-141.03 109.26 0 59.067 2.851 77.161 18.5 80.85 3.85.91 7.77.42 11.21-1.2 4.76 17.74 13.5 37.91 29.52 52.67-1.75 11.3-3.23 26.06-3.23 43.68 0 74.966 80.423 102.212 103.13 117.31 12.704 8.5 29.187-4.245 23.91-18.78-.198-.524-.57-1.553-.76-2.08 11.051 8.158 36.205 25.567 34.03 36.41-1.973 9.847 5.555 19.14 15.69 19.14 5.875 0 18.146-3.68 24-5.87 25.992-9.674 54.069-30.518 73.44-48.92-.15.44-.32.88-.48 1.32-5.254 14.472 11.085 27.336 23.92 18.78 22.663-15.109 103.12-42.199 103.12-117.31 0-17.62-1.48-32.38-3.23-43.68 16.02-14.76 24.76-34.93 29.52-52.67 3.44 1.62 7.36 2.11 11.21 1.2 13.15-3.1 15.1-17.72 16.15-25.57 1.56-11.63 2.35-30.23 2.35-55.28 0-75.64-99.87-101.73-141.03-109.26zm-16.62 300.94c-.694 1.146-1.252 2.426-1.53 3.26-5.852 17.604-60.556 78.955-107.38 96.94-15.061-36.968-85.44-61.384-85.44-91.88 0-2.88-.788-5.752-2.35-8.33-2.94-22.85 4.09-34.78 21.66-52.36 5.63-5.62 10.07-9.54 13.55-12.28 4.97 32.27 31.39 56.97 63.14 56.97s58.17-24.7 63.14-56.97c3.48 2.74 7.92 6.66 13.55 12.28 17.57 17.58 24.6 29.52 21.66 52.37zm-128.63-64.08c9.655 1.232 21.405-.193 30.28-5.37 8.843 5.159 20.577 6.608 30.28 5.37-9.83 32.414-50.709 32.484-60.56 0zm253.92-101.66c-9.846-5.43-22.482 1.073-23.55 12.4-.239 2.479-.266 24.687-8.98 46.17-3.856-69.5-23.819-135.841-90.51-155.84-7.578-2.266-15.564 1.34-18.96 8.25-4.392 9.016.388 19.596 9.76 22.41 63.3 18.98 68.6 97.02 68.6 168.67 0 4.71 2.07 9.12 5.57 12.13 1.33 9.46 2.43 21.57 2.43 35.87 0 34.07-25.46 54.6-50.75 69.43 19.076-56.513 22.987-87.813-17.94-128.74-15.1-15.1-26.48-23.22-36.9-26.31-18.955-5.629-28.092 5.62-38.41 5.62-5.45 0-7.54-1.14-8.07-1.51 0-4.199-4.268-10.03-4.87-10.03-.09-.09-.16-.17-.24-.25 7.82-5.49 13.18-15.53 13.18-20.21 0-6.63-10.75-8-24-8s-24 1.37-24 8c0 4.68 5.36 14.72 13.18 20.21-2.222 2.225-3.528 4.124-4.5 7.18-.386 1.352-.61 2.999-.61 3.1-.53.37-2.62 1.51-8.07 1.51-15.918 0-28.627-25.993-75.31 20.69-40.662 40.663-37.238 71.569-17.94 128.74-25.29-14.83-50.75-35.36-50.75-69.43 0-14.3 1.1-26.41 2.43-35.87 3.5-3.01 5.57-7.42 5.57-12.13 0-71.65 5.3-149.69 68.6-168.67 10.551-3.168 15.032-16.005 8.04-25.15-3.94-5.06-10.73-7.46-17.24-5.51-66.601 19.972-86.663 86.491-90.51 155.84-8.64-21.31-8.89-44.19-8.89-44.54 0-12.132-13.134-19.824-23.64-14.03-.59-18.793-.718-28.589.46-34.67 5.012-27.377 35.186-44.3 60.98-54.36 29.187-11.361 64.668-17.01 67.97-17.01 5.125-.564 9.779-3.602 12.33-8.34 8.91 6.95 16.93 10.59 24.55 11.22 7.77.64 15.03-1.94 20.48-7.28 3.29-.267 10.317 3.96 13.09 5.78 11.366 7.517 12.106 10.783 16.34 12.89 1.799 1.126 5.496 2.076 8.97 1.76 8.645-.865 8.449-4.937 19.32-12.63 3.233-2.351 12.084-8.128 16.02-7.8 5.46 5.34 12.71 7.92 20.48 7.28 7.62-.63 15.64-4.27 24.55-11.22 4.899 9.098 13.015 8.12 24.45 10.18 28.835 4.98 64.517 15.395 88.6 31.82 34.028 23.183 29.536 45.412 28.69 72.38z"/><circle cx="184" cy="192.024" r="16"/></svg>