<svg id="Layer_1" enable-background="new 0 0 512 512" height="512" viewBox="0 0 512 512" width="512" xmlns="http://www.w3.org/2000/svg"><path d="m208 112.104c-36.831 0-87.548 67.958-95.782 117.37-1.625 9.745 5.888 18.633 15.802 18.633 7.68 0 14.458-5.546 15.763-13.372 2.24-13.437 8.574-28.978 17.68-43.977 7.16 15.613 30.538 10.404 30.538-6.654 0-8.258-6.257-15.051-14.287-15.906 15.08-17.744 26.964-24.017 30.287-24.094 4.475 0 7.937 14.584 8 24.045.024 8.815 7.179 15.955 16 15.955 8.837 0 16-7.164 16-16-.001-27.325-12.554-56-40.001-56z"/><path d="m493.313 280.979c18.163-27.244 18.687-89.829 18.687-96.875 0-67.777-68.696-135.573-114.097-130.165-29.45-29.412-100.17-32.434-141.905-29.869-41.676-2.558-112.432.438-141.902 29.869-45.482-5.41-114.096 62.546-114.096 130.165 0 7.046.524 69.631 18.688 96.875 10.031 15.046-4.34 46.442-3.247 67.075 1.49 28.124 30.88 36.211 52.905 23.631 11.995 38.448 42.376 82.791 72.416 103.525 30.697 21.187 57.15 15.048 71.235-2.643 7.974 6.544 18.984 12.257 34.043 14.511 3.324 1.243 5.872 1.101 9.961.931 4.044.168 6.644.31 9.961-.931 15.059-2.255 26.069-7.967 34.043-14.511 14.074 17.677 40.512 23.847 71.235 2.643 30.04-20.734 60.421-65.076 72.416-103.524 21.929 12.528 51.408 4.638 52.906-23.631 1.087-20.579-13.28-52.03-3.249-67.076zm-131.213 151.163c-4.584 10.454-14.474 18.438-30.171 24.393-24.018-3.139-11.929-82.235-11.929-104.431 0-29.989-26.115-42.547-48-46.502v-10.91c11.569-6.561 31.671-15.87 38.051-34.638 7.666 10.535 13.871 24.016 18.564 40.445 11.609 40.629 47.939 98.689 33.485 131.643zm-106.1-165.157c-6.545-3.757-24-12.069-24-18.881 0-5.943 13.285-12.67 24.027-15.565 10.556 2.831 23.973 9.635 23.973 15.565 0 6.813-17.325 15.049-24 18.881zm-54.051-6.931c5.084 14.956 19.152 24.092 30.051 30.217v17.14c-19.77 5.408-40 18.3-40 44.693 0 21.556 12.132 101.284-11.929 104.432-49.759-18.876-36.012-57.824-11.956-115.465 5.995-14.364 11.658-27.932 15.27-40.571 4.694-16.429 10.898-29.911 18.564-40.446zm54.051 195.899c-19.281-1.262-27.582-10.756-30.831-16.386 5.051-30.694-1.169-70.929-1.169-87.463 0-2.693 0-8.297 12.533-12.642 11.625-4.031 25.129-4.605 38.407-.179 13.06 4.353 13.06 10.072 13.06 12.821 0 16.838-6.254 56.561-1.169 87.463-3.249 5.63-11.55 15.123-30.831 16.386zm210.688-192.724c-18.788 28.182-2.241 65.003-2.024 82.084-5.733.067-11.289-6.086-14.691-10.728 3.834-58.076-5.124-184.26-46.659-225.795-6.248-6.248-16.379-6.248-22.627 0-6.249 6.249-6.249 16.379 0 22.628 32.098 32.098 40.094 146.98 37.609 196.453-2.522 4.208-3.058 9.481-1.093 14.278-2.151 19.682-9.857 37.811-20.962 56.5-5.51-37.769-28.613-78.089-36.855-106.94-15.254-53.385-48.302-91.604-103.364-91.604-44.665 0-84.609 25.819-103.406 91.604-8.293 29.027-31.339 69.131-36.855 106.94-10.992-18.497-18.796-36.681-20.962-56.5 1.965-4.798 1.429-10.071-1.093-14.278-2.638-52.525 6.324-165.167 37.609-196.453 6.249-6.249 6.249-16.379 0-22.628-6.248-6.248-16.379-6.248-22.627 0-41.496 41.495-50.504 167.612-46.657 225.817-3.365 4.603-8.971 10.825-14.692 10.708.218-17.161 16.795-53.858-2.024-82.086-9.67-14.505-13.297-56.234-13.313-79.125 0-56.444 63.648-106.283 80.845-97.689 7.479 3.74 16.574 1.09 20.875-6.079 14.757-24.594 91.829-26.389 121.146-24.272.315.022 1.793.034 2.273 0 28.725-1.992 106.256-.534 121.141 24.272 4.302 7.169 13.397 9.817 20.875 6.079 17.249-8.63 80.843 41.365 80.843 97.683-.016 22.896-3.643 64.625-13.312 79.131z"/><path d="m304 112.104c-27.455 0-40 28.688-40 56 0 8.836 7.163 16.025 16 16.025s16-7.138 16-15.975c.062-9.46 3.525-24.051 7.993-24.051 3.33.077 15.214 6.35 30.294 24.094-8.031.855-14.287 7.648-14.287 15.906 0 17.051 23.376 22.271 30.538 6.654 9.106 14.999 15.44 30.54 17.68 43.977 1.453 8.716 9.697 14.606 18.412 13.152 8.717-1.453 14.605-9.696 13.152-18.413-8.395-50.373-59.559-117.369-95.782-117.369z"/></svg>