<svg id="Layer_1" enable-background="new 0 0 512 512" height="512" viewBox="0 0 512 512" width="512" xmlns="http://www.w3.org/2000/svg"><path d="m208 304.741c0 16.431 20.27 48 48 48s48-31.569 48-48c0-42.596-96-42.738-96 0zm48 16c-4.981 0-11.815-7.762-14.729-13.375 7.99-3.498 21.45-3.505 29.457 0-2.913 5.613-9.747 13.375-14.728 13.375z"/><circle cx="180" cy="204.741" r="20"/><path d="m512 152.741c0-16.95-17.763-38.206-52.796-63.176-34.518-24.603-110.245-67.887-144.139-42.79-33.658-7.863-84.07-7.958-118.13 0-33.894-25.1-109.632 18.194-144.14 42.79-35.032 24.97-52.795 46.226-52.795 63.176 0 38.011 9.638 88.265 36.687 115.314 4.731 4.731 4.066 19.993 3.627 30.091-.688 15.806-1.4 32.15 12.6 39.745 3.522 1.911 7.178 2.743 10.924 2.743 16.095-.001 40.425-18.663 51.481-30.358 2.626 27.524 4.681 57.139 4.681 82.465 0 29.159 5.901 49.972 18.041 63.63 16.719 18.809 44.673 20.344 61.789 10.273 33.441 8.151 78.841 8.164 112.34 0 17.019 10.014 45 8.614 61.789-10.273 12.14-13.658 18.041-34.471 18.041-63.63 0-25.326 2.055-54.941 4.682-82.466 11.051 11.691 35.386 30.358 51.481 30.358 3.745 0 7.402-.832 10.924-2.743 14-7.595 13.288-23.938 12.6-39.745-.439-10.099-1.104-25.36 3.627-30.091 27.048-27.048 36.686-77.302 36.686-115.313zm-256 240c22.623 0 23.227 20.1 33.92 45.637-20.911 3.115-46.358 3.2-67.84 0 10.773-25.73 11.345-45.637 33.92-45.637zm196.687-147.314c-15.56 15.559-13.431 39.45-12.784 58.754-55.917-35.228-23.903-65.887-23.903-127.44 0-65.14-54.523-93.15-56.845-94.311-7.902-3.949-17.555-.769-21.507 7.135-3.952 7.903-.789 17.494 7.115 21.446 1.602.824 39.236 20.711 39.236 65.73 0 9.631-1.073 18.896-2.473 27.915-2.77 2.397-4.74 5.747-5.341 9.652-.66 4.296-16.185 106.042-16.185 178.433 0 25.76-5.415 37.259-9.959 42.37-3.46 3.894-7.791 5.63-14.041 5.63-10.325 0-13.589-5.418-21.084-26.95-7.353-21.125-18.465-53.05-58.916-53.05s-51.563 31.925-58.916 53.05c-7.495 21.532-10.759 26.95-21.084 26.95-6.25 0-10.581-1.736-14.041-5.63-4.544-5.111-9.959-16.61-9.959-42.37 0-72.391-15.525-174.137-16.187-178.433-.601-3.905-2.571-7.254-5.341-9.652-1.399-9.019-2.473-18.284-2.473-27.915 0-44.928 37.483-64.825 39.227-65.725 7.852-3.974 11.024-13.55 7.084-21.43-3.951-7.903-13.56-11.105-21.466-7.156-2.321 1.161-56.844 29.171-56.844 94.311 0 61.919 32.144 92.129-23.902 127.44.655-19.565 2.8-43.171-12.784-58.754-18.76-18.76-27.216-59.673-27.313-92.125 1.533-4.888 15.523-22.151 48.983-44.278 54.557-36.079 93.752-41.963 97.296-36.051 3.859 6.431 11.668 9.321 18.779 6.947 27.705-9.234 89.435-9.482 117.881 0 7.112 2.371 14.922-.517 18.779-6.947 3.537-5.887 42.473-.204 97.296 36.051 33.46 22.127 47.45 39.391 48.983 44.278-.096 32.452-8.552 73.365-27.311 92.125z"/><circle cx="332" cy="204.741" r="20"/></svg>