<svg id="Layer_1" enable-background="new 0 0 512 512" height="512" viewBox="0 0 512 512" width="512" xmlns="http://www.w3.org/2000/svg"><circle cx="180" cy="139.983" r="20"/><path d="m475.314 268.669c-15.369-15.365-27.314-20.162-27.314-76.686 0-69.824-50.535-121.162-52.686-123.313-.089-.088-.185-.163-.275-.249-17.971-59.031-85.968-80.746-139.045-61.665-53.298-19.128-121.109 2.787-139.033 61.664-.09.086-.187.16-.275.249-2.151 2.152-52.686 53.489-52.686 123.314 0 56.473-11.963 61.34-27.314 76.687-17.735 17.735-36.686 53.138-36.686 99.313 0 47.883.001 89.283 24.308 102.036 4.758 6.015 11.803 52.753 61.634 32.819 18.911-7.563 26.094-4.111 36.966 1.113 7.445 3.578 16.711 8.031 29.091 8.031 35.679 0 72-24.933 72-64 0-21.052-8.239-42.797-13.604-62.378 29.946 8.354 61.25 8.357 91.208 0-10.121 36.94-29.84 80.899 11.985 111.317 13.16 9.571 30.076 15.061 46.411 15.061 12.38 0 21.646-4.453 29.091-8.031 10.873-5.224 18.055-8.679 36.966-1.113 49.608 19.846 56.41-26.215 61.634-32.819 24.309-12.753 24.31-54.154 24.31-102.036 0-46.175-18.951-81.578-36.686-99.314zm-258.867-236.692c15.827-.461 29.478 5.063 32.205 6.244 12.552 6.463 19.279-7.037 46.902-6.244 16.995.473 72.446 7.067 72.446 72.006 0 29.196 8.449 53.74 8.005 71.602-1.362 54.728-19.517 75.487-27.093 89.05-19.528 10.406-37.287 14.536-44.037 10.036-20.311-13.541-31.294-31.594-32.712-53.713 18.59-7.073 31.837-25.301 31.837-40.975 0-20.187-21.084-36-48-36s-48 15.813-48 36c0 15.674 13.247 33.902 31.837 40.975-1.418 22.119-12.401 40.172-32.711 53.712-6.752 4.498-24.51.371-44.038-10.035-7.562-13.539-25.73-34.314-27.093-89.05-.445-17.874 8.005-42.357 8.005-71.602 0-64.939 55.451-71.533 72.447-72.006zm9.009 268.92c12.738-8.591 22.959-18.726 30.544-30.173 7.585 11.447 17.806 21.582 30.544 30.173-19.463 14.546-40.998 15.015-61.088 0zm30.544-108.914c-7.841 0-14.42-7.729-15.775-11.36 6.309-6.127 25.166-6.2 31.55 0-1.355 3.63-7.934 11.36-15.775 11.36zm-104 288c-16.308 0-32.255-25.129-77.942-6.855-8.707 3.483-11.692 2.482-11.349 2.482-4.475-2.888-6.742-25.321-23.286-33.803-8.239-8.762-7.423-60.482-7.423-73.824 0-36.442 14.714-64.086 27.314-76.687 19.516-19.516 36.686-31.574 36.686-99.313 0-19.969 5.394-38.378 12.375-53.848-2.19 12.816-4.681 25.717-4.37 38.246.969 38.912 9.946 71.372 26.682 96.477 17.488 26.233 33.933 82.076 43.76 93.289 1.097 26.273 17.553 58.544 17.553 81.836 0 21.83-23.869 32-40 32zm104-120c-15.475 0-43.379-4.367-55.434-13.067-3.546-2.861-1.067 1.196-18.134-40.476 1.284.296 2.567.561 3.85.797 40.387 49.035 99.093 48.979 139.434 0 1.283-.237 2.566-.501 3.85-.797-6.568 16.036-12.401 31.432-15.862 38.356-.753 1.297-6.183 5.917-20.757 9.987-11.482 3.207-25.64 5.2-36.947 5.2zm216.578 81.824c-16.592 8.507-18.801 30.902-23.262 33.79-.025.008-2.923.911-11.374-2.47-45.769-18.309-61.631 6.855-77.942 6.855-16.131 0-40-10.17-40-32 0-23.337 16.453-55.478 17.553-81.836 1.894-2.161 3.5-4.493 4.758-7.009 8.373-16.75 24.207-64.088 39.002-86.28 16.736-25.104 25.713-57.564 26.682-96.477.313-12.565-2.174-25.368-4.42-38.541 7.005 15.487 12.425 33.98 12.425 54.142 0 67.9 17.338 79.966 36.686 99.313 12.6 12.603 27.314 40.246 27.314 76.689 0 13.425.755 65.127-7.422 73.824z"/><circle cx="332" cy="139.983" r="20"/></svg>