<svg id="Layer_1" enable-background="new 0 0 512 512" height="512" viewBox="0 0 512 512" width="512" xmlns="http://www.w3.org/2000/svg"><circle cx="176" cy="317.402" r="24"/><path d="m491.313 42.09c-39.222-39.225-130.512 87-170.318 114.518-28.957-9.572-101.046-9.568-129.991 0-39.605-27.381-131.236-153.604-170.317-114.518-10.297 10.296-20.687 30.156-20.687 51.313 0 51.438 5.761 148.299 46.005 180.494 26.104 20.884 46.588 29.485 59.377 33.029 4.241 33.376 17.437 59.923 27.305 69.791 6.219 6.22 20.94 28.162 28.135 49.746 8.592 25.775 20.547 50.94 63.179 50.94 14.025 0 24.481-4.56 32-11.258 7.519 6.698 17.975 11.258 32 11.258 42.631 0 54.587-25.165 63.179-50.94 7.195-21.584 21.916-43.526 28.135-49.746 9.868-9.867 23.064-36.415 27.305-69.791 12.789-3.544 33.272-12.145 59.377-33.029 40.212-32.171 46.003-128.917 46.003-180.494 0-21.157-10.39-41.017-20.687-51.313zm-250.979 355.845c1.989-3.138 8.286-8.532 15.666-8.532s13.677 5.395 15.666 8.532c-2.009 5.514-10.025 15.468-15.666 15.468s-13.657-9.954-15.666-15.468zm205.671-149.026c-16.365 13.092-29.542 20.173-38.835 24.007-5.219-40.258-33.361-75.864-34.676-77.508-5.521-6.899-15.589-8.02-22.489-2.499s-8.019 15.589-2.499 22.489c7.926 9.907 28.494 41.795 28.494 70.005 0 37.026-15.224 64.597-19.313 68.687-9.143 9.143-26.865 35.251-35.865 62.254-7.32 21.96-11.481 29.06-32.821 29.06-7.488 0-10.719-2.512-12.61-5.302 17.29-9.696 28.61-30.42 28.61-42.698 0-18.226-21.917-40-48-40-26.111 0-48 21.79-48 40 0 12.278 11.32 33.002 28.61 42.698-1.89 2.79-5.122 5.302-12.61 5.302-21.34 0-25.501-7.1-32.821-29.06-9-27.003-26.722-53.111-35.865-62.254-4.091-4.09-19.315-31.661-19.315-68.687 0-33.569 27.905-69.259 28.502-70.015 5.511-6.9 4.39-16.962-2.507-22.479-6.9-5.521-16.969-4.402-22.489 2.499-1.315 1.644-29.457 37.25-34.676 77.508-9.293-3.834-22.47-10.915-38.835-24.007-20.651-16.521-33.995-77.561-33.995-155.506 0-9.681 4.559-20.453 9.484-26.624 19.589 5.994 67.972 56 82.666 70.785 37.794 38.03 57.305 59.003 75.006 50.149 7.775-3.886 35.559-6.302 56.845-6.311 21.286.009 49.07 2.424 56.845 6.311 17.052 8.528 34.612-9.504 75.006-50.149 14.642-14.733 63.092-64.796 82.666-70.785 4.923 6.171 9.482 16.943 9.482 26.624 0 77.945-13.344 138.985-33.995 155.506z"/><circle cx="336" cy="317.402" r="24"/></svg>