<svg id="Layer_1" enable-background="new 0 0 512 512" height="512" viewBox="0 0 512 512" width="512" xmlns="http://www.w3.org/2000/svg"><circle cx="192" cy="207.87" r="16"/><path d="m460.199 125.39c-6.081-14.449-11.774-25.201-34.6-42.319-30.174-22.633-51.699-16.945-64.766-8.627-46.298-35.053-163.28-35.122-209.667-.001-13.066-8.318-34.59-14.006-64.766 8.627-22.825 17.118-28.518 27.87-34.599 42.319-17.175 40.806-51.801 52.233-51.801 98.481 0 20.663 19.212 43.037 50.854 77.43 8.144 8.852 34.337 36.53 37.5 47.217-2.728 12.695 10.125 23.262 22.105 17.976 9.8 22.126 29.516 64.901 52.481 72.557 22.555 7.518 87.511 24.08 90.237 24.568 1.684.304 3.071.304 4.436.167 2.597-.266 68.25-17.003 91.446-24.735 22.966-7.655 42.682-50.434 52.481-72.556 11.977 5.284 24.833-5.277 22.105-17.977 3.18-10.741 29.728-38.769 37.5-47.217 31.642-34.393 50.855-56.767 50.855-77.43 0-46.214-34.665-57.767-51.801-98.48zm-52.547 188.451c-.527-.287-1.074-.546-1.643-.777-10.15-28.708-19.183-72.832-14.228-102.563 5.493-32.96 11.174-67.041-16.627-80.941-7.904-3.951-17.516-.748-21.466 7.155-3.952 7.903-.748 17.515 7.155 21.466 1.157.579 2.905 1.453 3.399 8.564.649 9.347-1.534 23.542-4.026 38.494-6.421 38.524 5.443 94.596 19.892 129.706-3.195 7.962-7.75 18.82-13.021 29.925-18.106 38.143-27.456 43.458-28.259 43.857-19.871 6.609-68.713 19.074-82.83 22.643-14.116-3.568-62.954-16.031-82.829-22.643-.803-.399-10.153-5.715-28.259-43.857-5.271-11.104-9.827-21.963-13.022-29.925 14.364-34.902 26.344-90.999 19.892-129.706-2.492-14.952-4.675-29.147-4.026-38.494.494-7.111 2.243-7.985 3.399-8.564 7.904-3.951 11.107-13.563 7.156-21.466-3.953-7.904-13.563-11.106-21.466-7.155-27.801 13.9-22.121 47.981-16.627 80.941 4.952 29.713-4.061 73.808-14.227 102.561-.569.23-1.117.491-1.645.778-19.445-25.186-72.344-75.922-72.344-89.97 0-16.671 7.327-25.43 19.467-39.939 42.825-51.191 19.877-49.568 54.133-75.261 20.898-15.675 27.791-8.781 35.086-1.486 6.826 6.828 18.235 6.126 24.113-1.714 13.934-18.577 63.338-25.561 91.208-25.6 24.198.019 76.661 6.225 91.192 25.6 5.866 7.822 17.267 8.562 24.113 1.714 7.296-7.297 14.188-14.188 35.087 1.486 28.415 21.312 18.345 25.163 36.287 52.075 19.466 29.199 37.314 37.973 37.314 63.125 0 14.051-52.895 64.779-72.348 89.971z"/><circle cx="320" cy="207.87" r="16"/><path d="m339.146 304.141c-8.668-1.734-17.086 3.846-18.819 12.511-.058.272-5.96 27.219-24.327 27.219-13.9 0-20.882-3.542-24-5.914v-31.715c11.616-8.064 19.199-23.172 8-34.371-4.686-4.687-16-8-24 0-8-8-19.314-4.687-24 0-11.199 11.199-3.616 26.307 8 34.371v31.715c-3.118 2.372-10.099 5.914-24 5.914-18.249 0-24.193-26.6-24.325-27.21-1.766-8.624-10.175-14.209-18.813-12.479-8.665 1.733-14.285 10.162-12.552 18.827.261 1.302 2.752 13.065 9.97 25.095 10.744 17.906 26.981 27.768 45.72 27.768 18.846 0 31.6-4.78 40-10.166 8.4 5.385 21.154 10.166 40 10.166 18.739 0 34.976-9.861 45.72-27.768 7.218-12.029 9.709-23.793 9.97-25.095 1.732-8.666-3.878-17.136-12.544-18.868z"/></svg>