<svg id="Layer_1" enable-background="new 0 0 512 512" height="512" viewBox="0 0 512 512" width="512" xmlns="http://www.w3.org/2000/svg"><circle cx="180" cy="147.985" r="20"/><path d="m475.313 268.671c-18.299-18.299-24.772-36.881-19.791-56.806 17.369-69.475-55.326-138.666-60.493-143.474-17.984-59.007-85.982-80.717-139.033-61.636-53.188-19.106-121.075 2.742-139.025 61.637-5.167 4.808-77.862 73.999-60.493 143.474 4.981 19.925-1.492 38.507-19.791 56.806-16.345 16.344-36.687 36.685-36.687 83.313 0 34.641 5.418 78.477 30.844 93.231 3.951 10.777 1.892 38.669 21.521 49.783 19.983 11.314 39.517-5.96 48.177-3.308 4.416 1.342 12.104 20.293 35.459 20.293 32.856 0 88-47.07 88-88 0-15.957-4.775-27.705-9.31-37.251 27.838 6.88 54.759 6.886 82.62 0-4.535 9.546-9.31 21.294-9.31 37.251 0 40.836 55.127 88 88 88 23.435 0 30.996-18.937 35.459-20.293 8.67-2.656 28.199 14.616 48.177 3.308 19.624-11.112 17.572-39.014 21.521-49.783 25.424-14.755 30.842-58.591 30.842-93.231 0-46.628-20.342-66.969-36.687-83.314zm-258.867-236.692c15.835-.461 29.513 5.079 32.214 6.248 4.096 2.106 9.039 2.418 13.561.48 12.064-5.08 23.436-7.02 33.333-6.729 16.995.474 72.446 7.068 72.446 72.007 0 29.183 8.448 53.748 8.005 71.602-1.363 54.728-19.516 75.487-27.093 89.051-19.528 10.406-37.288 14.533-44.037 10.035-20.312-13.541-31.294-31.594-32.712-53.713 18.59-7.073 31.837-25.301 31.837-40.975 0-20.187-21.084-36-48-36s-48 15.813-48 36c0 15.674 13.247 33.902 31.837 40.975-1.418 22.119-12.401 40.172-32.711 53.712-6.751 4.5-24.51.373-44.038-10.034-7.561-13.539-25.73-34.315-27.093-89.05-.444-17.868 8.005-42.392 8.005-71.603 0-64.939 55.451-71.533 72.446-72.006zm9.01 268.92c12.738-8.591 22.959-18.726 30.544-30.173 7.585 11.447 17.806 21.582 30.544 30.173-19.464 14.546-40.997 15.015-61.088 0zm30.544-108.914c-7.841 0-14.42-7.729-15.774-11.36 6.307-6.127 25.166-6.2 31.549 0-1.355 3.63-7.934 11.36-15.775 11.36zm-85.917 268.302c-14.557 13.586-28.693 19.697-34.083 19.697-8.499 0-15.58-33.401-61.942-14.855-2.936 1.174-4.786 1.552-5.792 1.667-5.196-10.579-1.678-39.406-21.11-49.122-5.86-2.93-15.156-23.354-15.156-65.689 0-33.372 12.054-45.426 27.313-60.687 26.546-26.546 36.037-55.882 28.209-87.194-6.854-27.417 7.579-56.96 22.868-78.872-2.514 18.456-6.792 34.814-6.386 51.151.969 38.913 9.946 71.373 26.683 96.477 17.611 26.418 33.875 82.034 43.786 93.319 2.013 36.487 40.969 51.777-4.39 94.108zm30.491-113.364c-3.583-2.902-1.07 1.197-18.141-40.479 1.284.295 2.568.561 3.852.797 40.388 49.032 99.088 48.977 139.431 0 1.283-.237 2.567-.502 3.851-.797-6.58 16.065-12.404 31.439-15.861 38.355-.754 1.298-6.184 5.917-20.757 9.987-41.078 11.47-80.435.747-92.375-7.863zm264.271 70.751c-19.442 9.72-15.916 38.546-21.11 49.122-1.006-.115-2.856-.493-5.792-1.667-46.334-18.535-53.484 14.855-61.942 14.855-5.39 0-19.526-6.111-34.083-19.697-45.348-42.321-6.404-57.609-4.39-94.108 1.905-2.169 3.52-4.512 4.784-7.039 8.36-16.718 24.208-64.088 39.002-86.28 16.736-25.104 25.714-57.563 26.683-96.478.406-16.357-3.843-32.521-6.377-51.084 15.667 22.589 29.507 52.218 22.859 78.805-7.828 31.313 1.663 60.648 28.209 87.194 15.258 15.262 27.312 27.315 27.312 60.688 0 42.335-9.296 62.759-15.155 65.689z"/><circle cx="332" cy="147.985" r="20"/></svg>