<svg id="Layer_1" enable-background="new 0 0 512 512" height="512" viewBox="0 0 512 512" width="512" xmlns="http://www.w3.org/2000/svg"><path d="m512 192c0-107.683-82.783-107.485-111.479-125.542-52.339-32.935-84.755-42.458-144.521-42.458-59.765 0-92.181 9.523-144.521 42.458-28.784 18.111-111.479 17.899-111.479 125.542 0 77.753 50.647 132.475 48.779 147.066-5.418 16.463 5.008 29.433 20.492 29.432 18.672 0 45.657-17.565 57.452-32.715 4.886 7.49 11.432 22.193 16.182 50.411-.04 4.157.581 7.358 1.535 10.034 4.051 28.598 6.546 52.79 23.739 69.618 16.076 15.736 41.52 22.154 87.821 22.154 46.302 0 71.745-6.418 87.821-22.155 17.753-17.377 19.926-42.881 24.018-71.583 4.763-33.343 11.975-50.123 17.457-58.457 14.842 19.045 54.767 43.556 72.825 27.132 3.003-2.731 9.495-10.515 5.1-23.872-1.857-14.492 48.779-69.343 48.779-147.065zm-314.266 255.883c.759.07 1.516.117 2.266.117 12.818 0 38.009-.002 55.471-13.017 17.462 13.015 42.654 13.017 55.471 13.017 1.202 0 2.416-.095 3.641-.276-11.104 5.62-30.103 8.276-58.583 8.276-28.211 0-47.119-2.607-58.266-8.117zm58.266-79.902c-6.87-1.197-22.072-15.092-24.583-23.454 2.093-5.32 4.797-13.057 6.41-14.235 4.225-3.085 32.121-3.088 36.346 0 1.582 1.155 4.11 8.384 6.41 14.235-2.548 8.491-17.815 22.275-24.583 23.454zm175.748-35.456c-11.665-5.94-22.747-15.877-23.747-20.678.324-21.326 43.392-118.148-15.126-157.16-7.351-4.901-17.286-2.915-22.188 4.438-4.902 7.352-2.915 17.286 4.438 22.188 32.516 21.678 7.911 88.75 2.263 118.545-12.317 6.578-20.706 19.615-26.329 32.338-8.738-19.018-17.731-35.247-18.13-35.966-4.291-7.724-14.03-10.508-21.757-6.216-7.725 4.291-10.508 14.032-6.216 21.757 7.831 14.132 30.65 58.808 31.045 74.298-6.908 13.027-20.678 27.499-26.146 29.929-16.442-.055-32.012-1.435-37.944-9.597-.329-3.251-1.653-6.314-3.757-8.783 13.891-5.109 27.913-17.645 36.013-29.61 13.45-19.865 7.68-31.314 4.814-38.754-9.106-23.644-18.139-33.254-52.981-33.254-34.568 0-43.8 9.416-52.981 33.254-2.713 7.043-8.886 18.517 4.815 38.754 7.945 11.734 21.585 24.02 35.211 29.308-2.255 2.517-3.67 5.7-4.013 9.084-5.932 8.163-21.502 9.542-37.945 9.598-5.343-2.375-18.608-16.245-25.657-29.032-2.377-15.783 30.686-75.198 30.557-75.198 4.291-7.725 1.507-17.464-6.217-21.755-7.726-4.292-17.465-1.508-21.757 6.216-.391.704-9.03 16.294-17.597 34.809-5.578-12.269-13.815-24.777-25.805-31.181-5.678-29.949-30.234-96.879 2.263-118.544 7.353-4.902 9.339-14.836 4.438-22.188-4.902-7.353-14.837-9.34-22.188-4.438-58.543 39.029-15.451 135.787-15.126 157.16-.399 1.918-4.289 7.904-14.122 14.847-3.416 2.412-6.697 4.34-9.617 5.827-5.225-31.662-48.259-73.048-48.259-140.521 0-84.062 59.303-75.038 96.521-98.458 47.396-29.823 73.606-37.542 127.479-37.542s80.084 7.719 127.479 37.542c37.208 23.413 96.521 14.241 96.521 98.458 0 67.566-43.026 108.793-48.252 140.525z"/><circle cx="188" cy="212" r="20"/><circle cx="324" cy="212" r="20"/></svg>