<svg id="Layer_1" enable-background="new 0 0 512 512" height="512" viewBox="0 0 512 512" width="512" xmlns="http://www.w3.org/2000/svg"><circle cx="188" cy="252.005" r="20"/><path d="m512 208.005c0-51.44-54.203-85.315-103.967-98.163 8.472-4.919 10.554-16.217 4.461-23.832-23.438-29.296-76.49-34.348-119.548-32.957-14.814-14.657-35.394-31.155-57.067-36.57-12.642-3.158-23.573 9.363-18.735 21.464 2.661 6.653 4.145 11.598 4.97 15.202-45.602-1.878-98.908 3.246-122.606 32.859-6.098 7.622-4.008 18.918 4.459 23.834-49.667 12.823-103.967 46.668-103.967 98.163 0 26.419 11.804 57.631 8.258 77.139-2.313 12.726 10.73 22.853 22.514 17.336 1.773 17.754 9.317 43.199 26.805 41.447 12.109-1.197 15.7-12.237 28.237-44.761-1.21 11.551-3.869 23.063-7.996 34.304-6.978 19.001-8.83 37.059-5.507 53.674 2.501 12.503 17.974 17.203 27.003 8.175l9.777-9.777c5.648 20.316 17.561 45.113 42.678 60.184 8.711 5.229 20.159 1.099 23.41-8.66.302-.904.602-1.787.903-2.657 23.022 11.997 47.918 34.351 47.918 45.596 0 10.395 9.781 18.046 19.881 15.522 27.543-6.887 72.444-35.335 94.724-54.808 4.776 7.339 14.353 9.372 21.627 5.005 25.117-15.07 37.029-39.867 42.678-60.184l9.777 9.777c9.014 9.016 24.498 4.347 27.003-8.175 3.323-16.615 1.471-34.673-5.507-53.673-4.127-11.242-6.786-22.754-7.996-34.306 12.418 32.201 16.147 43.566 28.237 44.762 17.511 1.754 25.051-23.727 26.819-41.419 11.796 5.5 24.81-4.654 22.499-17.364-3.542-19.482 8.258-50.732 8.258-77.137zm-261.505 251.218c-11.293-21.897-39.743-43.215-61.197-53.973 10.703-16.745 19.305-14.602 22.821-13.723 15.479 3.868 31.094 2.906 43.882-6.394 9.709 7.06 24.063 11.347 43.88 6.394 3.778-.944 13.433-3.351 25.256 17.806-15.462 16.74-51.892 39.766-74.642 49.89zm5.505-116.427c-3.709-4.204-8-14.384-8-18.791 0-1.222 3.022-4 8-4s8 2.778 8 4c0 4.407-4.291 14.587-8 18.791zm218.895-98.511c-11.025-10.23-28.842-.907-26.735 13.973 7.948 55.637-15.491-90.253-104.159-90.253-8.837 0-16 7.163-16 16s7.163 16 16 16c24.832 0 42.479 19.891 55.339 41.018-.175.49-.33.991-.459 1.506-8.323 33.194-7.099 65.498 3.671 97.446-10.382-9.112-26.552-1.674-26.552 11.979-.002.376-.438 30.215-16.559 51.915-.876-3.277-2.749-6.145-5.296-8.235-17.305-32.154-40.455-40.546-62.025-35.151-4.117 1.03-7.449 1.293-10.153 1.073 9.297-11.945 14.034-28.38 14.034-37.551 0-19.851-17.944-36-40-36s-40 16.149-40 36c0 9.17 4.737 25.604 14.032 37.548-2.704.219-6.035-.042-10.151-1.071-11.71-2.926-34.259-3.973-53.681 21.923-5.173 6.897-9.424 14.771-12.899 22.464-16.861-21.77-17.299-52.523-17.301-52.864 0-13.704-16.206-21.109-26.551-12.028 10.54-31.267 11.994-64.162 4.173-95.442-.419-1.673-.596-2.49-.961-3.511 12.861-21.128 30.507-41.018 55.339-41.018 8.837 0 16-7.163 16-16s-7.163-16-16-16c-56.704 0-86.757 57.277-105.425 102.899.413-5.723 1.045-11.207 1.274-12.749 2.028-14.92-15.864-23.989-26.744-13.868-2.175-11.748-5.106-25.484-5.106-36.283 0-44.192 79.027-79.126 142.233-72.098 9.472 1.048 17.767-6.365 17.767-15.902 0-13.214-13.229-19.002-19.587-21.783-5.172-2.263-12-4.761-20.329-7.439 34.992-9.685 81.304-4.613 85.052-4.846 11.265-.712 17.41-12.296 17.946-23.697 18.943 14.695 19.556 21.049 28.329 22.772 7.557 1.482 42.782-3.355 76.307 5.835-20.851 6.716-39.718 13.234-39.718 29.158 0 9.527 8.287 16.951 17.767 15.902 63.62-7.073 142.233 28.216 142.233 72.098 0 10.5-2.628 22.898-5.105 36.28z"/><circle cx="324" cy="252.005" r="20"/></svg>