<svg id="Layer_1" enable-background="new 0 0 512 512" height="512" viewBox="0 0 512 512" width="512" xmlns="http://www.w3.org/2000/svg"><circle cx="159.226" cy="171.979" r="20"/><path d="m446.1 77.898c-29.998-17.8-59.565-28.525-60.809-28.973-7.323-2.639-15.034-.329-18.819 6.068-9.671-1.85-12.486-15.163-71.163-20.938-26.938-2.652-50.432-2.774-78.618 0-59.196 5.826-61.541 19.298-71.304 20.963-4.036-5.984-11.706-8.606-18.678-6.094-1.244.447-30.811 11.173-60.809 28.973-43.728 25.947-65.9 53.563-65.9 82.082 0 70.188 45.905 97.46 55.107 102.215 8.406 4.343 22.312 29.408 22.312 49.785 0 31.326 34.327 38.093 54.194 10.659.019 41.228.917 113.97 42.965 124.832 3.216.831 6.404 1.39 9.557 1.731 33.371 40.972 110.253 41.101 143.729 0 3.154-.342 6.342-.9 9.557-1.731 42.048-10.862 42.946-83.604 42.965-124.832 19.85 27.41 54.194 20.626 54.194-10.659 0-20.377 13.906-45.442 22.312-49.785 9.203-4.755 55.108-32.028 55.108-102.215 0-28.519-22.172-56.135-65.9-82.081zm-218.437 364.444c37.496-13.625 19.166-13.634 56.674 0-17.576 7.51-39.092 7.512-56.674 0zm-10.629-103.275c-5.91-18.32 6.046-26.98 18.143-38.616 4.365-.467 11.923 1.509 16.118 2.803 2.16.667 4.293.844 6.357.627 3.333-.351 12.985-4.079 19.171-3.43 11.302 10.872 24.188 19.876 18.143 38.616-6.746 20.912-10.519 20.912-15.74 20.912-7.131 0-15.83 2.627-23.226 8.749-7.396-6.122-16.095-8.749-23.226-8.749-5.221 0-8.994 0-15.74-20.912zm15.74 52.912s-.132.01-.373-.001c.125.001.248.001.373.001zm46.824-.001c-.24.011-.373.001-.373.001.126 0 .249 0 .373-.001zm162.606-158.214c-19.068 9.852-34.083 39.16-38.38 64.445-.698-3.704.506-10.89 5.801-38.406 14.921-77.541 23.886-138.12-6.925-154.039-7.85-4.056-17.502-.979-21.559 6.87-3.988 7.72-1.082 17.18 6.479 21.351 6.932 8.941 2.437 48.051.96 59.297-11.788 25.627-40.191 97.166-40.191 126.697 0 15.209 0 40.663-3.649 62.345-3.919 23.283-10.484 32.914-15.321 34.164-18.898 4.886-40.313-7.314-57.162-13.195.786-6.832 3.384-10.882 7.407-11.316 28.057-.211 38.576-20.822 45.758-43.086 11.894-36.871-13.048-59.393-23.699-69.01-6.15-5.554-14.836-16.828-45.722-8.588-14.559-3.884-31.953-5.304-42.465 5.559-7.259 7.503-40.32 30.611-26.956 72.039 7.182 22.264 17.701 42.875 45.758 43.086 4.023.434 6.622 4.484 7.407 11.316-16.831 5.875-38.257 18.073-57.162 13.195-4.837-1.25-11.402-10.881-15.321-34.164-3.649-21.682-3.649-47.136-3.649-62.345 0-29.539-28.974-102.446-40.191-126.696-1.476-11.241-5.974-50.356.96-59.298 7.561-4.171 10.467-13.631 6.479-21.351-4.056-7.85-13.709-10.924-21.559-6.87-30.811 15.919-21.847 76.498-6.925 154.039 5.066 26.329 6.51 34.64 5.801 38.406-4.297-25.285-19.312-54.594-38.38-64.445-6.314-3.261-37.798-22.144-37.798-73.785 0-29.72 59.972-62.632 96.435-77.439 13.926 8.669 30.081 4.024 43.738-5.385 13.159-9.065 56.94-13.162 83.827-13.176 26.887.014 70.668 4.111 83.826 13.176 13.563 9.344 29.748 14.094 43.738 5.385 36.47 14.81 96.436 47.721 96.436 77.439 0 51.641-31.484 70.524-37.796 73.785z"/><circle cx="352.774" cy="171.979" r="20"/></svg>