<svg id="Layer_1" enable-background="new 0 0 512.071 512.071" height="512" viewBox="0 0 512.071 512.071" width="512" xmlns="http://www.w3.org/2000/svg"><path d="m148.044 200.096c-15.537 0-28.016 12.586-28.016 28 0 15.464 12.536 28 28 28 15.537 0 28.016-12.586 28.016-28 0-15.463-12.536-28-28-28z"/><path d="m364.028 256.096c15.537 0 28.016-12.586 28.016-28 0-15.464-12.536-28-28-28-15.537 0-28.016 12.586-28.016 28 0 15.464 12.536 28 28 28z"/><path d="m510.813 217.942c-12.772-30.677-47.446-104.073-79.617-120.158-22.16-11.074-52.201-9.966-76.647-5.98-44.015-15.904-153.715-15.65-197.027 0-24.454-3.987-54.491-5.091-76.647 5.98-32.047 16.024-66.972 89.788-79.617 120.158-2.853 6.848-.845 15.092 5.894 19.467.09.063 16.875 11.967 16.875 26.687 0 23.904 18.314 57.697 47.666 63.207 10.621 26.889 29.497 34.88 33.156 45.853 3.459 10.377 14.42 26.147 69.437 43.222 52.912 16.421 83.726 15.719 81.75 15.719 22.53 0 59.428-8.791 81.75-15.719 55.017-17.074 65.978-32.845 69.437-43.222 3.658-10.972 22.533-18.96 33.156-45.853 29.351-5.509 47.666-39.303 47.666-63.207 0-14.721 16.785-26.624 16.875-26.687 6.757-4.387 8.736-12.643 5.893-19.467zm-454.769 46.154c0-20.026-11.552-35.439-20.59-44.434 9.396-20.831 39.393-83.08 59.743-93.254 6.498-3.247 15.605-5.038 26.522-5.351-29.359 39.775-59.137 110.285-57.605 164.539-4.934-6.901-8.07-15.694-8.07-21.5zm214.566-22.133c-7.34 8.123-21.779 8.155-29.147 0 7.455-2.497 21.683-2.5 29.147 0zm-83.332 144.915c-15.076-30.836-28.096-75.291-15.92-87.468 16.846-16.844 28.89-32.597 43.54-39.525 6.085 8.383 15.25 14.553 25.13 17.706v20.563c-19.419 5.135-35.84 20.202-45.337 36.981-1.742 2.561-2.774 5.643-2.774 8.974 0 16.788 22.802 22.252 30.325 7.094.122.061.109.025.05.14.004-.008.022-.042.052-.097.109.056 11.88-23.144 33.692-23.15 21.472.006 33.607 23.014 33.727 23.247l-.046-.092.01-.005c.03.055.048.089.052.097-.059-.116-.072-.079.05-.14 7.522 15.157 30.325 9.696 30.325-7.094 0-3.331-1.032-6.413-2.774-8.974-9.582-16.929-25.99-31.865-45.337-36.981v-20.563c9.875-3.152 19.042-9.32 25.13-17.706 14.647 6.927 26.688 22.674 43.541 39.525 12.176 12.177-.844 56.631-15.92 87.468-28.98 8.676-56.476 13.217-68.758 13.219-12.282-.003-39.778-4.543-68.758-13.219zm260.681-101.282c1.545-54.699-28.696-125.374-57.604-164.538 10.917.313 20.024 2.104 26.522 5.351 20.35 10.174 50.347 72.423 59.743 93.254-9.038 8.994-20.59 24.407-20.59 44.434-.002 5.805-3.137 14.598-8.071 21.499zm-102.604-163.089c.772.405 1.572.759 2.405 1.035 19.774 9.29 68.269 95.318 68.269 156.555 0 58.498-28.256 50.981-39.063 82.597-.905 1.4-4.076 4.226-10.771 7.94 10.832-30.231 19.867-71.146-2.836-93.85-19.422-19.425-35.915-41.769-62.608-49.73-11.776-21.592-48.09-18.956-44.714-18.956-16.925 0-36.571 4.025-44.714 18.956-26.687 7.96-43.186 30.306-62.608 49.73-22.701 22.701-13.672 63.61-2.836 93.85-6.696-3.714-9.866-6.54-10.772-7.94-10.795-31.583-39.063-24.137-39.063-82.597 0-61.64 48.738-147.379 68.268-156.555.833-.275 1.633-.63 2.405-1.035 35.401-14.047 143.674-13.874 178.638 0z"/></svg>