<svg id="Layer_1" enable-background="new 0 0 512.134 512.134" height="512" viewBox="0 0 512.134 512.134" width="512" xmlns="http://www.w3.org/2000/svg"><circle cx="320.063" cy="204.647" r="16"/><path d="m483.784 130.781c-18.427-16.099-41.338-23.75-71.556-36.298-34.782-14.448-68.6-29.695-88.995-13.88-18.146-5.273-48.256-5.094-67.17-3.986-18.918-1.108-49.025-1.286-67.17 3.986-21.364-16.567-58.383 1.164-88.995 13.88-28.707 11.921-52.882 19.983-71.556 36.298-28.002 24.463-31.27 55.983-26.561 93.373 5.522 43.841 24.234 84.675 54.446 118.87 20.215 22.881 38.378 34.57 39.246 35.123 5.136 3.268 11.663 3.317 16.822.221 15.787-9.471 27.686-31.67 33.35-49.542 15.531 21.527 15.811 22.265 20.899 50.24 5.192 28.557 11.119 59.189 41.459 59.184 15.866 0 35.254-8.985 48.061-18.188 12.74 9.155 32.143 18.188 48.061 18.188 30.119.006 36.19-30.2 41.459-59.184 5.107-28.084 5.44-28.813 20.899-50.24 7.246 22.865 29.967 62.178 50.171 49.321.869-.553 19.031-12.242 39.246-35.123 30.202-34.184 48.923-75.015 54.446-118.87 4.666-37.051 1.64-68.735-26.562-93.373zm-251.566 189.476c11.771-4.776 36.306-4.619 47.689 0-1.525 17.18-13.018 21.089-23.845 26.502-11.484-5.742-22.34-9.559-23.844-26.502zm88.666 23.331c-6.588 19.763-9.219 54.683-16.009 62.65-7.964.769-25.453-8-32.813-14.229v-17.474l7.155-3.578c20.525-10.262 32.845-29.135 32.845-54.311 0-24.764-31.235-32-56-32-24.766 0-56 7.236-56 32 0 24.391 11.627 43.702 32.845 54.311l7.155 3.578v17.474c-7.488 6.336-25.072 14.976-32.813 14.229-6.784-7.962-9.447-42.966-16.009-62.65-7.266-21.801-27.865-40.133-36.012-60.254-3.93-9.702-.765-4.993-3.232-32.134-1.418-15.593-1.756-31.787-.117-47.235 4.054-38.178 17.993-50.668 18.181-50.83-.002.002-.003.002-.005.004.001-.001.004-.004.005-.004-.254.217-.398.312-.398.313-.287-.385 6.248-3.938 6.248-12.829 0-14.654-18.05-21.511-27.833-10.743-40.74 38.024-26.418 127.927-27.792 136.135-.586 3.466.105 10.202.755 13.958-.55 21.539-4.981 46.645-18.229 63.756-41.168-33.854-68.449-83.779-70.606-139.604-.222-5.903-.285-11.621.459-17.371 4.699-36.337 38.218-45.58 75.935-61.231 11.487-4.766 48.988-21.311 60.374-19.544 3.512 9.952 15.51 13.813 24.171 7.838 2.051-1.416 1.36-1.52 4.133-2.431 16.372-5.37 57.548-2.661 59.602-2.765 13.776-.731 44.842-1.539 57.965 2.765 2.74.9 2.172 1.077 4.133 2.431 8.672 5.983 20.664 2.098 24.171-7.838 12.159-1.887 49.248 15.201 75.447 25.721 39.049 15.739 62.221 27.103 61.428 68.753-1.135 57.73-28.874 108.87-70.712 143.276-13.198-17.05-17.676-42.103-18.229-63.756.683-3.946 1.21-9.797.885-12.954-.587-5.718-1.154 2.315.375-17.017 3.025-38.252-.388-94.073-28.297-120.122-9.778-10.762-27.833-3.921-27.833 10.743 0 5.197 2.489 9.801 6.327 12.723-.091.122-.021.184-.477-.207.001 0 .004.003.005.004-5.938-5.278 25.696 14.061 18.059 98.06-2.498 27.476.747 22.312-3.232 32.134-8.117 20.053-28.761 38.505-36.01 60.255z"/><circle cx="192.063" cy="204.647" r="16"/></svg>