<svg id="Layer_1" enable-background="new 0 0 511.985 511.985" height="512" viewBox="0 0 511.985 511.985" width="512" xmlns="http://www.w3.org/2000/svg"><circle cx="175.986" cy="232" r="16"/><path d="m438.143 117.401c-10.819-27.424-14.644-43.582-28.697-73.251-14.855-31.359-26.866-44.15-41.46-44.15-37.189 0-56.311 50.284-62.08 75.579-10.927.186-31.167-1.362-47.937-3.456-5.088-.637-29.199 3.846-51.903 3.457-5.769-25.295-24.891-75.58-62.08-75.58-14.594 0-26.605 12.791-41.46 44.15-10.822 22.848-19.36 47.713-21.719 54.79-8.599 25.797-34.248 75.377-24 106.119 8.622 25.872 23.179 33.305 23.179 50.94 0 1.846.328 3.61.903 5.26-8.413 89.683 49.221 159.299 54.764 191.384-.948 7.947-.445 13.577 2.022 18.511 9.996 19.992 23.889 29.302 49.412 24.203 38.886 22.058 98.509 22.282 137.795 0 25.318 5.06 39.323-4.02 49.415-24.202 2.467-4.934 2.971-10.564 2.022-18.511 5.509-31.886 63.155-101.935 54.764-191.384.575-1.65.903-3.415.903-5.26 0-17.334 14.69-25.469 23.179-50.94 8.042-24.125-5.856-59.353-17.022-87.659zm-270.521 341.976c.446-2.074.422-3.805.266-6.256 3.675-21.397 16.098-60.423 16.098-93.121 0-19.258 4.203-39.761 11.266-53.941.285 27.724 24.841 41.241 43.891 53.942-4.303 37.76-17.808 89.427-37.099 97.144-20.657 8.263-27.984 7.882-30.177 7.333-.648-.163-1.676-.428-4.245-5.101zm88.364-171.377c10.996.072 23.95 3.677 25.689 7.155 8.466 16.935-1.128 21.241-25.689 37.616-24.629-16.42-34.132-20.726-25.689-37.616 1.739-3.478 14.693-7.083 25.689-7.155zm-26.895 189.198c10.714-9.71 19.707-24.866 26.896-45.335 7.189 20.47 16.181 35.625 26.895 45.335-17.296 3.733-36.46 3.74-53.791 0zm111.014-12.72c-2.19.548-9.519.931-30.177-7.333-19.292-7.717-32.798-59.389-37.099-97.144 18.739-12.494 43.604-25.986 43.891-53.942 7.063 14.181 11.266 34.684 11.266 53.941 0 36.718 16 82.752 16 96 0 1.16.13 2.288.364 3.377-2.569 4.673-3.597 4.938-4.245 5.101zm32.988-353.654c-5.067-7.239-15.044-8.999-22.283-3.932s-8.999 15.044-3.932 22.283c.53.759 53.107 76.725 53.107 150.824 0 45.02-19.529 85.267-35.369 117.684-2.604-12.938-4.631-26.178-4.631-37.684 0-45.494-18.988-104-64-104-26.278 0-58.143 0-80 0-44.925 0-64 58.295-64 104 0 11.506-2.027 24.746-4.631 37.684-15.84-32.417-35.369-72.664-35.369-117.684 0-73.61 52.237-149.571 53.107-150.824 5.067-7.239 3.308-17.216-3.932-22.283-7.237-5.065-17.215-3.308-22.283 3.932-1.678 2.397-29.684 42.885-46.461 95.701-8.432-14.841-10.733-21.84 11.179-77.379 8.263-20.947 27.205-79.751 42.898-96.724 13.977 4.542 28.052 41.678 29.495 55.956.107 4.887 2.294 9.556 6.036 12.859 6.075 5.364 14.836 7.693 45.867 5.539 51.142-3.547 5.044-3.547 56.186 0 31.029 2.155 39.791-.177 45.867-5.539 3.742-3.304 5.929-7.973 6.036-12.859 1.437-14.223 15.487-51.404 29.495-55.956 15.707 16.986 34.656 75.831 42.898 96.724 21.909 55.533 19.579 62.595 11.179 77.379-16.775-52.816-44.78-93.303-46.459-95.701z"/><circle cx="335.986" cy="232" r="16"/></svg>