<svg id="Layer_1" enable-background="new 0 0 511.906 511.906" height="512" viewBox="0 0 511.906 511.906" width="512" xmlns="http://www.w3.org/2000/svg"><circle cx="199.953" cy="176" r="16"/><path d="m389.072 126.684c-1.837-8.331.46-36.187 1.466-48.379 1.363-16.509 3.301-38.177-2.604-53.923-5.896-15.723-18.674-24.382-35.981-24.382-26.866 0-62.431 42.078-79.831 64-11.31 0-21.028 0-32.338 0-17.312-21.811-52.933-64-79.831-64-17.307 0-30.085 8.659-35.981 24.382-5.903 15.741-3.962 37.461-2.604 53.923 1.006 12.192 3.303 40.048 1.466 48.379-11.839 14.019-74.881 108.063-74.881 145.316 0 34.203 8.461 59.979 8.821 61.06 3.24 9.719 14.574 13.919 23.312 8.762 6.122 33.591 22.878 67.98 25.556 73.334 2.3 4.601 6.671 7.814 11.748 8.638 8.491 1.377 13.469-3.413 18.438-9.63 10.119 15.935 40.276 63.801 56.969 72.147 6.889 3.447 15.243 1.482 19.886-4.618 10.33 12.115 33.113 34.464 48.256 29.508 14.785-5.027 28.078-17.539 38.283-29.508 4.648 6.107 13.003 8.06 19.886 4.618 16.689-8.344 46.829-56.179 56.969-72.147 5.091 6.369 9.908 11.014 18.438 9.63 5.077-.823 9.448-4.037 11.748-8.638 2.678-5.355 19.446-39.771 25.563-73.373 8.728 5.15 20.077.964 23.306-8.723.36-1.08 8.821-26.856 8.821-61.06 0-36.882-62.617-130.794-74.881-145.316zm41.814 164.958c-20.527-10.654-34.653 3.798-30.111 17.418 3.895 11.686-1.098 37.927-11.712 65.768-6.638-9.491-20.877-8.981-26.829.94-14.016 23.354-31.149 49.407-43.552 65.92-6.364-12.94-22.243-12.264-28.448-1.919-6.032 10.054-21.231 30.712-34.266 38.618-11.991-7.33-26.665-25.956-34.295-38.618-6.234-10.397-22.104-10.981-28.448 1.919-12.402-16.513-29.536-42.565-43.552-65.92-5.963-9.938-20.195-10.407-26.829-.938-10.614-27.841-15.606-54.084-11.712-65.77 4.547-13.635-9.595-28.066-30.111-17.418-.643-5.998-1.067-12.618-1.067-19.642 0-23.64 57.545-114.506 67.506-124.888 1.587-1.639 2.872-3.492 3.897-5.541 4.972-5.913 22.124-16.125 38.539-22.716 8.204-3.281 12.195-12.593 8.913-20.798-3.281-8.204-12.594-12.195-20.798-8.913-4.501 1.8-13.423 5.593-22.99 10.855-1.48-26.621-5.456-52.73-1.087-64.381.896-2.392 1.351-3.601 5.919-3.618.639.102 10.217 2.026 34.109 27.673 13.864 14.882 25.081 29.781 25.19 29.927 3.021 4.029 7.764 6.4 12.8 6.4h48c5.033 0 9.775-2.372 12.798-6.396.111-.149 11.328-15.049 25.192-29.931 23.894-25.647 33.472-27.571 34.111-27.673 4.568.018 5.022 1.227 5.919 3.618 4.553 12.139.181 41.572-1.087 64.381-9.567-5.262-18.489-9.055-22.99-10.855-8.204-3.28-17.517.707-20.798 8.913-3.282 8.205.709 17.517 8.913 20.798 16.4 6.56 33.551 16.771 38.536 22.708 1.032 2.064 2.307 3.898 3.91 5.559 9.763 9.99 67.497 101.142 67.497 124.877 0 7.024-.425 13.645-1.067 19.643z"/><path d="m341.571 209.019c-8.273-3.099-17.495 1.089-20.6 9.363-33.038 88.102-31.484 100.54-34.669 101.872-2.716 1.135-8.616-.076-14.35-2.276 0-6.049.189-7.802-.716-10.722 13.993-9.054 23.725-30.293 10.197-41.237-9.275-7.504-19.427-2.019-25.481-2.019-6.04 0-16.213-5.48-25.481 2.019-13.394 10.837-3.911 32.108 10.197 41.237-.903 2.911-.716 4.624-.716 10.692-5.498 2.093-11.523 3.475-14.342 2.309-3.235-1.34-1.158-12.491-34.677-101.875-3.104-8.274-12.325-12.464-20.6-9.363-8.273 3.103-12.466 12.325-9.363 20.6.237.631 23.773 63.52 31.459 94.263 6.307 25.23 30.035 37.249 63.522 22.105 29.598 13.386 56.35 6.585 63.522-22.105 7.686-30.743 31.222-93.632 31.459-94.263 3.105-8.275-1.087-17.498-9.361-20.6z"/><circle cx="311.953" cy="176" r="16"/></svg>