<svg id="Layer_1" enable-background="new 0 0 512.256 512.256" height="512" viewBox="0 0 512.256 512.256" width="512" xmlns="http://www.w3.org/2000/svg"><circle cx="192.128" cy="136.255" r="16"/><path d="m487.226 169.1c-18.823-37.644-42.56-26.882-89.785-97.72-21.811-32.716-53.331-55.391-91.153-65.575-24.559-6.611-44.508-5.961-50.161-5.594-5.658-.367-25.603-1.016-50.158 5.594-37.822 10.184-69.342 32.858-91.153 65.575-47.088 70.632-71.062 60.277-89.785 97.72-11.776 23.552 1.281 58.89 15.104 96.302 7.659 20.729 18.148 49.118 15.685 58.973-5.27 21.081 6.611 32.281 19.951 32.281 10.919-.001 22.887-7.167 31.914-13.247 13.888 44.176 34.588 87.192 60.212 102.566 36.948 22.169 67.441 59.905 67.738 60.275 4.898 6.122 13.59 7.853 20.499 3.847 6.893 3.991 15.577 2.277 20.482-3.839.304-.378 30.797-38.114 67.745-60.283 25.625-15.375 46.324-58.39 60.212-102.566 9.041 6.09 21.001 13.247 31.914 13.247 13.432 0 25.21-11.246 19.951-32.281-2.464-9.854 8.025-38.244 15.685-58.973 13.823-37.412 26.879-72.75 15.103-96.302zm-30.019 39.554c-8.322 34.533-31.54 79.479-32.996 109.385-3.405-2.21-7.066-4.791-10.549-7.47 6.799-28.262 10.467-54.186 10.467-70.313 0-51.836-25.207-94.443-26.28-96.231-4.54-7.567-14.339-10.016-21.915-5.491-7.576 4.524-10.05 14.342-5.542 21.927.217.365 21.737 37.064 21.737 79.796 0 48.869-33.017 159.551-64.232 178.28-33.521 20.112-61.249 50.182-71.768 62.364-10.519-12.183-38.247-42.252-71.768-62.364-31.215-18.729-64.232-129.411-64.232-178.28 0-42.588 21.375-79.184 21.734-79.791 4.527-7.574 2.067-17.387-5.502-21.929-7.578-4.547-17.405-2.089-21.952 5.488-1.073 1.788-26.28 44.396-26.28 96.231 0 16.127 3.667 42.051 10.467 70.313-3.484 2.679-7.145 5.261-10.549 7.47-1.453-29.847-24.704-74.976-32.996-109.385-4.115-17.076-2.348-23.342-1.397-25.243 12.999-25.997 39.38-21.668 87.789-94.28 17.458-26.188 41.582-43.72 71.701-52.111 23.93-6.667 41.078-4.622 44.038-4.817 40.534-2.627 86.185 15.752 113.636 56.928 48.499 72.747 74.772 68.247 87.789 94.28.948 1.901 2.715 8.167-1.4 25.243z"/><path d="m295.943 159.032c-6.67-5.945-18.603-10.776-39.815-10.776s-33.145 4.832-39.815 10.776c-38.477 12.072-66.382 38.323-71.876 79.087-3.86 28.64-10.21 98.257 14.12 126.086 12.677 14.5 31.785 14.789 43.79 6.931 31.578 17.506 76.03 17.481 107.561 0 12.033 7.877 31.062 7.627 43.79-6.931 24.33-27.829 17.98-97.446 14.12-126.086-5.493-40.768-33.402-67.016-71.875-79.087zm-77.031 184.698c4.083-16.043 5.002-29.175 14.954-32.142 9.441-2.815 16.718-8.174 22.262-14.8 5.544 6.626 12.821 11.985 22.262 14.8 9.91 2.955 10.799 15.817 14.954 32.142-21.513 11.348-52.878 11.369-74.432 0zm108.464.485c-6.766-8.722-3.243-52.382-39.843-63.293-14.522-4.33-15.403-32.448-15.405-32.667 0-8.837-7.164-16-16-16s-16 7.163-16 16c0 .28-.905 28.344-15.405 32.667-36.649 10.926-33.034 54.515-39.843 63.293-6.541.808-18.016-32.914-8.729-101.823 3.514-26.07 20.629-40.453 38.131-48.39 18.708 24.272 64.97 24.293 83.694 0 17.501 7.938 34.617 22.32 38.131 48.39 9.085 67.426-1.86 102.672-8.731 101.823z"/><circle cx="320.128" cy="136.255" r="16"/></svg>