<svg id="Layer_1" enable-background="new 0 0 512.001 512.001" height="512" viewBox="0 0 512.001 512.001" width="512" xmlns="http://www.w3.org/2000/svg"><circle cx="200.001" cy="192" r="16"/><path d="m447.523 148.119c-7.063-28.252-35.088-41.864-53.168-47.828 9.61-47.822 12.454-76.601.332-91.416-4.683-5.724-11.319-8.875-18.686-8.875-31.103 0-69.07 28.614-79.179 58.94-1.957 5.87-22.655 7.806-38.22 5.272-1.733-.283-3.795-.225-5.202 0-15.569 2.531-36.263.599-38.221-5.272-10.112-30.336-48.084-58.94-79.178-58.94-7.367 0-14.003 3.151-18.686 8.875-12.123 14.815-9.278 43.594.332 91.416-18.08 5.964-46.105 19.576-53.168 47.828-3.309 13.237 10.468 24.289 22.674 18.194 3.391-1.694 7.084-2.993 11.068-3.896-19.676 53.695-25.532 98.597-17.909 136.72 1.931 9.655 12.016 15.229 21.156 11.9 3.366 58.184 25.359 111.543 73.943 142.461 4.724 3.006 10.608 3.29 15.535.916 19.665 26.391 47.512 50.115 57.327 55.591 4.885 2.684 10.671 2.637 15.461-.003 10.334-5.678 38.211-29.946 57.322-55.588 4.927 2.374 10.811 2.09 15.535-.916 48.587-30.919 70.577-84.279 73.943-142.46 9.162 3.333 19.229-2.267 21.156-11.901 7.623-38.123 1.768-83.024-17.909-136.719 3.983.901 7.678 2.2 11.068 3.895 12.211 6.095 25.982-4.96 22.674-18.194zm-71.248 110.829c.189 1.012 15.719 87.81-29.838 143.558-6.064-27.666-34.436-20.723-34.436-2.506 0 19.376-31.098 56.234-56 76.147-24.902-19.913-56-56.771-56-76.147 0-18.483-28.488-24.945-34.457 2.6-16.16-19.652-26.405-45.348-30.563-76.788-4.784-36.173.694-66.583.746-66.863 2.418-12.896-11.459-24.67-25.292-15.878 3.191-26.708 11.978-57.041 26.46-91.56 3.468-8.265-.533-17.696-8.754-21.023 4.263-1.384 8.001-2.275 10.49-2.705 7.715-1.286 13.37-7.961 13.37-15.782 0-8.93-12.956-56.505-10.35-79.369 16.646 3.502 38.007 20.936 43.171 36.429 10.956 32.869 58.355 28.841 71.176 27.114 12.812 1.729 60.224 5.76 71.182-27.114 5.165-15.493 26.525-32.927 43.171-36.429 2.623 23.015-10.35 70.235-10.35 79.369 0 7.787 5.652 14.451 13.326 15.775 2.502.432 6.255 1.326 10.53 2.714-8.289 3.357-12.188 12.83-8.75 21.021 14.482 34.519 23.269 64.852 26.46 91.56-13.703-8.71-27.736 2.845-25.292 15.877z"/><path d="m316.524 248.355c-8.626 1.917-14.07 10.439-12.153 19.065 1.51 7.014 3.771 29.273-5.339 39.22-4.387 4.788-12.025 6.72-22.728 5.734-1.39-2.574-2.685-7.779-3.484-13.567 18.429-12.272 21.726-39.533.496-48.124-8.951-3.623-25.66-3.632-34.631 0-21.279 8.611-17.864 35.896.495 48.123-.804 5.76-2.105 10.994-3.486 13.569-10.701.979-18.337-.947-22.724-5.735-9.106-9.942-6.851-32.19-5.341-39.213 1.89-8.611-3.545-17.133-12.158-19.047-8.62-1.917-17.173 3.521-19.09 12.148-.977 4.396-8.917 43.648 12.883 67.607 13.363 14.687 33.018 18.207 52.72 15.739 4.386-.548 9.377-2.239 14.016-6.259 4.639 4.02 9.629 5.711 14.016 6.259 19.753 2.473 39.385-1.082 52.72-15.739 21.8-23.959 13.86-63.211 12.883-67.607-1.917-8.626-10.47-14.087-19.095-12.173z"/><circle cx="312.001" cy="192" r="16"/></svg>