<svg id="Layer_1" enable-background="new 0 0 512.382 512.382" height="512" viewBox="0 0 512.382 512.382" width="512" xmlns="http://www.w3.org/2000/svg"><circle cx="204.197" cy="140.382" r="20"/><circle cx="308.197" cy="140.382" r="20"/><path d="m446.507 345.227c-14.635-29.27-30.311-114.75-30.311-152.845 0-33.538-18.826-51.844-34.108-59.658.407-31.351-4.945-56.933-16.001-76.281-15.3-26.775-39.51-44.958-70.011-52.584-18.662-4.665-34.469-3.986-39.883-3.547-5.419-.438-21.221-1.116-39.878 3.547-30.502 7.626-54.711 25.809-70.012 52.584-11.056 19.348-16.407 44.93-16 76.281-15.282 7.813-34.108 26.121-34.108 59.658 0 38.095-15.676 123.575-30.311 152.845-20.576 41.153 22.311 70.161 22.311 95.155 0 41.72 23.551 72 56 72 38.363 0 62.468-19.414 69.691-55.255 26.652 9.693 58.07 9.659 84.618.004 7.225 35.839 31.329 55.251 69.691 55.251 32.448 0 56-30.28 56-72 .002-24.955 42.859-54.065 22.312-95.155zm-272.418-272.907c26.976-47.208 79.707-39.522 84.019-40.053 2.199-.258 54.063-5.683 80.197 40.053 25.909 45.342 2.888 132.584-6.942 169.839-6.077 23.029-7.154 30.126-3.194 71.69 5.268 55.251.72 45.876-3.781 88.944-.563 5.383-1.272 12.188-2.182 16.598-25.751-10.839-48.052-72.237-49.9-96.477 16.144-11.656 23.891-38.548 23.891-46.533 0-37.27-80-37.396-80 0 0 7.984 7.746 34.877 23.891 46.533-1.839 24.124-24.091 85.626-49.9 96.477-.908-4.41-1.619-11.215-2.182-16.598-4.489-42.978-9.056-33.598-3.781-88.944 3.793-39.79 3.105-47.822-3.194-71.69-9.831-37.255-32.852-124.497-6.942-169.839zm82.108 221.771c-2.355-3.342-4.911-8.651-6.507-13.008 3.983-.936 9.026-.937 13.014 0-1.596 4.357-4.153 9.666-6.507 13.008zm-112 186.291c-15.756 0-24-20.122-24-40 0-36.438-36.157-59.908-25.689-80.845 17.352-34.704 33.689-123.589 33.689-167.155 0-8.231 1.743-15.139 5.176-20.643 4.258 31.359 11.936 60.464 16.717 78.584 4.45 16.863 6.143 19.951 2.279 60.49-5.697 59.766-.438 54.638 3.81 95.306 1.976 18.915 3.899 42.928 26.149 46.144-5.307 24.252-21.203 28.119-38.131 28.119zm85.176-51.803c11.163-13.059 20.136-29.969 26.824-45.934 6.688 15.966 15.66 32.874 26.823 45.934-16.961 5.069-36.658 5.078-53.647 0zm162.824 11.803c0 19.878-8.244 40-24 40-16.928 0-32.824-3.867-38.131-28.119 2.838-.411 5.706-1.277 8.495-2.806 19.497-10.69 14.977-38.185 21.326-69.938 8.536-42.682-7.172-91.242-.167-119.257 4.131-16.536 14.15-50.588 19.302-88.523 3.433 5.504 5.176 12.412 5.176 20.642 0 43.566 16.337 132.451 33.689 167.155 10.459 20.921-25.69 44.426-25.69 80.846z"/></svg>