<svg id="Layer_1" enable-background="new 0 0 512 512" height="512" viewBox="0 0 512 512" width="512" xmlns="http://www.w3.org/2000/svg"><circle cx="172" cy="204.926" r="20"/><path d="m512 200.926c0-56.827-68.277-98.909-92.687-123.313-24.118-24.118-69.26-22.855-87.485-21.203-24.448-4.7-52.586-.244-75.828 7.526-23.407-7.825-51.468-12.202-75.814-7.526-18.216-1.654-63.375-2.923-87.499 21.202-24.444 24.438-92.687 66.467-92.687 123.314 0 51.32 32 85.726 32 112 0 22.872-11.142 34.117-.984 47.178 6.862 8.822 18.651 8.822 24.984 8.822 14.246 0 27.089-7.869 37.942-19.479.875 3.1 1.929 6.238 3.202 9.422 15.623 39.06 17.162 87.477 67.49 97.696 5.549 1.195 11.525 1.283 17.392.136 39.587-1.288 61.771-7.775 73.974-7.775 12.224 0 34.401 6.486 73.968 7.775 5.616 1.098 11.251 1.097 17.17-.085 49.398-7.904 53.168-61.37 67.718-97.747 1.273-3.184 2.327-6.322 3.202-9.422 10.854 11.61 23.697 19.479 37.942 19.479 6.333 0 18.122 0 24.984-8.822 10.042-12.912-.984-24.858-.984-47.178 0-26.272 32-60.665 32-112zm-450.273 134.128c6.116-29.649-.383-45.854-12.717-73.293-29.714-66.108-24.01-84.874 44.574-142.367 8.542-7.16 15.919-13.345 21.729-19.155 3.108-3.109 7.298-5.503 12.11-7.335-30.431 44.949-56.37 74.951-38.809 136.417 6.758 23.651 5.549 42.621 3.789 60.714-8.416 22.637-21.274 39.568-30.676 45.019zm167.201 84.962c9.003-11.925 20.777-29.944 27.072-34.52 6.307 4.585 18.04 22.558 27.072 34.52-26.928-4.124-27.34-4.117-54.144 0zm27.072-131.09c8.83.023 19.608 1.629 23.304 3.402.576 1.513 1.173 5.115.105 8.912-1.846 6.571-3.216 3.685-23.409 16.416-20.113-12.681-21.568-9.865-23.409-16.416-1.067-3.797-.471-7.399.105-8.912 3.696-1.774 14.474-3.379 23.304-3.402zm129.145 58.057c-15.773 39.435-15.341 71.481-42.83 77.931-2.653-.011-5.234-.045-7.737-.105-20.869-6.434-40.71-53.523-62.578-67.106v-12.298c4.296-2.75 10.501-6.469 17.9-10.169 25.144-12.57 28.407-49.375 12.158-65.624-16.97-16.97-75.142-16.975-92.117 0-16.042 16.042-13.258 52.918 12.158 65.624 7.401 3.701 13.606 7.42 17.9 10.168v12.299c-21.848 13.571-41.708 60.675-62.584 67.107-2.501.059-5.08.094-7.73.104-27.493-6.451-27.08-38.554-42.83-77.931-13.686-34.216 9.295-67.771-7.471-126.453-13.764-48.173 5.399-65.937 37.928-114.729 6.178-9.267 15.143-14.491 25.092-17.13 2.107-.034 4.13-.476 5.985-1.269 28.796-4.695 61.569 8.481 63.709 9.024 3.211.811 6.432.583 9.336-.471 30.486-11.014 75.191-17.247 93.253 9.846 32.342 48.514 51.72 66.457 37.928 114.729-16.773 58.707 6.24 92.176-7.47 126.453zm77.845-85.221c-12.324 27.418-18.838 43.621-12.717 73.293-9.402-5.452-22.26-22.383-30.677-45.02-1.76-18.093-2.969-37.063 3.789-60.714 17.515-61.301-8.264-91.292-38.808-136.417 4.812 1.832 9.001 4.226 12.11 7.334 5.811 5.811 13.188 11.995 21.729 19.155 68.579 57.49 74.292 76.253 44.574 142.369z"/><circle cx="340" cy="204.926" r="20"/></svg>