<svg id="Layer_1" enable-background="new 0 0 512 512" height="512" viewBox="0 0 512 512" width="512" xmlns="http://www.w3.org/2000/svg"><path d="m497.725 112.593c-24.404-57.398-85.703-95.01-120.235-43.531-40.865-20.615-89.131-19.863-121.49-4.069-32.238-15.736-80.497-16.611-121.489 4.069-16.939-25.251-43.449-31.812-70.742-15.435-45.177 27.105-63.769 81.439-63.769 133.719 0 20.964 9.463 28.583 17.4 31.284 12.098 4.114 26.074-1.466 45.087-18.495-.365 7.843.146 15.649 1.959 22.967 1.172 20.959-96.326 98.994 4.24 199.558 13.099 13.099 29.82 27.357 47.165 27.355 8.76 0 17.153-3.589 23.759-11.126 17.938 13.602 52.215 28.457 116.389 28.457s98.451-14.855 116.389-28.457c6.572 7.498 14.981 11.126 23.759 11.126 17.343-.001 34.067-14.257 47.165-27.355 100.594-100.591 3.065-178.535 4.24-199.558 1.813-7.318 2.324-15.124 1.959-22.966 19.014 17.027 32.989 22.607 45.087 18.494 7.938-2.7 17.4-10.319 17.4-31.284.002-26.937-4.935-52.786-14.273-74.753zm-343.543 296.636c17.774-56.361 24.371-125.883 101.818-125.883 62.94 0 79.955 45.086 95.658 104.026 2.043 7.667 4.015 15.063 6.182 21.926-34.349 34.248-168.093 35.804-203.658-.069zm274.5-279.638c-5.024-6.533-14.191-8.179-21.176-3.804-6.985 4.376-9.503 13.342-5.816 20.714 5.539 11.079 20.146 47.53 14.788 68.964-11.582 46.331 93.609 95.167 4.209 184.567-15.505 15.504-22.363 17.642-24.069 17.935-.682-.661-2.387-2.717-4.707-8.252-.277-2.677-1.222-5.241-2.739-7.447-7.704-23.352-13.89-60.321-31.442-91.895 7.94-20.527 2.537-43.927 1.793-46.906-2.142-8.572-10.827-13.79-19.401-11.644-8.573 2.142-13.786 10.829-11.644 19.401.219.878.509 2.339.778 4.175-19.542-15.98-44.067-24.052-73.25-24.053 53.166-.003 30.691-40-.006-40-30.707 0-53.169 39.997-.006 40-29.182.001-53.707 8.073-73.249 24.053.255-1.732.535-3.173.778-4.174 2.143-8.573-3.07-17.259-11.644-19.401-8.571-2.145-17.26 3.071-19.401 11.644-.744 2.979-6.147 26.379 1.793 46.906-22.885 41.167-27.974 97.019-38.888 107.594-1.706-.292-8.564-2.43-24.069-17.935-89.309-89.309 15.767-138.331 4.209-184.567-5.355-21.421 8.864-57.056 14.788-68.964 3.687-7.372 1.169-16.338-5.816-20.714-6.984-4.376-16.151-2.729-21.176 3.804-11.894 15.42-35.329 42.697-51.285 54.16 1.459-78.453 50.023-111.95 65.292-106.407 8.299 3.013 14.135 15.139 15.496 19.062 3.324 9.97 15.251 14.123 24.054 8.253 41.696-27.797 90.43-21.208 110.245-8.003 5.401 3.6 12.458 3.531 17.756.002 19.812-13.208 68.552-19.797 110.249 8.001 8.762 5.841 20.715 1.762 24.054-8.253 1.006-3.017 6.912-15.887 15.426-19.037 15.237-5.639 63.899 27.679 65.362 106.382-15.997-11.494-39.197-38.541-51.286-54.161z"/><circle cx="172" cy="191.346" r="20"/><circle cx="340" cy="191.346" r="20"/></svg>