<svg id="Layer_1" enable-background="new 0 0 512 512" height="512" viewBox="0 0 512 512" width="512" xmlns="http://www.w3.org/2000/svg"><circle cx="160" cy="203.599" r="16"/><path d="m512 195.599c0-20.788-8.36-49.722-48.01-69.89-8.805-11.092-13.561-63.995-52.108-73.632-23.191-5.801-42.545 3.386-55.56 13.222-20.417-12.713-43.976-18.304-63.539-20.61-13.326-1.571-26.722 2.616-36.783 11.484-10.061-8.867-23.453-13.056-36.783-11.484-19.563 2.306-43.121 7.896-63.539 20.61-13.016-9.835-32.37-19.021-55.558-13.223-38.513 9.629-43.328 62.57-52.11 73.633-39.65 20.168-48.01 49.102-48.01 69.89 0 33.916 23.133 89.5 16.479 116.116-9.665 38.623 29.587 58.888 66.458 26.261.932 14.992 1.004 29.985 3.832 45.439-2.601 13.583-2.7 27.874 1.46 40.354 12.226 36.679 55.057 40.83 78.47 34.165 5.89-.985 10.304-2.259 14.234-3.393 20.18-5.825 29.632-2.589 46.206 4.859 24.43 10.98 33.295 10.979 57.724 0 16.913-7.601 26.072-10.671 46.206-4.859 3.928 1.134 8.341 2.407 14.228 3.392 5.908 1.683 12.32 2.528 19.222 2.528 47.645 0 69.322-32.104 60.715-77.046 2.827-15.452 2.905-30.526 3.832-45.438 36.729 32.503 76.157 12.498 66.459-26.259-6.611-26.431 16.475-82.599 16.475-116.119zm-289.037-119.13c9.079-1.07 17.037 5.98 17.037 15.13 0 8.837 7.164 16 16 16s16-7.163 16-16c0-9.147 7.952-16.197 17.037-15.13 24.821 2.926 57.646 12.079 73.071 39.068 38.75 67.813 58.093 134.479 47.037 162.119-7.026 17.565-10.213 34.628-11.65 53.156-15.438-13.798-32.356-24.715-55.183-70.369-28.422-56.845-60.52-56.845-86.311-56.845s-57.889 0-86.311 56.845c-22.604 45.207-39.116 56.009-55.183 70.369-1.437-18.523-4.603-35.539-11.65-53.156-11.056-27.641 8.286-94.307 47.036-162.118 15.423-26.99 48.249-36.143 73.07-39.069zm57.025 167.322c-.456 5.786-11.896 23.808-23.988 23.808-12.105 0-23.557-18.06-23.989-23.806 1.088-2.386 9.661-8.194 23.989-8.194 14.323 0 22.895 5.803 23.988 8.192zm-232.968 78.496c.065-.711.21-1.638.503-2.808 5.658-22.631-1.127-51.452-7.688-79.325-10.084-42.834-16.81-66.179 23.321-86.245 12.231-6.115 17.269-20.487 22.602-35.702 5.322-15.184 11.354-32.394 22.125-35.087 8.404-2.103 16.312.282 22.841 3.978-3.124 3.851-6.019 8.02-8.615 12.563-27.073 47.379-69.319 138.994-48.963 189.881.94 2.35 1.772 4.66 2.537 6.946-10.954 18.796-23.446 24.968-28.663 25.799zm71.566 91.363c-6.067-18.203 5.798-47.81 12.728-54.738 2.962-2.962 6.193-5.741 9.936-8.959 42.341-36.413 50.794-66.253 63.673-87.184 6.625 13.973 19.412 27.838 35.078 33.792v23.983c-65.224 29.639-49.609 94.472-80.181 106.078-4.084.596-9.076.978-15.819.978-3.68 0-1.981.696-5.737.161-13.936-1.992-17.837-8.587-19.678-14.111zm153.156 16.563c-15.736 7.073-15.745 7.075-31.484 0-9.143-4.109-20.232-9.087-33.901-10.322 12.382-27.825 13.65-57.395 49.618-71.429 7.527 2.976 24.282 11.425 33.715 30.292 5.788 11.574 9.71 27.104 15.954 41.137-13.67 1.235-24.759 6.213-33.902 10.322zm121.672-16.563c-3.331 9.996-11.238 13.126-21.78 14.378-4.2-.977-9.007.121-19.476-1.411-30.213-11.505-15.095-76.508-80.158-106.074v-23.983c15.665-5.953 28.453-19.818 35.078-33.792 2.166 3.521 4.365 7.492 6.611 11.985 28.863 57.726 51.743 68.904 66.997 84.158 6.929 6.93 18.795 36.536 12.728 54.739zm78.752-173.496c-6.561 27.873-13.346 56.694-7.688 79.328.292 1.168.438 2.095.502 2.805-5.218-.832-17.71-7.003-28.662-25.8.765-2.287 1.597-4.597 2.537-6.946 20.357-50.89-21.895-142.51-48.964-189.882-2.596-4.542-5.49-8.711-8.613-12.561 6.529-3.695 14.437-6.08 22.842-3.977 10.769 2.692 16.801 19.902 22.123 35.086 5.333 15.215 10.371 29.587 22.602 35.702 40.043 20.022 33.437 43.275 23.321 86.245z"/><circle cx="352" cy="203.599" r="16"/><path d="m256 195.599c8.836 0 16-7.163 16-16v-40c0-8.837-7.164-16-16-16s-16 7.163-16 16v40c0 8.837 7.164 16 16 16z"/></svg>