<svg id="Layer_1" enable-background="new 0 0 512 512" height="512" viewBox="0 0 512 512" width="512" xmlns="http://www.w3.org/2000/svg"><path d="m312 368.023c-6.932 0-12.817 4.417-15.039 10.583-5.359 7.698-8.218 6.059-24.961 6.059v-19.328c32.741-13.771 36.036-52.672-16-52.672-51.904 0-48.857 38.848-16 52.672v19.328c-16.244 0-19.578 1.674-24.961-6.059-2.222-6.166-8.107-10.583-15.039-10.583-12.28 0-19.777 13.186-14.046 23.664-.977.489 12.598 24.978 38.046 24.978h64c20.436 0 33.697-15.617 38.311-24.845l-.265-.133c5.731-10.478-1.765-23.664-14.046-23.664z"/><path d="m335.182 252.08c-6.731-4.547-15.607-4.565-22.364 0-16.233 10.964-8.483 36.584 11.182 36.584 19.528.001 27.575-25.509 11.182-36.584z"/><path d="m455.155 186.354c-10.012-5.007-22.771-37.997-31.214-59.827-14.788-38.237-27.559-71.259-52.061-77.385-29.999-7.499-86.685 11.39-115.88 22.376-28.959-10.898-85.861-29.881-115.88-22.376-24.502 6.126-37.273 39.147-52.061 77.385-8.443 21.83-21.202 54.82-31.214 59.827-36.922 18.461-56.845 70.613-56.845 110.31 0 82.556 84.72 125.106 162.94 151.179 25.213 8.404 88.397 16.363 91.075 16.697 5.208.657 72.111-9.053 95.044-16.697 78.353-26.117 162.941-68.685 162.941-151.179 0-39.697-19.923-91.849-56.845-110.31zm-116.215 231.132c-16.211 5.404-55.407 11.266-72.305 13.623-12.279 1.708-8.607 1.761-21.271 0-16.832-2.348-56.085-8.215-72.305-13.623-96.236-32.08-141.059-70.471-141.059-120.822 0-29.996 15.733-69.979 39.155-81.689 31.305-15.652 44.608-81.204 64.667-118.931 1.953-3.673 8.126-14.536 12.059-15.857 26.864-6.732 100.647 23.264 105.801 24.295 2.194.328 4.252.178 6.207-.313.742 0 77.608-30.653 104.23-23.981 3.928 1.32 10.094 12.161 12.059 15.857 19.933 37.491 33.437 103.316 64.667 118.931 23.422 11.71 39.155 51.692 39.155 81.688 0 50.351-44.823 88.742-141.06 120.822z"/><path d="m195.785 287.093c16.237-6.865 16.275-29.975 0-36.856-6.636-2.807-14.595-1.885-20.507 2.995-9.716 8.021-9.692 22.865 0 30.866 5.856 4.828 13.791 5.836 20.507 2.995z"/></svg>