<svg id="Layer_1" enable-background="new 0 0 512.129 512.129" height="512" viewBox="0 0 512.129 512.129" width="512" xmlns="http://www.w3.org/2000/svg"><path d="m181.712 174.788c14.494-4.988 24.454-1.888 31.302 5.192 2.731 2.807 3.988 5.297 3.68 4.696 3.951 7.9 13.562 11.106 21.464 7.152 7.903-3.951 11.108-13.563 7.155-21.466.196 0-23.202-46.288-78.241-24.268-44.185 17.674-52.955 56.269-51.419 74.208.755 8.819 8.522 15.334 17.307 14.576 8.805-.754 15.331-8.502 14.577-17.307.18.001-2.406-30.155 34.175-42.783z"/><path d="m311.862 224.215c9.916 0 16.455-7.625 16.455-16 0-8.321-6.488-16-16.455-16-8.837 0-16 7.164-16 16s7.164 16 16 16z"/><path d="m345.108 146.094c-54.409-21.767-78.624 24.268-78.241 24.268-3.952 7.903-.748 17.515 7.155 21.466 7.902 3.955 17.513.748 21.464-7.152-.34.665.759-1.564 3.266-4.263 10.9-11.719 26.388-9.184 40.478-1.859 28.038 14.567 25.189 39.018 25.414 39.018-.801 9.364 6.586 17.366 15.96 17.366 8.22.001 15.209-6.296 15.924-14.636 1.535-17.939-7.235-56.534-51.42-74.208z"/><path d="m511.472 348.68c-5.968-72.584-64.225-201.642-104.748-261.011-16.545-24.196-37.056-48.445-61.238-64.589-27.575-18.404-58.872-25.325-89.396-12.445-57.879-24.423-111.088 20.865-147.452 72.457-39.329 55.77-83.689 158.478-99.003 216.577-20.478 77.688-5.921 109.988 21.232 142.901 15.204 18.425 51.77 57.455 75.876 57.455 18.196 0 43.954-22.601 57.663-35.081 23.856 20.316 64.023 43.694 91.685 43.354 26.752.33 66.392-21.815 91.684-43.354 13.631 12.41 39.496 35.081 57.663 35.081 24.126 0 60.832-39.225 75.876-57.455 23.988-29.072 33.529-52.89 30.158-93.89zm-32.864 32.032c-2.2 12.074-6.184 19.552-11.928 28.166-14.396 21.594-47.908 54.639-61.294 59.028-8.3-2.338-28.341-19.58-34.824-25.427 12.201-13.948 23.85-30.938 32.928-51.365 15.888-35.748 12.571-72.216-9.592-105.462-16.087-24.13-36.704-38.029-37.574-38.608-7.351-4.901-17.307-2.93-22.208 4.424-4.902 7.353-2.936 17.272 4.417 22.174.652 0 32.226 22.362 40.575 55.757 8.889 35.439-14.102 73.302-39.115 99.046-2.706 1.425-4.962 3.593-6.518 6.389-25.839 24.109-60.748 41.282-77.385 41.487-17.05-.21-51.9-17.706-77.385-41.487-1.555-2.792-3.809-4.961-6.518-6.389-25.275-26.014-47.983-63.72-39.115-99.046 3.938-15.75 13.101-30.025 24.504-41.853 7.233-7.488 15.723-13.905 16.07-13.905 7.353-4.901 9.319-14.821 4.417-22.174-4.9-7.351-14.855-9.326-22.208-4.424-.87.579-21.487 14.479-37.574 38.608-22.164 33.246-25.48 69.714-9.592 105.462 9.078 20.426 20.727 37.417 32.928 51.365-6.472 5.837-26.521 23.088-34.824 25.427-3.047-.999-12.388-6.092-28.257-21.126-11.039-10.458-24.85-25.621-33.037-37.902-5.788-8.682-9.738-16.144-11.928-28.166-11.391-62.565 50.756-193.514 77.897-241.789 21.235-37.77 55.613-86.949 96.991-99.126 24.949-7.341 39.779 2.754 38.869 2.147 0 0 .002.001.002.001-.324-.205-2.174-.138 17.733-.138-3.388 2.21 11.813-9.908 38.656-2.011 49.557 14.583 89.595 81.908 112.192 128.175 25.428 52.059 73.088 155.628 62.697 212.742z"/><path d="m328.487 373.183c-11.765-9.186-28.428-7.709-42.907-4.089-1.827.459-4.241.859-5.734-.3-3.263-2.54-5.201-9.444-6.074-13.478 32.7-14.771 34.766-52.972-17.446-52.972-52.465 0-51.07 37.996-17.918 52.972-.812 3.753-2.296 8.888-4.597 11.936-1.924 2.549-3.77 2.706-7.211 1.841-14.485-3.621-31.144-5.096-42.907 4.089-6.558 5.12-10.11 12.804-10.11 19.718 0 17.675 24.873 22.367 31.035 5.485.705-.074 1.449-.086 2.101-.086v11.169c0 26.456 21.218 49.136 49.608 49.136 27.094 0 49.136-22.042 49.136-49.136v-11.168c3.409 0 1.188-.253 4.075 3.826 8.983 12.694 29.061 6.357 29.061-9.225-.001-6.897-3.541-14.587-10.112-19.718zm-89.297 36.286v-9.096c6.151-1.602 11.952-4.892 16.9-10.051 4.836 5.042 10.594 8.409 16.9 10.051v9.096c0 9.369-7.561 16.996-16.9 17.124-9.339-.128-16.9-7.755-16.9-17.124z"/><path d="m200.09 192.227c-8.81-.168-16.228 6.981-16.228 15.988 0 9.024 7.433 16.156 16.228 15.988 8.809.169 16.228-6.98 16.228-15.988-.001-9.023-7.433-16.156-16.228-15.988z"/></svg>