<svg id="Layer_1" enable-background="new 0 0 511.958 511.958" height="512" viewBox="0 0 511.958 511.958" width="512" xmlns="http://www.w3.org/2000/svg"><circle cx="179.96" cy="223.978" r="20"/><path d="m511.901 138.884c-.832-12.123-7.513-29.749-34.615-44.876-28.184-15.733-45.561-68.459-89.167-57.552-25.844 6.459-42.708 21.579-53.323 32.957-35.539-9.255-51.705-5.366-59.797-22.114-3.097-6.409-2.809-11.32-3.039-11.32 0-8.837-7.163-16-16-16s-16 7.163-16 16c0 .046-.195 5.044-2.621 10.502-7.85 17.665-24.477 13.636-60.177 22.933-10.615-11.379-27.478-26.498-53.321-32.957-43.868-10.965-60.628 41.62-89.169 57.552-27.103 15.126-33.783 32.752-34.615 44.875-1.035 15.103 12.399 31.056 17.956 40.935 7.381 13.133 3.109 37.949 6.91 52.827 4.625 18.107 22.119 24.596 36.815 14.723-11.573 16.265-22.019 9.762-27.976 21.234-1.996 3.842-2.35 8.328-.98 12.436 15.616 46.848 62.753 72.89 76.898 79.798 3.833 38.005 20.315 88.393 35.753 121.847 3.29 7.13 11.303 10.851 18.916 8.677 7.583-2.163 12.459-9.532 11.488-17.358-1.031-8.318-2.262-24.589-1.778-41.575 2.505 2.783 4.798 5.075 6.588 6.865 9.724 9.726 26.46 3.415 27.276-10.371 10.807 12.739 24.908 24.215 42.979 30.237 3.287 1.094 6.829 1.107 10.154 0 18.072-6.022 32.173-17.498 42.98-30.236.817 13.786 17.55 20.094 27.276 10.37 1.79-1.79 4.083-4.082 6.588-6.865.484 16.985-.747 33.253-1.778 41.567-.978 7.828 3.896 15.2 11.48 17.368 7.534 2.154 15.596-1.471 18.924-8.679 15.261-33.071 31.89-83.547 35.753-121.847 14.145-6.908 61.282-32.95 76.898-79.798 1.369-4.107 1.016-8.594-.98-12.436-5.959-11.474-16.396-4.959-27.976-21.234 14.719 9.889 32.189 3.387 36.815-14.723 3.801-14.88-.483-39.672 6.909-52.825 5.51-9.798 18.994-25.804 17.956-40.937zm-465.995 25.253c-3.637-6.469-12.561-18.898-13.855-23.712.827-5.752 7.409-12.442 18.217-18.476 32.966-18.399 47.465-59.037 65.813-54.448 11.661 2.915 20.739 8.473 27.978 14.493-30.728 16.561-44.662 40.809-54.7 73.469-15.365 26.537-26.753 43.366-34.432 53.336-.324-13.74-1.013-30.416-9.021-44.662zm107.743 208.686c-2.641 5.28-4.725 11.175-6.357 17.405-6.114-25.63-9.166-51.591-3.947-69.854 7.966-27.881 49.312-42.357 80.285-48.675 16.965 25.116 38.438 19.586 30.756 20.359-.158.016-1.483.215-1.563.231-34.233 6.847-58.976 48.238-70.095 81.527-5.277-12.628-22.976-13.203-29.079-.993zm102.33 54.001c-21.091-9.5-34.298-31.581-41.361-47.258 6.95-18.858 22.667-48.137 41.361-54.991 18.661 6.843 34.382 36.054 41.361 54.992-7.062 15.676-20.268 37.756-41.361 47.257zm108.687-36.596c-1.633-6.23-3.717-12.125-6.357-17.405-6.092-12.189-23.795-11.652-29.078.993-4.55-13.622-10.903-27.356-18.65-39.599-11.805-18.653-32.937-41.168-53.824-42.204-5.748-.284 15.12 3.919 31.481-20.236 29.031 5.901 72.216 20.031 80.377 48.596 5.217 18.265 2.165 44.227-3.949 69.855zm37.375-65.945c-.636-4.479-1.52-8.716-2.658-12.7-12.323-43.128-63.729-63.272-107.75-71.753-13.116-15.918-58.218-15.948-71.353.009-44.048 8.493-95.391 28.65-107.705 71.744-1.138 3.984-2.021 8.221-2.658 12.699-12.885-8.14-30.365-21.698-40.924-40.31 27.084-16.883 34.59-50.455 41.885-83.085 11.833-52.916 20.331-83.346 65.478-97.981 40.985-11.843 60.672-7.371 79.623-27.501 18.939 20.117 38.957 15.788 79.637 27.506 45.596 14.786 53.84 45.994 65.464 97.977 7.295 32.63 14.801 66.202 41.885 83.085-10.561 18.615-28.045 32.174-40.924 40.31zm69.332-168.723c-8.534 13.194-13.592 21.349-14.342 53.238-7.679-9.969-19.063-26.795-34.431-53.333-9.922-32.283-23.72-56.774-54.701-73.471 7.239-6.021 16.317-11.58 27.979-14.494 18.168-4.543 33.147 36.217 65.812 54.448 10.808 6.033 17.39 12.724 18.217 18.476-.892 3.321-5.83 10.955-8.534 15.136z"/><circle cx="331.998" cy="223.978" r="20"/></svg>