<svg id="Layer_1" enable-background="new 0 0 512 512" height="512" viewBox="0 0 512 512" width="512" xmlns="http://www.w3.org/2000/svg"><path d="m482.878 199.038c25.816-20.866 29.122-63.298 29.122-95.143 0-42.592-16.444-84.192-17.145-85.942-3.463-8.657-13.614-12.55-22-8.374-46.416 23.064-81.526 25.601-112.255 68.183-2.365-1.052-3.607-1.603-10.102-4.487-30.379-13.502-67.966-21.995-94.498-1.723-26.527-20.268-64.103-11.788-94.498 1.722-6.43 2.855-7.702 3.42-10.102 4.487-30.525-42.298-65.661-45.195-112.245-68.176-8.362-4.183-18.536-.322-22.011 8.368-.7 1.75-17.144 43.351-17.144 85.942 0 31.844 3.306 74.276 29.122 95.143-17.909 67.648-10.663 137.553 4.567 168.013 7.151 14.304 28.641 10.336 30.231-5.563 2.227-22.534 7.85-51.8 8.391-51.148.631 7.945 2.542 22.217 8.298 37.259-20.297 24.93-28.92 46.629-31.789 55.237-3.449 10.344 4.261 21.06 15.179 21.06 18.094 0 39.358-1.474 61.636-4.166 15.799 11.763 51.219 27.648 71.05 47.479 26.367 26.368 53.128 35.49 54.254 35.865 12.728 4.245 21.805-5.349 21.092-14.805.441-2.387 3.974-15.144 29.91-25.519 32.577-13.031 53.567-27.341 66.259-45.454 28.769 4.227 56.836 6.599 79.799 6.599 10.906 0 18.632-10.704 15.179-21.06-2.869-8.608-11.492-30.307-31.789-55.237 8.182-21.378 7.707-36.535 8.438-37.427 3.62 15.642 6.865 37.289 8.251 51.315 1.592 15.914 23.088 19.854 30.231 5.563 15.238-30.471 22.476-100.371 4.569-168.011zm-12.357-153.204c4.252 14.303 9.479 36.305 9.479 58.061 0 27.849-3.255 48.048-9.703 60.411-17.781-36.711-44.741-55.559-79.885-72.797 20.972-25.178 39.592-27.872 80.109-45.675zm-229.364 55.999c.075.186.221.694-.013.005zm-209.157 2.062c0-21.658 5.24-43.714 9.496-58.055 40.557 17.821 59.1 20.486 80.08 45.674-35.138 17.237-62.094 36.084-79.873 72.791-6.448-12.361-9.703-32.561-9.703-60.41zm120.875 221.313c28.055-18.703 52.271-14.519 63.832-10.594-4.096 14.623 12.471 36.525 27.245 42.759-.408.466-1.149 1.472-1.241 1.61-5.028 3.776-27.073 12.289-68.056 20.498-28.879 5.784-59.17 9.833-85.34 11.527 12.163-21.016 32.965-45.403 63.56-65.8zm94.207 140.724c-30.474-17.574-21.499-23.667-72.478-53.834 22.158-4.232 61.705-12.99 81.396-23.792 18.415 10.101 54.118 18.34 74.799 22.498-28.748 23.557-64.147 22.918-83.717 55.128zm90.264-86.451c-40.982-8.209-63.027-16.722-68.056-20.498-.13-.197-.847-1.159-1.241-1.61 14.639-6.177 31.387-27.972 27.245-42.759 11.561-3.925 35.776-8.108 63.832 10.594 30.595 20.397 51.397 44.784 63.561 65.801-26.171-1.695-56.462-5.743-85.341-11.528zm109.809-121.896c-7.079-3.544-15.687-1.365-20.242 5.104-14.59-38.566-39.791-93.276-74.038-116.106-22.639-15.093-30.401-23.38-32.875-26.598.022-4.125-1.539-8.257-4.687-11.403-10.965-10.965-29.397-1.879-27.709 15.152.933 9.421 7.308 22.665 47.521 49.474 14.069 9.38 27.251 28.048 38.557 48.98-18.047-14.718-45.682-2.049-45.682 21.707 0 15.464 12.536 28 28 28 15.74 0 28.559-13.023 27.974-29.046 11.221 24.323 19.671 48.648 23.946 63.06-.159 2.814-.632 8.344-2.021 15.079-8.465-7.564-18.087-15.114-29.024-22.405-55.785-37.19-103.119-9.601-105.107-8.407 0 0-7.751 5.72-15.768 5.72s-15.768-5.72-15.768-5.72c-1.987-1.192-49.323-28.781-105.107 8.407-10.938 7.292-20.559 14.841-29.024 22.406-1.386-6.725-1.859-12.251-2.019-15.086 4.277-14.416 12.725-38.736 23.944-63.053-.586 16.038 12.249 29.046 27.974 29.046 15.464 0 28-12.536 28-28 0-23.756-27.635-36.426-45.682-21.707 11.306-20.933 24.488-39.601 38.557-48.98 40.213-26.809 46.588-40.053 47.521-49.474 1.679-16.938-16.696-26.166-27.709-15.152-3.147 3.146-4.709 7.278-4.687 11.403-2.474 3.218-10.236 11.505-32.875 26.598-34.274 22.848-59.478 77.62-74.038 116.106-4.557-6.472-13.164-8.644-20.242-5.104-4.66 2.33-9.454 6.231-14.164 15.754 1.423-45.53 13.076-78.751 13.096-78.871 16.903-50.301 48.276-64.23 106.168-89.929 17.493-7.769 42.502-17.649 60.547-10.868 8.691 3.262 11.146 9.27 10.824 8.571 5.612 12.988 24.264 12.788 29.541-.404.019-.046 2.7-4.946 9.966-7.899 8.907-3.617 25.972-5.071 56.681 8.578 59.407 26.385 93.198 39.806 110.722 91.952.021.129 11.653 32.7 13.096 78.871-4.713-9.525-9.507-13.426-14.167-15.756z"/></svg>