<svg id="Layer_1" enable-background="new 0 0 511.766 511.766" height="512" viewBox="0 0 511.766 511.766" width="512" xmlns="http://www.w3.org/2000/svg"><circle cx="179.913" cy="235.838" r="20"/><path d="m464.145 127.106c-12.681-7.609-25.336-12.338-34.004-15.023-8.209-30.278-42.992-58.941-74.348-66.779-31.236-7.81-84.186 3.396-99.881 7.065-15.696-3.669-68.643-14.873-99.88-7.065-31.444 7.861-66.188 36.68-74.348 66.779-8.667 2.686-21.323 7.414-34.004 15.023-75.73 45.438-46.962 120.353-11.383 205.016 9.644 22.946 19.615 46.675 19.615 56.704 0 8.837 7.164 16 16 16 14.319 0 27.091-5.798 37.069-16.29 31.236 55.067 91.469 83.923 146.931 80.334 55.761 3.609 115.803-25.457 146.931-80.334 9.978 10.491 22.75 16.29 37.069 16.29 8.836 0 16-7.163 16-16 0-10.029 9.972-33.758 19.615-56.704 35.505-84.485 64.263-159.629-11.382-205.016zm-208.232 266.591c5.193 2.811 10.878 4.715 16 5.998v21.131c0 8.822-7.178 16-16 16s-16-7.178-16-16v-21.131c5.122-1.283 10.808-3.188 16-5.998zm171.593-25.725c-4.415-3.89-7.428-9.502-9.404-14.485 24.881-75.499 14.265-169.748 13.702-174.531-1.033-8.776-8.988-15.047-17.76-14.021-8.776 1.032-15.053 8.984-14.021 17.76.131 1.111 10.806 95.637-13.534 164.565-.626 1.456-5.636 17.312-15.889 32.691-16.686 25.029-39.475 42.129-67.753 50.922 1.377-6.439 1.066-8.967 1.066-28.178 22.89-.92 48.861-8.103 67.313-26.556 3.358-3.357 5.051-8.033 4.621-12.762-4.73-52.031-32.255-79.378-54.512-93.156-7.513-4.65-17.375-2.33-22.026 5.183-4.651 7.514-2.331 17.375 5.183 22.026 21.319 13.197 34.247 33.64 38.503 60.834-10.233 7.395-24.525 11.869-40.381 12.489-17.129.676-31.444-3.718-33.207-6.496-.278-.439-.5-.81-1.15-1.6 15.797-5.562 27.657-20.844 27.657-33.832 0-37.27-80-37.396-80 0 0 12.987 11.86 28.27 27.657 33.832-.471.572-1.244 1.707-1.46 2.076-8.919 7.225-48.883 11.16-73.278-6.469 4.256-27.194 17.184-47.637 38.503-60.834 7.513-4.651 9.833-14.513 5.183-22.026-4.651-7.513-14.512-9.834-22.026-5.183-22.257 13.778-49.782 41.125-54.512 93.156-.43 4.729 1.263 9.404 4.621 12.762 18.454 18.455 44.423 25.636 67.313 26.556 0 18.617-.326 21.684 1.072 28.204-22.047-6.904-47.985-21.287-67.759-50.948-10.255-15.383-15.306-31.318-15.833-32.572-24.336-68.879-13.719-163.578-13.589-164.69 1.029-8.773-5.248-16.722-14.021-17.754-8.774-1.026-16.727 5.245-17.76 14.021-.563 4.783-11.179 99.032 13.702 174.531-1.976 4.983-4.989 10.595-9.404 14.485-11.683-40.222-52.41-112.255-52.41-163.147 0-20.308 10.617-37.086 31.556-49.871 17.404-10.626 35.441-14.41 35.582-14.439 7.479-1.496 12.862-8.063 12.862-15.689 0-15.176 25.65-41.92 51.88-48.478 22.945-5.736 71.229 3.773 88.095 7.965 2.568.634 5.208.712 7.905.035 21.188-5.335 66.687-13.39 88.239-8 26.23 6.558 51.88 33.302 51.88 48.478 0 7.627 5.383 14.193 12.862 15.689.671.134 67.138 14.01 67.138 64.311.001 50.907-40.718 122.896-52.406 163.146z"/><circle cx="331.913" cy="235.838" r="20"/></svg>