<svg id="Layer_1" enable-background="new 0 0 512.049 512.049" height="512" viewBox="0 0 512.049 512.049" width="512" xmlns="http://www.w3.org/2000/svg"><path d="m486.696 321.745c-25.418-59.302-6.78-92.517-31.527-166.755-14.335-43.016-33.22-57.983-49.222-61.74-19.421-31.809-58.197-46.382-95.094-51.389.601-4.902.08-9.884-2.369-14.459-9.124-17.047-35.558-12.976-50.584-.804-21.082-29.662-50.515-33.73-60.49-16.112-4.368 7.714-3.844 17.599 1.782 31.646-36.178 5.241-74.035 19.785-93.166 51.128-15.998 3.765-34.884 18.722-49.216 61.729-24.579 73.734-6.263 107.812-31.528 166.757-27.342 63.808 22.511 141.916 104.713 129.793 9.528 5.353 20.406 8.995 32.59 10.911 14.981 24.138 42.786 49.599 93.404 49.599s78.423-25.46 93.404-49.599c12.185-1.917 23.063-5.559 32.591-10.912 81.12 11.965 132.49-64.968 104.712-129.793zm-262.706-249.696c7.794 0 14.421-5.613 15.759-13.233 1.672 3.601 3.265 9.46 10.671 12.213 5.845 2.174 11.918.731 16.135-2.982 3.827-3.356 4.321-6.705 5.671-9.315 1.306 7.658 7.94 13.294 15.738 13.318.836.003 83.748.857 96.503 51.881 15.003 60.012-17.314 108.208.344 161.179 13.825 41.476 21.748 111.168-14.751 136.15-10.126 6.489-22.161 10.791-42.07 10.791-33.716 0-49.915-9.58-56-14.486v-21.172c13.935-6.467 24-20.378 24-32.342 0-37.27-80-37.396-80 0 0 11.964 10.065 25.875 24 32.342v21.172c-6.085 4.907-22.284 14.486-56 14.486-19.845 0-32.011-4.305-42.037-10.767-36.498-24.935-28.639-94.61-14.784-136.174 17.71-53.127-14.709-100.966.344-161.179 12.755-51.025 95.666-51.879 96.477-51.882zm-19.443 390.907c25.178-2.791 41.475-10.462 51.443-17.394 9.968 6.931 26.265 14.603 51.443 17.394-26.908 22.951-75.968 22.96-102.886 0zm-149.851-128.603c29.748-69.404 7.968-111.019 36.745-180.771-1.281 49.029 16.747 87.277 5.37 121.407-14.13 42.392-21.25 103.667 1.269 144.105-39.128-8.683-57.909-50.848-43.384-84.741zm359.205 84.741c22.347-40.129 15.598-101.113 1.268-144.104-11.385-34.154 6.652-72.306 5.37-121.402 29.002 70.242 6.82 110.949 36.744 180.765 14.44 33.692-4.036 76.008-43.382 84.741z"/><path d="m183.991 228.027c0 11.151 9.026 20.021 19.999 20.021 20.102 0 27.675-26.566 10.356-37.086 2.659-2.479 4.811-5.283 6.393-8.357 15.13-7.466 19.251-28.968 19.251-45.695 0-8.823-7.143-15.964-15.966-15.982-8.915 0-15.997 7.196-16.034 15.949-.024 5.652-1.04 12.441-2.294 16.198-7.488 1.087-13.239 7.29-13.679 14.91-2.205 1.475-7.971 2.423-10.536 1.896-10.423-3.81-21.491 3.918-21.491 15.028 0 .841-.131 1.482-.309 1.965-6.075-3.332-13.857-2.426-19.004 2.722-6.249 6.248-6.249 16.379 0 22.627 12.323 12.325 32.196 9.507 43.314-4.196z"/><path d="m291.242 202.606c1.581 3.074 3.734 5.878 6.392 8.357-17.317 10.519-9.748 37.086 10.356 37.086 10.976 0 19.999-8.874 19.999-20.021 11.045 13.611 30.919 16.594 43.314 4.196 6.249-6.248 6.249-16.379 0-22.627-5.147-5.146-12.929-6.053-19.004-2.722-.178-.482-.309-1.124-.309-1.965 0-11.099-11.057-18.844-21.491-15.028-2.567.529-8.332-.423-10.536-1.896-.44-7.613-6.184-13.823-13.679-14.91-1.254-3.756-2.27-10.542-2.294-16.192-.015-8.823-7.173-15.973-16-15.973-8.836 0-16 7.163-16 16 0 16.776 4.122 38.234 19.252 45.695z"/></svg>