<svg id="Layer_1" enable-background="new 0 0 512 512" height="512" viewBox="0 0 512 512" width="512" xmlns="http://www.w3.org/2000/svg"><circle cx="172" cy="200.627" r="20"/><path d="m502.445 243.271c5.774-2.539 9.555-8.268 9.555-14.645 0-22.964-23.52-60.424-36.72-80.177 10.818-10.308 18.408-10.677 20.409-20.686.832-4.161-.022-8.482-2.377-12.013-15.957-23.935-58.825-49.368-91.708-48.677-14.741-8.784-32.913-15.153-54.384-19.039 9.14-8.993 4.49-24.584-8.082-27.099-34.18-6.839-67.138 10.042-83.138 20.211-16-10.168-48.954-27.044-83.137-20.209-12.574 2.515-17.221 18.107-8.082 27.099-21.469 3.885-39.64 10.254-54.381 19.036-32.895-.705-75.756 24.744-91.713 48.68-4.901 7.353-2.915 17.286 4.438 22.188 6.693 4.463 10.944 7.985 13.594 10.511-13.209 19.769-36.719 57.211-36.719 80.175 0 6.388 3.793 12.113 9.555 14.645-13.234 64.981-5.189 133.561 33.505 186.766 9.09 12.499 28.94 6.037 28.94-9.411 0-1.514.092-2.912.257-4.201 16.09 17.845 36.716 28.87 60.371 29.087 11.25 21.337 28.63 39.921 55.491 46.636 13.218 3.307 24.198-10.394 18.254-22.553 14.079 10.997 29.65 18.587 45.841 22.574 2.038.496 3.834.46 3.786.46 6.747 0 29.604-7.395 49.627-23.034-5.944 12.155 5.033 25.861 18.254 22.553 26.86-6.715 44.241-25.299 55.491-46.636 23.654-.219 44.28-11.241 60.373-29.089.164 1.289.256 2.688.256 4.203 0 15.457 19.855 21.905 28.939 9.411 38.703-53.217 46.734-121.795 33.505-186.766zm-309.116-166.7c9.946-.827 17.448-11.601 17.79-21.614 19.385 6.114 34.485 17.849 34.912 18.184 5.817 4.635 13.932 4.549 19.626.225 10.087-7.583 22.878-14.514 35.226-18.408.341 10.003 7.836 20.787 17.789 21.614 26.703 2.225 60.768 9.193 79.807 28.089l-25.108 4.185c-15.713 2.619-18.314 24.214-3.672 30.488.104.045 10.92 5.069 21.952 18.465 15.929 19.343 24.349 46.602 24.349 78.827 0 25.5-2.078 42.319-4.554 53.312-11.802-20.516-30.328-36.644-44.291-43.622-7.903-3.951-17.515-.748-21.466 7.155-3.952 7.903-.748 17.515 7.155 21.466.454.228 38.976 20.12 41.539 68.104-4.599-1.932-8.066-2.415-10.384-2.415-8.837 0-16 7.163-16 16 0 17.247-4.169 43.975-12.354 64.172.748-17.605-1.725-40.104-13.336-63.327-23.311-46.623-65.759-53.681-69.874-75.942 31.754-13.353 8.6-52.903-16.436-52.903-25.063 0-48.191 39.55-16.436 52.903-4.116 22.26-46.565 29.323-69.875 75.942-11.672 23.344-14.109 45.958-13.323 63.604-4.288-7.592-12.301-40.266-12.366-64.449 0-9.853-9.391-20.733-26.407-13.575 2.441-47.213 39.588-67.092 41.63-68.148 7.854-3.973 11.028-13.551 7.087-21.432-3.953-7.904-13.564-11.106-21.466-7.155-14.165 7.077-32.594 23.29-44.291 43.622-2.474-10.993-4.552-27.811-4.552-53.312 0-74.521 43.507-95.991 46.368-97.32 14.549-5.953 12.458-27.763-3.737-30.462l-25.04-4.174c10.962-10.793 33.649-24.259 79.738-28.099zm-107.018 304.9c-3.952-7.904-13.565-11.106-21.466-7.155-3.477 1.738-7.861 4.944-11.975 9.694-12.928-27.577-18.616-59.269-16.938-94.612 1.729-36.409 11.05-63.148 11.136-63.39 2.672-7.482-.554-15.733-7.478-19.468 7.231-14.843 18.593-33.43 29.429-48.614 8.488-11.883-2.347-25.895-13.388-35.508 5.037-4.254 11.044-8.29 17.363-11.774-.448 1.586-.676 2.743-.777 3.351-1.453 8.717 4.436 16.961 13.152 18.413l12.731 2.122c-16.838 19.093-34.1 51.104-34.1 102.096 0 28.226 2.112 76.53 22.371 95.966-1.577 12.729-1.274 27.103 1.939 43.171 2.382 11.91 16.677 16.918 25.971 9.122 1.123 7.924 2.799 16.957 5.295 26.361-21.384-7.12-32.695-28.665-33.265-29.775zm169.689 78.562c-35.27-10.584-56.109-41.445-66.383-61.798 8.752-50.498 45.596-60.746 66.383-82.46 21.005 21.941 57.612 31.857 66.383 82.46-10.275 20.353-31.113 51.214-66.383 61.798zm203.097-76.062c-6.406-7.382-14.85-13.626-24.156-10.523-4.025 1.342-7.354 4.228-9.251 8.023-.144.286-11.514 22.491-33.262 29.762 2.495-9.399 4.169-18.427 5.292-26.347 9.304 7.804 23.591 2.775 25.971-9.122 3.214-16.068 3.516-30.442 1.94-43.171 20.225-19.411 22.369-67.57 22.369-95.967 0-50.992-17.263-83.003-34.101-102.096l12.731-2.122c8.716-1.452 14.604-9.696 13.151-18.413-.101-.608-.328-1.766-.777-3.353 6.32 3.484 12.327 7.521 17.364 11.776-11.059 9.627-21.87 23.633-13.389 35.508 10.84 15.177 22.205 33.764 29.437 48.61-6.916 3.722-10.162 11.977-7.485 19.472.332.925 28.954 83.295-5.834 157.963z"/><circle cx="340" cy="200.627" r="20"/></svg>