<svg id="Layer_1" enable-background="new 0 0 512 512" height="512" viewBox="0 0 512 512" width="512" xmlns="http://www.w3.org/2000/svg"><circle cx="176" cy="225.56" r="24"/><path d="m481.057 142.663c-8.457-7.691-17.214-11.278-24.71-12.807-8.393-29.008-27.912-52.726-63.171-77.404-54.614-38.23-103.823-36.098-137.176-14.924-33.316-21.15-82.521-23.334-137.175 14.923-35.262 24.681-54.782 48.4-63.173 77.404-7.496 1.529-16.253 5.118-24.709 12.808-20.532 18.674-30.943 54.64-30.943 106.897 0 55.375 5.009 97.855 14.888 126.256 12.633 36.321 31.18 41.744 41.112 41.744 14.77 0 28.022-10.222 42.979-12.889 21.147 42.438 65.686 72.563 68.146 74.201 5.362 3.576 12.365 3.581 17.741.007.137-.091 10.628-7.031 24.626-14.162 22.256 33.113 70.765 33.104 93.015 0 13.998 7.13 24.488 14.069 24.619 14.156 5.372 3.581 12.375 3.583 17.748-.001 2.459-1.639 46.998-31.763 68.145-74.2 14.87 2.651 28.246 12.888 42.98 12.888 9.932 0 28.479-5.423 41.112-41.744 9.88-28.402 14.889-70.881 14.889-126.256 0-52.257-10.411-88.223-30.943-106.897zm-424.418 242.837c-1.489-1.01-7.726-6.313-13.691-27.045-7.265-25.238-10.948-61.876-10.948-108.895 0-51.278 10.674-72.464 18.352-81.067-.545 17.636.249 35.251-2.228 55.082-5.845 46.744 7.839 101.627 40.086 133.181-.452 5.81-.108 11.635.76 17.343-13.834 3.286-27.093 10.568-32.331 11.401zm199.361 72.06c-13.233 0-24-10.767-24-24v-43.261c8.71-2.31 17.15-5.887 24-11.337 6.851 5.451 15.29 9.028 24 11.338v43.26c0 13.233-10.767 24-24 24zm79.32-11.268c-18.95-11.281-23.32-12.087-23.32-12.732v-39.315c6.684.072 13.301-.286 17.767-.782 8.773-.975 15.089-8.87 14.126-17.645-.962-8.776-8.881-15.126-17.637-14.162-14.444 1.559-50.294.572-53.868-12.813 4.686-2.757 9.12-6.668 13.093-11.651 22.777-28.563 6.107-47.631-29.481-47.631-35.344 0-52.411 18.877-29.481 47.631 3.973 4.983 8.407 8.895 13.093 11.651-3.563 13.347-39.208 14.399-53.868 12.813-8.771-.969-16.672 5.362-17.646 14.138-.976 8.782 5.353 16.693 14.136 17.669 4.43.492 11.033.855 17.767.782v39.315c0 .488-6.731 2.857-23.319 12.732-21.089-16.339-56.682-50.964-56.682-84.732 0-10.216 5.493-21.187 16.328-32.609 6.081-6.411 5.813-16.538-.598-22.619-6.412-6.083-16.539-5.814-22.619.598-4.751 5.009-8.811 10.086-12.221 15.215-15.059-21.954-25.714-57.003-21.013-94.6 8.403-67.251-15.397-97.994 57.299-148.877 67.229-47.062 106.013-11.226 107.631-9.675-.173-.172-2.619-.119 22.507-.119l-.12.119c1.618-1.55 40.399-37.387 107.632 9.676 72.733 50.908 48.876 81.494 57.299 148.877 4.7 37.596-5.956 72.645-21.014 94.599-3.41-5.129-7.47-10.207-12.221-15.215-6.082-6.412-16.209-6.68-22.619-.598-6.411 6.081-6.679 16.208-.598 22.619 10.834 11.422 16.327 22.393 16.327 32.609 0 33.772-35.604 68.403-56.68 84.732zm133.733-87.837c-5.966 20.731-12.202 26.035-13.691 27.045-5.343-.85-18.26-8.063-32.33-11.407.864-5.687 1.212-11.514.759-17.338 32.334-31.64 45.91-86.596 40.087-133.18-2.479-19.836-1.685-37.507-2.229-55.083 7.678 8.604 18.352 29.79 18.352 81.067-.001 47.02-3.684 83.658-10.948 108.896z"/><circle cx="336" cy="225.56" r="24"/></svg>