<svg id="Layer_1" enable-background="new 0 0 512 512" height="512" viewBox="0 0 512 512" width="512" xmlns="http://www.w3.org/2000/svg"><path d="m437.313 122.109c-13.564-20.348-32.799-25.026-46.749-24.343-37.961-43.855-89.739-58.035-134.564-47.346-44.691-10.659-96.489 3.36-134.564 47.346-13.943-.685-33.185 3.997-46.749 24.343-16.177 24.264-74.687 82.185-74.687 144.875 0 59.379 32 85.61 32 120 0 17.079 16.101 34.199 29.606 45.553 27.244 22.903 76.175 48.623 95.706 19.322 7.892-11.837 6.477-28.848.837-52.198 9.912 12.463 24.786 22.3 36.565 26.424 3.12 1.092 6.502 1.192 9.682.283 1.869-.534 32.211-9.477 51.604-31.178 16.883 18.893 47.821 31.794 56 31.794 10.39 0 31.46-14.258 41.851-27.323-5.64 23.35-7.055 40.361.837 52.198 9.726 14.589 27.446 15.264 44.295 10.163 29.276-8.865 81.017-44.869 81.017-75.038 0-34.377 32-60.61 32-120 0-62.684-58.459-120.535-74.687-144.875zm-181.313 208.159c-14.537-5.355-21.099-18.192-23.442-24.167.447-.955 1.22-2.217 2.548-3.591 2.793-1.798 12.83-3.499 20.895-3.525 7.894 0 18.105 1.733 20.895 3.526 1.328 1.374 2.101 2.636 2.548 3.591-2.345 5.974-8.907 18.811-23.444 24.166zm55.277 63.512c-11.116-4.305-36.506-16.197-39.053-35.624 30.635-14.134 38.923-45.789 39.298-47.291 2.431-9.718-4.38-23.365-12.209-31.194-16.903-16.903-69.628-16.999-86.627 0-9.353 9.352-14.318 22.762-12.209 31.194.375 1.502 8.663 33.156 39.298 47.291-2.549 19.44-27.97 31.335-39.055 35.627-11.985-6.224-22.171-16.216-24.781-29.597.211-2.849-.193-7.053-.631-9.893.087-1.591.25-3.213.505-4.875 12.925-84.007 41.093-104.953 53.121-113.897 5.659-4.208 10.053-7.464 10.94-14.542 4.058-32.299 10.128-71.019 13.31-80.653.956-1.06 1.896-2.178 2.815-3.333.919 1.155 1.859 2.274 2.815 3.333 3.181 9.63 9.251 48.352 13.31 80.653.887 7.072 5.284 10.336 10.94 14.542 12.028 8.944 40.196 29.891 53.121 113.897.255 1.658.42 3.277.507 4.865-.438 2.834-.846 7.072-.632 9.916-2.61 13.351-12.8 23.362-24.783 29.581zm136.723-7.055c-1.022 4.975-14.283 20.963-36.545 34.454-15.395 9.33-25.963 11.844-30.19 11.801-2.147-20.52 23.402-82.847 33.426-143.707 1.1-2.565 1.481-5.271 1.215-7.889 5.268-36.795 4.945-74.757-9.136-108.553-3.398-8.157-12.765-12.016-20.924-8.615-8.156 3.398-12.014 12.766-8.615 20.923 11.595 27.827 11.556 60.784 6.705 93.475-4.758 6.695-14.765 17.33-23.635 28.645-16.748-65.443-43.904-86.805-57.267-96.767-2.482-18.83-6.627-48.029-10.479-66.618-6.395-30.844-8.044-15.765-22.243-44.044-5.883-11.769-22.733-11.777-28.621 0-14.076 28.15-15.823 13.078-22.243 44.044-3.852 18.585-7.996 47.778-10.479 66.618-13.363 9.963-40.519 31.324-57.267 96.767-9.02-11.507-18.806-21.849-23.635-28.645-4.851-32.69-4.89-65.647 6.705-93.475 3.398-8.157-.459-17.524-8.615-20.923-8.163-3.401-17.525.459-20.924 8.615-14.081 33.796-14.405 71.758-9.136 108.553-.266 2.619.115 5.325 1.215 7.889 9.927 60.275 35.552 123.392 33.426 143.707-8.533.097-22.893-7.379-30.19-11.801-22.265-13.491-35.526-29.479-36.548-34.454-.129-44.625-32-68.043-32-119.74 0-49.541 52.986-102.636 69.313-127.125 8.12-12.18 18.486-10.548 21.743-9.653 6.527 2.408 13.295.105 17.574-5.398 47.952-61.653 107.785-43.45 110.395-42.617 3.107 1.018 6.73 1.076 10.035-.028.614-.203 61.822-19.699 110.311 42.645 4.282 5.503 11.049 7.806 17.574 5.398 3.255-.896 13.622-2.527 21.743 9.653 16.261 24.392 69.312 77.566 69.312 127.124 0 51.771-31.871 75.01-32 119.741z"/><circle cx="172" cy="198.984" r="20"/><circle cx="340" cy="198.984" r="20"/></svg>