<svg id="Layer_1" enable-background="new 0 0 512 512" height="512" viewBox="0 0 512 512" width="512" xmlns="http://www.w3.org/2000/svg"><circle cx="188" cy="203.642" r="20"/><path d="m450.119 151.085c-2.409-4.152.608-14.593-22.947-38.05-12.298-12.247-30.687-26.995-57.872-46.413-50.695-36.21-96.168-26.153-113.3-20.193-33.606-11.688-75.087-7.101-113.299 20.193-27.186 19.418-45.574 34.166-57.872 46.413-23.551 23.452-20.566 33.945-22.947 38.05-15.307 26.36-61.882 106.573-61.882 184.557 0 44.492 1.944 73.896 11.883 92.529 12.876 24.143 36.503 27.471 60.117 27.471 27.112 0 47.734-12.757 61.664-28.93 2.131 2.941 4.472 5.692 7.023 8.243 22.965 22.967 81.37 33.013 113.697 36.605 6.462.718 89.622-9.295 116.93-36.605 2.551-2.551 4.892-5.302 7.022-8.242 13.929 16.17 34.552 28.929 61.664 28.929 23.614 0 47.241-3.328 60.117-27.471 9.939-18.633 11.883-48.037 11.883-92.529 0-77.984-46.575-158.197-61.881-184.557zm-32.665 1.887c-9.621 20.48-26.035 150.141-16.758 179.348.004 2.048-1.874 7.573-8.345 16.936-2.681-18.63-8.589-38.79-17.645-59.914-11.628-27.145-35.477-45.568-69.263-53.647-17.883-47.286-11.51-81.281-2.738-101.749 7.937-18.521 6.872-39.631-2.745-61.16 14.375 1.296 31.925 6.438 50.739 19.876 12.584 8.988 63.502 45.354 66.755 60.31zm-256.154-60.31c18.801-13.43 36.346-18.569 50.733-19.861-9.611 21.523-10.674 42.628-2.739 61.145 8.771 20.468 15.145 54.463-2.738 101.749-33.786 8.079-57.635 26.502-69.262 53.645-9.056 21.126-14.964 41.287-17.646 59.917-6.471-9.362-8.349-14.887-8.344-16.935 9.172-28.875-7.055-158.783-16.757-179.349 3.246-14.959 54.241-51.374 66.753-60.311zm-89.3 330.98c-24.333 0-28.7-4.563-31.883-10.529-6.736-12.632-8.117-40.106-8.117-77.471 0-38.504 13.56-84.47 40.344-136.968 7.564 47.545 12.5 111.842 8.477 123.909-3.783 11.347-3.86 31.08 35.748 72.927-6.306 11.027-20.043 28.132-44.569 28.132zm200 13.803v-73.13c32.875-13.831 35.889-52.673-16-52.673-51.875 0-48.894 38.834-16 52.673v73.13c-28.553-4.413-64.825-13.256-76.687-25.116-5.472-5.473-9.299-12.995-11.41-22.344-.363-3.476-9.138-32.194 14.804-88.042 8.288-19.348 26.567-31.657 54.33-36.587 5.479-.973 10.058-4.722 12.093-9.898.164-.416.39-.961.664-1.628 24.989-60.669 16.465-105.535 4.912-132.49-6.418-14.976-.677-31.361 7.247-44.558 3.756 1.374 2.838 1.277 2.899 1.156 7.811 3.899 13.647.131 17.187-1.169 7.928 13.199 13.675 29.589 7.255 44.57-11.553 26.955-20.077 71.821 4.912 132.49.274.667.5 1.212.664 1.628 2.035 5.177 6.614 8.926 12.093 9.898 27.763 4.93 46.042 17.239 54.331 36.591 13.978 32.604 19.417 62.627 15.441 84.937-.605 1.932-2.158 15.553-12.049 25.445-11.861 11.861-48.135 20.705-76.686 25.117zm199.883-24.332c-3.183 5.966-7.55 10.529-31.883 10.529-24.522 0-38.258-17.1-44.569-28.134 39.61-41.847 39.53-61.579 35.747-72.926-1.78-5.341-2.555-30.809 2.606-79.082 1.85-17.307 3.915-32.534 5.871-44.827 26.785 52.499 40.345 98.465 40.345 136.969 0 37.365-1.381 64.839-8.117 77.471z"/><circle cx="324" cy="203.642" r="20"/></svg>