<svg id="Layer_1" enable-background="new 0 0 512 512" height="512" viewBox="0 0 512 512" width="512" xmlns="http://www.w3.org/2000/svg"><circle cx="148" cy="292" r="28"/><circle cx="364" cy="292" r="28"/><path d="m458.789 157.259c-3.386-17.778-3.226-19.172-1.909-39.418 2.125-32.69 5.036-77.46-17.95-101.989-9.857-10.519-22.954-15.852-38.93-15.852-53.679 0-80.56 82.478-91.706 133.981-38.811-7.73-64.99-7.887-104.587 0-11.181-51.656-38.012-133.981-91.707-133.981-15.976 0-29.073 5.333-38.93 15.851-22.986 24.529-20.075 69.299-17.95 101.989 1.323 20.343 1.468 21.689-1.909 39.418-4.032 21.162-9.404 49.385 20.33 71.72-8.687 41.853 14.665 55.426-.396 93.079-18.562 46.405 36.568 76.953 39 95.986 1.042 55.89 8.781 93.957 55.855 93.957 15.301 0 25.436-6.366 32.788-14.55 9.781 3.613 21.143 14.55 55.212 14.55 34.07 0 45.43-10.936 55.212-14.55 7.352 8.184 17.487 14.55 32.788 14.55 47.072 0 54.813-38.065 55.855-93.952 2.438-19.071 57.567-49.575 39-95.99-15.131-37.827 8.33-51.04-.396-93.079 29.734-22.335 24.362-50.559 20.33-71.72zm-374.143 5.989c4.039-21.207 3.859-25.154 2.407-47.483-1.547-23.795-4.136-63.622 9.368-78.032 2.305-2.462 6.429-5.733 15.579-5.733 26.865 0 50.584 61.144 60.736 109.768-32.921 10.161-66.859 27.288-86.005 55.911-6.96-8.811-5.054-18.852-2.085-34.431zm171.354 316.752c-21.547 0-27.553-4.89-38.036-9.953 7.585-13.136 15.689-22.047 38.036-22.047s30.451 8.911 38.036 22.047c-10.026 4.842-16.193 9.953-38.036 9.953zm0-112c-13.955 0-22.449-5.508-23.889-8 1.439-2.492 9.934-8 23.889-8s22.449 5.508 23.889 8c-1.44 2.492-9.934 8-23.889 8zm88 112c-6.907 0-9.578-2.695-17.863-18.02-8.626-15.957-21.103-39.017-54.137-44.681v-18.893c44.362-9.01 52.76-49.751 20.516-69.097-20.67-12.402-52.328-12.423-73.032 0-32.363 19.417-23.706 60.115 20.516 69.097v18.893c-33.034 5.665-45.511 28.724-54.137 44.681-8.285 15.325-10.956 18.02-17.863 18.02-11.919 0-14.501-3.091-17.214-9.652-6.015-14.55-6.786-45.238-6.786-70.348 0-40.685 77.656-80.802 112.008-94.812 34.354 13.978 111.992 54.033 111.992 94.812 0 25.11-.771 55.798-6.786 70.348-2.713 6.561-5.295 9.652-17.214 9.652zm49.519-108.871c-19.171-42.426-78.821-75.735-121.519-93.898v-29.231c0-8.836-7.164-16-16-16s-16 7.164-16 16v29.231c-42.629 18.134-102.336 51.445-121.519 93.898-13.012-15.188-20.189-25.777-15.625-37.187 17.885-44.713-1.674-64.965 1.065-92.35 2.768-27.676 24.55-49.42 64.742-64.628 27.973-10.584 64.875-16.964 87.337-16.964 22.737 0 59.504 6.433 87.338 16.964 40.192 15.208 61.974 36.952 64.742 64.628 2.737 27.364-16.813 47.656 1.065 92.35 4.563 11.411-2.614 22-15.626 37.187zm-54.255-229.361c10.152-48.624 33.871-109.768 60.736-109.768 9.15 0 13.274 3.271 15.58 5.732 13.504 14.41 10.915 54.236 9.368 78.032-1.457 22.399-1.622 26.331 2.407 47.483 2.968 15.579 4.874 25.62-2.085 34.431-19.144-28.619-53.077-45.747-86.006-55.91z"/></svg>