<svg id="Layer_1" enable-background="new 0 0 512.003 512.003" height="512" viewBox="0 0 512.003 512.003" width="512" xmlns="http://www.w3.org/2000/svg"><circle cx="176.001" cy="296" r="24"/><path d="m493.33 113.716c-13.708-23.735-16.049-29.589-17.833-64.733-.53-10.446-.987-19.468-2.906-27.082-4.982-19.767-18.856-21.901-24.59-21.901-33.076 0-37.451 2.87-91.88 16.478-54.783 13.697-64.887 83.653-61.26 139.668-17.931-.167-32.275 2.169-38.859 3.484-6.585-1.314-20.928-3.651-38.859-3.484 3.63-56.078-6.47-125.969-61.26-139.668-54.491-13.623-58.83-16.478-91.882-16.478-5.733 0-19.607 2.134-24.589 21.901-1.919 7.614-2.376 16.635-2.906 27.082-1.796 35.381-4.232 41.185-17.833 64.733-8.752 15.155-18.672 32.331-18.672 54.284 0 24.026 1.828 67.046 19.849 82.919 8.499 14.949 14.974 32.812 13.706 38.2-5.073 10.642 2.761 22.883 14.433 22.883 14.213-.001 12.742-13.57 22.791-13.223-19.346 83.532-6.779 85.23-6.779 125.221 0 8.859 7.191 16.001 16.004 16.001 15.164-.001 12.327-17.542 8.136 13.884-1.693 12.705 11.545 22.159 23.015 16.426l13.86-6.93c5.778 15.904 18.19 36.228 44.802 47.376 9.816 4.112 22.289-2.224 22.17-15.806 14.8 2.029 47.774-.022 48.145 3.012.774 6.314 5.261 11.551 11.242 13.352 9.594 2.896 19.499-3.665 20.546-13.715 8.389-2.776 32.821-.555 48.092-2.649-.117 13.451 12.261 19.958 22.17 15.806 26.611-11.149 39.023-31.473 44.802-47.376l13.86 6.93c11.463 5.731 24.709-3.715 23.015-16.426-4.193-31.443-7.018-13.884 8.136-13.884 8.822 0 16.004-7.153 16.004-16.001 0-39.821 12.55-41.761-6.779-125.222 10.058-.355 8.538 13.224 22.791 13.224 11.621 0 19.526-12.2 14.433-22.883-1.257-5.356 5.225-23.23 13.716-38.209 18.011-15.88 19.839-58.882 19.839-82.91.001-21.953-9.918-39.129-18.67-54.284zm-431.256 153.878c-3.682-11.87-10.627-26.283-16.353-35.826-1.228-2.046-2.889-3.778-4.85-5.084-1.566-2.267-8.87-15.183-8.87-58.684 0-24.71 23.437-44.385 31.504-76.049 5.676-22.276 4.253-46.417 6.435-59.916 23.076.307 27.924 2.922 78.18 15.488 41.476 10.369 38.494 88.473 36.642 111.808-37.304 7.299-85.59 30.678-104.222 100.547-.69 2.586-1.355 5.108-2.001 7.582-5.257-.924-10.864-1.017-16.465.134zm89.909 171.629c-.369-11.279-12.377-18.913-23.137-13.534l-1.761.881c13.756-39.422 43.08-56.298 79.72-51.902 2.853 22.575 13.08 36.309 26.306 43.578-4.613 3.158-12.299 5.754-25.11 5.754-26.828 0-44.875 12.223-48.164 38.314-6.844-10.982-7.771-21.882-7.854-23.091zm104.018-47.223c-11.682 0-15.347-10.819-16.381-15.471-.735-3.304-.624-2.837-.374-2.784 14.307 3.011 19.196 3.013 33.51 0 .324-.068-1.708 18.255-16.755 18.255zm0 77.719c-18.677-9.606-50.361-3.305-63.675-7.204.411-1.354.952-2.473 1.677-3.236 1.979-2.084 7.081-3.279 13.998-3.279 24.067 0 38.92-7.154 48-15.095 9.08 7.941 23.933 15.095 48 15.095 6.917 0 12.019 1.195 13.998 3.279.725.763 1.266 1.882 1.677 3.236-13.159 3.854-45.131-2.333-63.675 7.204zm127.156-44.03c-10.346-5.173-22.616 2.031-23.139 13.588-.008.185-.647 11.583-7.845 23.089-3.309-26.411-21.663-38.366-48.172-38.366-12.811 0-20.497-2.596-25.11-5.754 16.214-8.911 23.971-25.089 26.307-43.584 36.506-4.376 65.922 12.373 79.719 51.908zm-88.982-81.663c-9.007-5.588-19.81-3.321-28.011-1.594-9.818 2.066-10.485 2.071-20.325 0-8.202-1.728-19.005-3.994-28.012 1.594-37.476-7.513-78.764 4.324-103.898 38.727-7.089-.301-14.115 1.334-20.808 4.854-2.381-19.912-2.759-40.364 18.34-119.485 11.469-43.011 37.932-68.995 78.653-77.23 33.3-6.734 62.668.829 64.09.992 1.8.204 3.599.135 5.774-.385 13.776-3.565 39.47-4.974 60.97-.793 41.255 8.021 68.035 34.068 79.594 77.417 21.099 79.121 20.721 99.573 18.341 119.484-6.693-3.52-13.72-5.155-20.809-4.854-24.886-34.063-66.183-46.288-103.899-38.727zm176.957-117.342c-1.961 1.306-3.623 3.039-4.85 5.084-5.737 9.561-12.681 23.984-16.352 35.826-5.602-1.15-11.209-1.057-16.467-.134-.647-2.475-1.312-4.997-2.001-7.583-18.64-69.9-66.961-93.268-104.272-100.557-3.219-37.622-.346-102.539 36.693-111.798 50.458-12.616 55.174-15.181 78.18-15.488 2.183 13.506.762 37.653 6.435 59.916 8.085 31.735 31.504 51.29 31.504 76.049-.001 43.502-7.304 56.418-8.87 58.685z"/><circle cx="336.001" cy="296" r="24"/></svg>