<svg id="Layer_1" enable-background="new 0 0 512 512" height="512" viewBox="0 0 512 512" width="512" xmlns="http://www.w3.org/2000/svg"><path d="m256 304c-44.539 0-48 24.493-48 32 0 63.847 96 63.897 96 0 0-7.507-3.461-32-48-32zm0 48c-4.552 0-14.816-1.397-15.906-13.784 7.305-2.961 24.485-2.97 31.812 0-1.09 12.387-11.353 13.784-15.906 13.784z"/><circle cx="200" cy="240" r="16"/><path d="m467.313 244.687c-32.489-32.49-48.209-77.458-51.342-87.196-1.109-95.278-64.188-133.491-159.971-133.491-95.73 0-158.869 38.171-159.972 133.508-3.103 9.713-18.677 54.513-51.342 87.178-44.686 44.687-44.686 98.914-44.686 131.314 0 11.77 1.911 42.066 19.609 69.127 12.792 19.559 37.817 42.873 84.391 42.873 60.504 0 86.902-26.818 93.659-76.098 13.918 8.279 32.713 12.098 58.341 12.098s44.423-3.819 58.341-12.098c6.771 49.377 33.238 76.098 93.659 76.098 46.574 0 71.599-23.314 84.391-42.873 17.698-27.061 19.609-57.357 19.609-69.127 0-32.4 0-86.627-44.687-131.313zm-363.313 211.313c-68.529 0-72-66.641-72-80 0-30.965 0-73.373 35.313-108.687 15.083-15.083 26.941-32.133 35.997-47.959 15.841 57.211 51.435 72.999 56.85 110.908 2.123 14.859 4.292 28.269 7.834 40.081-.223 64.201-9.899 85.657-63.994 85.657zm152-64c-52.485 0-56.653-13.708-64.161-66.263-9.061-63.426-63.839-66.266-63.839-165.737 0-78.461 49.157-104 128-104 78.839 0 128 25.536 128 104 0 99.831-54.721 101.902-63.839 165.737-5.405 37.832-6.948 34.201-7.89 39.39-7.244 20.529-20.592 26.873-56.271 26.873zm152 64c-54.096 0-63.771-21.456-63.995-85.657 3.542-11.812 5.711-25.221 7.834-40.08 5.417-37.91 41-53.66 56.851-110.908 9.055 15.825 20.913 32.875 35.997 47.958 35.313 35.314 35.313 77.722 35.313 108.687 0 13.359-3.472 80-72 80z"/><circle cx="312" cy="240" r="16"/></svg>