<svg id="Layer_1" enable-background="new 0 0 512 512" height="512" viewBox="0 0 512 512" width="512" xmlns="http://www.w3.org/2000/svg"><circle cx="172" cy="215.967" r="20"/><path d="m215.155 149.656c-20.771-10.385-36.468-3.002-42.469 2.998-6.249 6.248-6.249 16.379 0 22.627 5.827 5.828 15.03 6.22 21.314 1.178.814-.157 3.085-.06 6.844 1.82 7.913 3.956 17.52.738 21.466-7.156 3.953-7.904.75-17.515-7.155-21.467z"/><path d="m496 259.967c0-27.91 16-45.242 16-80 0-73.279-81.77-104.901-153.723-111.553-8.25-6.13-26.288-16.447-54.277-16.447-23.463 0-39.459 3.958-48 6.839-8.541-2.88-24.537-6.839-48-6.839-27.989 0-46.027 10.317-54.277 16.447-72.174 6.672-153.723 38.37-153.723 111.553 0 34.99 16 51.772 16 80 0 32.021-11.635 56.45-10.601 77.566 1.093 22.31 17.659 35.888 31.396 35.888 19.202 0 36.417-21.954 47.721-38.57 6.072 13.406 14.639 26.447 26.606 34.427 16.957 11.307 29.613 22.529 38.37 30.931 4.493 25.385 19.518 41.43 44.697 43.52 31.162 21.703 92.353 21.775 123.619 0 25.181-2.09 40.204-18.134 44.697-43.52 8.758-8.402 21.414-19.624 38.37-30.931 11.967-7.98 20.534-21.021 26.606-34.427 11.278 16.578 28.512 38.57 47.721 38.57 13.735 0 30.303-13.575 31.396-35.888 1.038-21.146-10.598-45.491-10.598-77.566zm-457.672 80.002c-4.916-9.312 9.672-41.284 9.672-80.002 0-34.99-16-51.772-16-80 0-50.432 62.946-69.461 100.868-76.348-11.607 54.872-13.394 98.546-53.608 176.845-19.904 38.753-34.552 54.714-40.932 59.505zm211.789 28.027c2.054-3.85 3.43-4.029 5.883-4.029 12.777 0 9.688 39.295 23.379 61.633-14.241 3.164-32.504 3.167-46.759 0 11.095-18.102 10.605-44.682 17.497-57.604zm61.883 43.971c-2.453 0-3.829-.179-5.883-4.029-6.336-11.88-6.661-37.49-16-55-9.243-17.333-23.655-20.971-34.117-20.971-53.04 0-37.411 80-56 80-11.476 0-17.389-3.534-19.504-20.702-1.581-19.845.219-35.157 3.343-57.035 2.829-19.802 9.798-33.714 18.434-43.487 6.837 16.064 30.982 31.521 46.42 39.458 4.589 2.355 10.027 2.355 14.615 0 15.447-7.942 39.584-23.398 46.42-39.458 8.636 9.773 15.605 23.686 18.434 43.487 3.084 21.594 4.907 37.406 3.343 57.035-2.122 17.219-8.074 20.702-19.505 20.702zm-32.127-132.99c-2.549 4.195-12.806 12.138-23.882 18.706-11.065-6.55-21.312-14.491-23.864-18.705 1.176-4.723 10.41-11.011 23.873-11.011 13.462 0 22.696 6.287 23.873 11.01zm103.25 63.678c-7.409 4.94-14.054 9.85-20.001 14.561-.758-8.568-1.886-17.731-3.283-27.511-8.733-61.134-54.348-95.761-106.844-93.676-51.341 1.358-92.507 35.389-100.833 93.676-1.397 9.78-2.525 18.944-3.283 27.511-5.947-4.71-12.592-9.62-20.001-14.561-10.585-7.058-18.682-26.974-23.021-43.969 33.805-64.613 42.588-104.719 54.685-169.599 5.881-31.532 5.266-28.299 10.772-33.807.113-.113 12.404-11.313 36.687-11.313 27.07 0 40.885 6.333 41.021 6.397-.275-.134-1.912-.086 14.134-.086-.67.327 13.175-6.311 40.845-6.311 23.824 0 35.884 10.59 36.819 11.447 7.554 7.56 3.421-.659 19.491 79.691 6.446 32.231 22.227 78.462 45.833 123.582-4.339 16.994-12.436 36.91-23.021 43.968zm89.698-127.748c-9.53 28.588-13.09 45.986-1.916 96.968 3.826 17.451 4.73 24.375 2.767 28.094-6.38-4.791-21.028-20.752-40.932-59.505-40.166-78.206-41.923-121.603-53.608-176.845 37.922 6.886 100.868 25.916 100.868 76.348 0 13.403-3.327 23.384-7.179 34.94z"/><circle cx="340" cy="215.967" r="20"/><path d="m339.313 175.28c6.249-6.248 6.249-16.379 0-22.627-6-6.001-21.698-13.384-42.469-2.998-15.021 7.51-9.688 30.316 7.168 30.314 2.404 0 4.846-.544 7.143-1.692 3.761-1.88 6.03-1.977 6.844-1.82 6.284 5.042 15.487 4.651 21.314-1.177z"/></svg>